<?xml version="1.0" encoding="UTF-8" standalone="no"?><!DOCTYPE svg PUBLIC "-//W3C//DTD SVG 1.1//EN" "http://www.w3.org/Graphics/SVG/1.1/DTD/svg11.dtd"><svg width="100%" height="100%" viewBox="0 0 128 128" version="1.1" xmlns="http://www.w3.org/2000/svg" xmlns:xlink="http://www.w3.org/1999/xlink" xml:space="preserve" xmlns:serif="http://www.serif.com/" style="fill-rule:evenodd;clip-rule:evenodd;stroke-linejoin:round;stroke-miterlimit:2;"><path d="M64,0C28.891,0 -0,28.891 0,64C0,99.109 28.891,128 64,128C99.109,128 128,99.109 128,64C127.962,28.905 99.095,0.038 64,0ZM64,122C32.182,122 6,95.818 6,64C6,32.182 32.182,6 64,6C95.818,6 122,32.182 122,64C121.962,95.803 95.803,121.962 64,122Z" style="fill:url(#_Linear1);fill-rule:nonzero;"/><path d="M92.12,35.79C90.957,34.628 89.043,34.628 87.88,35.79L64,59.75L40.13,35.75C39.567,35.187 38.802,34.87 38.005,34.87C36.356,34.87 35,36.226 35,37.875C35,38.672 35.317,39.437 35.88,40L59.76,64L35.88,88C35.319,88.563 35.003,89.325 35.003,90.12C35.003,91.767 36.358,93.122 38.005,93.122C38.802,93.122 39.567,92.804 40.13,92.24L64,68.25L87.88,92.25C88.443,92.813 89.208,93.13 90.005,93.13C91.654,93.13 93.01,91.774 93.01,90.125C93.01,89.328 92.693,88.563 92.13,88L68.24,64L92.13,40C93.27,38.837 93.265,36.948 92.12,35.79Z" style="fill:url(#_Linear2);fill-rule:nonzero;"/><defs><linearGradient id="_Linear1" x1="0" y1="0" x2="1" y2="0" gradientUnits="userSpaceOnUse" gradientTransform="matrix(7.83774e-15,128,-128,7.83774e-15,67,0)"><stop offset="0" style="stop-color:rgb(223,137,152);stop-opacity:1"/><stop offset="0.9" style="stop-color:rgb(229,185,157);stop-opacity:1"/><stop offset="1" style="stop-color:rgb(229,183,155);stop-opacity:1"/></linearGradient><linearGradient id="_Linear2" x1="0" y1="0" x2="1" y2="0" gradientUnits="userSpaceOnUse" gradientTransform="matrix(7.83774e-15,128,-128,7.83774e-15,67,0)"><stop offset="0" style="stop-color:rgb(223,137,152);stop-opacity:1"/><stop offset="0.9" style="stop-color:rgb(229,185,157);stop-opacity:1"/><stop offset="1" style="stop-color:rgb(229,183,155);stop-opacity:1"/></linearGradient></defs></svg>