<?xml version="1.0" encoding="UTF-8" standalone="no"?><!DOCTYPE svg PUBLIC "-//W3C//DTD SVG 1.1//EN" "http://www.w3.org/Graphics/SVG/1.1/DTD/svg11.dtd"><svg width="100%" height="100%" viewBox="0 0 180 180" version="1.1" xmlns="http://www.w3.org/2000/svg" xmlns:xlink="http://www.w3.org/1999/xlink" xml:space="preserve" xmlns:serif="http://www.serif.com/" style="fill-rule:evenodd;clip-rule:evenodd;"><g id="yes"><path d="M15,145C15,151.63 17.634,157.989 22.322,162.678C27.011,167.366 33.37,170 40,170L150,170C156.63,170 162.989,167.366 167.678,162.678C172.366,157.989 175,151.63 175,145L175,35C175,28.37 172.366,22.011 167.678,17.322C162.989,12.634 156.63,10 150,10L40,10C33.37,10 27.011,12.634 22.322,17.322C17.634,22.011 15,28.37 15,35L15,145Z" style="fill:none;stroke:url(#_Linear1);stroke-width:1px;"/><path d="M10,145C10,161.569 23.431,175 40,175L150,175C166.569,175 180,161.569 180,145L180,35C180,18.431 166.569,5 150,5L40,5C23.431,5 10,18.431 10,35L10,145Z" style="fill:none;stroke:url(#_Linear2);stroke-width:1px;"/><g id="back"><path d="M5,140C5,148.284 11.716,155 20,155L145,155C153.284,155 160,148.284 160,140L160,40C160,31.716 153.284,25 145,25L20,25C11.716,25 5,31.716 5,40L5,140Z" style="fill:none;stroke:url(#_Linear3);stroke-width:1px;"/><path d="M0,140C0,145.523 4.477,150 10,150C38.006,150 116.994,150 145,150C150.523,150 155,145.523 155,140C155,117.4 155,62.6 155,40C155,34.477 150.523,30 145,30C116.994,30 38.006,30 10,30C4.477,30 0,34.477 0,40C0,62.6 0,117.4 0,140Z" style="fill:none;stroke:url(#_Linear4);stroke-width:1px;"/></g><g id="front"><path d="M20,145C20,156.046 28.954,165 40,165L150,165C161.046,165 170,156.046 170,145L170,35C170,23.954 161.046,15 150,15L40,15C28.954,15 20,23.954 20,35L20,145Z" style="fill:none;stroke:url(#_Linear5);stroke-width:2px;stroke-dasharray:2,4,0,0;"/><path d="M126,15L150,15C161.046,15 170,23.954 170,35C170,55.024 170,82.883 170,82.883" style="fill:none;stroke:url(#_Linear6);stroke-width:2px;"/><path d="M64,165L40,165C28.954,165 20,156.046 20,145C20,124.976 20,97.117 20,97.117" style="fill:none;stroke:url(#_Linear7);stroke-width:2px;"/></g><path d="M55.632,95.504L78.208,118.08L134.368,61.92" style="fill:none;stroke:white;stroke-width:2px;stroke-linejoin:round;stroke-miterlimit:1.5;"/></g><defs><linearGradient id="_Linear1" x1="0" y1="0" x2="1" y2="0" gradientUnits="userSpaceOnUse" gradientTransform="matrix(6.12323e-15,100,-100,6.12323e-15,436.293,15)"><stop offset="0" style="stop-color:rgb(223,137,152);stop-opacity:0.25"/><stop offset="0.9" style="stop-color:rgb(229,185,157);stop-opacity:0.25"/><stop offset="1" style="stop-color:rgb(229,183,155);stop-opacity:0.25"/></linearGradient><linearGradient id="_Linear2" x1="0" y1="0" x2="1" y2="0" gradientUnits="userSpaceOnUse" gradientTransform="matrix(6.12323e-15,100,-100,6.12323e-15,436.293,15)"><stop offset="0" style="stop-color:rgb(223,137,152);stop-opacity:0.1"/><stop offset="0.9" style="stop-color:rgb(229,185,157);stop-opacity:0.1"/><stop offset="1" style="stop-color:rgb(229,183,155);stop-opacity:0.1"/></linearGradient><linearGradient id="_Linear3" x1="0" y1="0" x2="1" y2="0" gradientUnits="userSpaceOnUse" gradientTransform="matrix(6.12323e-15,100,-100,6.12323e-15,436.293,15)"><stop offset="0" style="stop-color:rgb(223,137,152);stop-opacity:0.5"/><stop offset="0.9" style="stop-color:rgb(229,185,157);stop-opacity:0.5"/><stop offset="1" style="stop-color:rgb(229,183,155);stop-opacity:0.5"/></linearGradient><linearGradient id="_Linear4" x1="0" y1="0" x2="1" y2="0" gradientUnits="userSpaceOnUse" gradientTransform="matrix(6.12323e-15,100,-100,6.12323e-15,436.293,15)"><stop offset="0" style="stop-color:rgb(223,137,152);stop-opacity:0.25"/><stop offset="0.9" style="stop-color:rgb(229,185,157);stop-opacity:0.25"/><stop offset="1" style="stop-color:rgb(229,183,155);stop-opacity:0.25"/></linearGradient><linearGradient id="_Linear5" x1="0" y1="0" x2="1" y2="0" gradientUnits="userSpaceOnUse" gradientTransform="matrix(6.12323e-15,100,-100,6.12323e-15,436.293,15)"><stop offset="0" style="stop-color:rgb(223,137,152);stop-opacity:0.5"/><stop offset="0.9" style="stop-color:rgb(229,185,157);stop-opacity:0.5"/><stop offset="1" style="stop-color:rgb(229,183,155);stop-opacity:0.5"/></linearGradient><linearGradient id="_Linear6" x1="0" y1="0" x2="1" y2="0" gradientUnits="userSpaceOnUse" gradientTransform="matrix(6.12323e-15,100,-100,6.12323e-15,436.293,15)"><stop offset="0" style="stop-color:rgb(223,137,152);stop-opacity:1"/><stop offset="0.9" style="stop-color:rgb(229,185,157);stop-opacity:1"/><stop offset="1" style="stop-color:rgb(229,183,155);stop-opacity:1"/></linearGradient><linearGradient id="_Linear7" x1="0" y1="0" x2="1" y2="0" gradientUnits="userSpaceOnUse" gradientTransform="matrix(6.12323e-15,100,-100,6.12323e-15,436.293,15)"><stop offset="0" style="stop-color:rgb(223,137,152);stop-opacity:1"/><stop offset="0.9" style="stop-color:rgb(229,185,157);stop-opacity:1"/><stop offset="1" style="stop-color:rgb(229,183,155);stop-opacity:1"/></linearGradient></defs></svg>