<?xml version="1.0" encoding="UTF-8" standalone="no"?><!DOCTYPE svg PUBLIC "-//W3C//DTD SVG 1.1//EN" "http://www.w3.org/Graphics/SVG/1.1/DTD/svg11.dtd"><svg width="100%" height="100%" viewBox="0 0 1920 1080" version="1.1" xmlns="http://www.w3.org/2000/svg" xmlns:xlink="http://www.w3.org/1999/xlink" xml:space="preserve" xmlns:serif="http://www.serif.com/" style="fill-rule:evenodd;clip-rule:evenodd;stroke-miterlimit:1.5;"><g id="знакомые"><circle cx="432.656" cy="624.778" r="15"/><clipPath id="_clip1"><circle cx="432.656" cy="624.778" r="15"/></clipPath><g clip-path="url(#_clip1)"><path d="M440.875,629.733C440.12,628.223 438.694,626.965 436.849,626.21C436.346,626.042 435.759,626.042 435.34,626.294C434.501,626.797 433.662,627.049 432.656,627.049C431.649,627.049 430.811,626.797 429.972,626.294C429.553,626.126 428.966,626.042 428.462,626.294C426.617,627.049 425.192,628.307 424.437,629.817C423.85,630.907 424.772,632.165 426.03,632.165L439.282,632.165C440.54,632.165 441.462,630.907 440.875,629.733ZM432.656,615.391C434.97,615.391 436.849,617.646 436.849,620.423C436.849,623.201 434.97,625.455 432.656,625.455C430.341,625.455 428.462,623.201 428.462,620.423C428.462,617.646 430.341,615.391 432.656,615.391Z" style="fill:url(#_Linear2);"/></g><circle cx="432.656" cy="624.778" r="15" style="fill:none;stroke:url(#_Linear3);stroke-width:2px;"/><circle cx="481.227" cy="620.778" r="15"/><clipPath id="_clip4"><circle cx="481.227" cy="620.778" r="15"/></clipPath><g clip-path="url(#_clip4)"><path d="M489.446,625.733C488.692,624.223 487.266,622.965 485.421,622.21C484.918,622.042 484.33,622.042 483.911,622.294C483.072,622.797 482.234,623.049 481.227,623.049C480.221,623.049 479.382,622.797 478.544,622.294C478.124,622.126 477.537,622.042 477.034,622.294C475.189,623.049 473.763,624.307 473.008,625.817C472.421,626.907 473.344,628.165 474.602,628.165L487.853,628.165C489.111,628.165 490.034,626.907 489.446,625.733ZM481.227,611.391C483.542,611.391 485.421,613.646 485.421,616.423C485.421,619.201 483.542,621.455 481.227,621.455C478.913,621.455 477.034,619.201 477.034,616.423C477.034,613.646 478.913,611.391 481.227,611.391Z" style="fill:url(#_Linear5);"/></g><circle cx="481.227" cy="620.778" r="15" style="fill:none;stroke:url(#_Linear6);stroke-width:2px;"/><circle cx="458.942" cy="653.921" r="15"/><clipPath id="_clip7"><circle cx="458.942" cy="653.921" r="15"/></clipPath><g clip-path="url(#_clip7)"><path d="M467.161,658.876C466.406,657.366 464.98,656.108 463.135,655.353C462.632,655.185 462.045,655.185 461.625,655.437C460.787,655.94 459.948,656.192 458.942,656.192C457.935,656.192 457.097,655.94 456.258,655.437C455.838,655.269 455.251,655.185 454.748,655.437C452.903,656.192 451.477,657.45 450.723,658.959C450.135,660.05 451.058,661.308 452.316,661.308L465.567,661.308C466.825,661.308 467.748,660.05 467.161,658.876ZM458.942,644.534C461.256,644.534 463.135,646.789 463.135,649.566C463.135,652.343 461.256,654.598 458.942,654.598C456.627,654.598 454.748,652.343 454.748,649.566C454.748,646.789 456.627,644.534 458.942,644.534Z" style="fill:url(#_Linear8);"/></g><circle cx="458.942" cy="653.921" r="15" style="fill:none;stroke:url(#_Linear9);stroke-width:2px;"/></g><defs><linearGradient id="_Linear2" x1="0" y1="0" x2="1" y2="0" gradientUnits="userSpaceOnUse" gradientTransform="matrix(11.1236,0,0,32.1168,423.932,627.863)"><stop offset="0" style="stop-color:rgb(223,137,152);stop-opacity:1"/><stop offset="0.9" style="stop-color:rgb(229,185,157);stop-opacity:1"/><stop offset="1" style="stop-color:rgb(229,183,155);stop-opacity:1"/></linearGradient><linearGradient id="_Linear3" x1="0" y1="0" x2="1" y2="0" gradientUnits="userSpaceOnUse" gradientTransform="matrix(30,0,0,30,417.656,624.778)"><stop offset="0" style="stop-color:rgb(223,137,152);stop-opacity:1"/><stop offset="0.9" style="stop-color:rgb(229,185,157);stop-opacity:1"/><stop offset="1" style="stop-color:rgb(229,183,155);stop-opacity:1"/></linearGradient><linearGradient id="_Linear5" x1="0" y1="0" x2="1" y2="0" gradientUnits="userSpaceOnUse" gradientTransform="matrix(11.1236,0,0,32.1168,472.504,623.863)"><stop offset="0" style="stop-color:rgb(223,137,152);stop-opacity:1"/><stop offset="0.9" style="stop-color:rgb(229,185,157);stop-opacity:1"/><stop offset="1" style="stop-color:rgb(229,183,155);stop-opacity:1"/></linearGradient><linearGradient id="_Linear6" x1="0" y1="0" x2="1" y2="0" gradientUnits="userSpaceOnUse" gradientTransform="matrix(30,0,0,30,466.227,620.778)"><stop offset="0" style="stop-color:rgb(223,137,152);stop-opacity:1"/><stop offset="0.9" style="stop-color:rgb(229,185,157);stop-opacity:1"/><stop offset="1" style="stop-color:rgb(229,183,155);stop-opacity:1"/></linearGradient><linearGradient id="_Linear8" x1="0" y1="0" x2="1" y2="0" gradientUnits="userSpaceOnUse" gradientTransform="matrix(11.1236,0,0,32.1168,450.218,657.005)"><stop offset="0" style="stop-color:rgb(223,137,152);stop-opacity:1"/><stop offset="0.9" style="stop-color:rgb(229,185,157);stop-opacity:1"/><stop offset="1" style="stop-color:rgb(229,183,155);stop-opacity:1"/></linearGradient><linearGradient id="_Linear9" x1="0" y1="0" x2="1" y2="0" gradientUnits="userSpaceOnUse" gradientTransform="matrix(30,0,0,30,443.942,653.921)"><stop offset="0" style="stop-color:rgb(223,137,152);stop-opacity:1"/><stop offset="0.9" style="stop-color:rgb(229,185,157);stop-opacity:1"/><stop offset="1" style="stop-color:rgb(229,183,155);stop-opacity:1"/></linearGradient></defs></svg>