<?xml version="1.0" encoding="UTF-8" standalone="no"?><!DOCTYPE svg PUBLIC "-//W3C//DTD SVG 1.1//EN" "http://www.w3.org/Graphics/SVG/1.1/DTD/svg11.dtd"><svg width="100%" height="100%" viewBox="0 0 1920 1080" version="1.1" xmlns="http://www.w3.org/2000/svg" xmlns:xlink="http://www.w3.org/1999/xlink" xml:space="preserve" xmlns:serif="http://www.serif.com/" style="fill-rule:evenodd;clip-rule:evenodd;stroke-miterlimit:1.5;"><rect id="Artboard2" x="0" y="0" width="1920" height="1080" style="fill:none;"/><circle cx="264.577" cy="405.501" r="10" style="fill:none;"/><clipPath id="_clip1"><circle cx="264.577" cy="405.501" r="10"/></clipPath><g clip-path="url(#_clip1)"><path d="M266.271,403.808L266.271,399.574L262.884,399.574L262.884,403.808L258.651,403.808L258.651,407.194L262.884,407.194L262.884,411.428L266.271,411.428L266.271,407.194L270.504,407.194L270.504,403.808L266.271,403.808Z" style="fill:url(#_Linear2);"/></g><circle cx="264.577" cy="405.501" r="10" style="fill:none;stroke:url(#_Linear3);stroke-width:2px;"/><circle cx="346.705" cy="592.061" r="10" style="fill:none;"/><clipPath id="_clip4"><circle cx="346.705" cy="592.061" r="10"/></clipPath><g clip-path="url(#_clip4)"><path d="M348.399,590.368L348.399,586.134L345.012,586.134L345.012,590.368L340.779,590.368L340.779,593.754L345.012,593.754L345.012,597.988L348.399,597.988L348.399,593.754L352.632,593.754L352.632,590.368L348.399,590.368Z" style="fill:url(#_Linear5);"/></g><circle cx="346.705" cy="592.061" r="10" style="fill:none;stroke:url(#_Linear6);stroke-width:2px;"/><circle cx="329.989" cy="502.445" r="10" style="fill:none;"/><clipPath id="_clip7"><circle cx="329.989" cy="502.445" r="10"/></clipPath><g clip-path="url(#_clip7)"><path d="M331.683,500.751L331.683,496.518L328.296,496.518L328.296,500.751L324.063,500.751L324.063,504.138L328.296,504.138L328.296,508.371L331.683,508.371L331.683,504.138L335.916,504.138L335.916,500.751L331.683,500.751Z" style="fill:url(#_Linear8);"/></g><circle cx="329.989" cy="502.445" r="10" style="fill:none;stroke:url(#_Linear9);stroke-width:2px;"/><defs><linearGradient id="_Linear2" x1="0" y1="0" x2="1" y2="0" gradientUnits="userSpaceOnUse" gradientTransform="matrix(7.84812,0,0,22.6954,258.423,408.387)"><stop offset="0" style="stop-color:rgb(223,137,152);stop-opacity:1"/><stop offset="0.9" style="stop-color:rgb(229,185,157);stop-opacity:1"/><stop offset="1" style="stop-color:rgb(229,183,155);stop-opacity:1"/></linearGradient><linearGradient id="_Linear3" x1="0" y1="0" x2="1" y2="0" gradientUnits="userSpaceOnUse" gradientTransform="matrix(20,0,0,20,254.577,405.501)"><stop offset="0" style="stop-color:rgb(223,137,152);stop-opacity:1"/><stop offset="0.9" style="stop-color:rgb(229,185,157);stop-opacity:1"/><stop offset="1" style="stop-color:rgb(229,183,155);stop-opacity:1"/></linearGradient><linearGradient id="_Linear5" x1="0" y1="0" x2="1" y2="0" gradientUnits="userSpaceOnUse" gradientTransform="matrix(7.84812,0,0,22.6954,340.55,594.947)"><stop offset="0" style="stop-color:rgb(223,137,152);stop-opacity:1"/><stop offset="0.9" style="stop-color:rgb(229,185,157);stop-opacity:1"/><stop offset="1" style="stop-color:rgb(229,183,155);stop-opacity:1"/></linearGradient><linearGradient id="_Linear6" x1="0" y1="0" x2="1" y2="0" gradientUnits="userSpaceOnUse" gradientTransform="matrix(20,0,0,20,336.705,592.061)"><stop offset="0" style="stop-color:rgb(223,137,152);stop-opacity:1"/><stop offset="0.9" style="stop-color:rgb(229,185,157);stop-opacity:1"/><stop offset="1" style="stop-color:rgb(229,183,155);stop-opacity:1"/></linearGradient><linearGradient id="_Linear8" x1="0" y1="0" x2="1" y2="0" gradientUnits="userSpaceOnUse" gradientTransform="matrix(7.84812,0,0,22.6954,323.834,505.331)"><stop offset="0" style="stop-color:rgb(223,137,152);stop-opacity:1"/><stop offset="0.9" style="stop-color:rgb(229,185,157);stop-opacity:1"/><stop offset="1" style="stop-color:rgb(229,183,155);stop-opacity:1"/></linearGradient><linearGradient id="_Linear9" x1="0" y1="0" x2="1" y2="0" gradientUnits="userSpaceOnUse" gradientTransform="matrix(20,0,0,20,319.989,502.445)"><stop offset="0" style="stop-color:rgb(223,137,152);stop-opacity:1"/><stop offset="0.9" style="stop-color:rgb(229,185,157);stop-opacity:1"/><stop offset="1" style="stop-color:rgb(229,183,155);stop-opacity:1"/></linearGradient></defs></svg>