<svg viewBox="0 0 1920 1080" xmlns="http://www.w3.org/2000/svg" xml:space="preserve" style="fill-rule:evenodd;clip-rule:evenodd;stroke-linejoin:round;stroke-miterlimit:2"><path d="M707.052 122.768c-22.005.005-39.843 17.843-39.848 39.848.005 22.013 17.843 39.851 39.848 39.853 22.012-.005 39.851-17.84 39.853-39.853-.002-22.005-17.841-39.843-39.853-39.848Zm-34.738 42.344h12.424c.177 4.63.812 8.784 1.793 12.451h-10.926a34.743 34.743 0 0 1-3.291-12.451Zm37.231-22.411v-14.424c2.344 1.756 7.45 6.229 11.041 14.424h-11.041Zm12.874 4.976c1.066 3.579 1.779 7.734 1.98 12.453h-14.854v-12.453h12.874Zm-18.986-18.521c.433-.358.802-.642 1.131-.886v14.428H693.51a39.686 39.686 0 0 1 4.341-7.554c2.043-2.775 4.08-4.735 5.582-5.988Zm1.131 18.521v12.453h-14.845c.202-4.742.932-8.874 2.005-12.453h12.84Zm-19.826 12.453h-12.424a34.723 34.723 0 0 1 3.286-12.453h10.931c-.981 3.669-1.616 7.826-1.793 12.453Zm4.969 4.982h14.857v12.451h-12.877c-1.066-3.577-1.778-7.731-1.98-12.451Zm14.857 17.434v14.419c-2.342-1.753-7.45-6.224-11.041-14.419h11.041Zm6.109 13.537c-.431.359-.802.64-1.128.887v-14.421h11.051a39.536 39.536 0 0 1-4.341 7.549c-2.04 2.77-4.08 4.735-5.582 5.985Zm-1.128-18.52v-12.451h14.842c-.202 4.739-.932 8.872-2.003 12.451h-12.839Zm19.826-12.451h12.418a34.708 34.708 0 0 1-3.287 12.451h-10.925c.979-3.667 1.614-7.821 1.794-12.451Zm0-4.982c-.18-4.63-.812-8.784-1.796-12.453h10.929a34.66 34.66 0 0 1 3.285 12.453h-12.418Zm6.259-17.432h-9.686c-2.195-5.679-5.074-9.992-7.761-13.088a34.924 34.924 0 0 1 17.447 13.088Zm-39.706-13.088c-2.685 3.098-5.567 7.412-7.759 13.088h-9.686a34.949 34.949 0 0 1 17.445-13.088Zm-17.438 52.936h9.682c2.189 5.669 5.066 9.981 7.751 13.076a34.92 34.92 0 0 1-17.433-13.076Zm39.702 13.076c2.685-3.095 5.561-7.407 7.753-13.076h9.681a34.915 34.915 0 0 1-17.434 13.076Z" style="fill:url(#a);fill-rule:nonzero"/><defs><linearGradient id="a" x1="0" y1="0" x2="1" y2="0" gradientUnits="userSpaceOnUse" gradientTransform="matrix(52.7712 0 0 152.605 665.669 182.027)"><stop offset="0" style="stop-color:#df8998;stop-opacity:1"/><stop offset=".9" style="stop-color:#e5b99d;stop-opacity:1"/><stop offset="1" style="stop-color:#e5b79b;stop-opacity:1"/></linearGradient></defs></svg>