<svg viewBox="0 0 1920 1080" xmlns="http://www.w3.org/2000/svg" xml:space="preserve" style="fill-rule:evenodd;clip-rule:evenodd;stroke-linejoin:round;stroke-miterlimit:2"><path style="fill:#fff" d="M734.671 122.768h187v264.389h-187z"/><path d="M914.67 129.866H741.805v250.413H914.67V129.866Zm-8.468 8.67H750.273v233.072h155.929V138.536Z" style="fill:#f60"/><path d="M756.905 144.743h68.884v96.906h-68.884zM832.486 144.743h42.307v5.344h-42.307zM832.486 151.673h16.272v5.344h-16.272zM832.486 160.382h32.777v3.019h-32.777zM832.486 167.996h51.061v3.019h-51.061zM832.486 172.601h37.474v3.019h-37.474zM832.486 178.985h59.77v3.019h-59.77zM832.486 183.59h62.232v3.019h-62.232zM832.486 188.195h42.671v3.019h-42.671zM832.486 192.8h65.515v3.019h-65.515zM832.486 199.183h65.515v3.019h-65.515zM832.486 203.789h56.324v3.019h-56.324zM832.486 214.777h48.203v3.019h-48.203zM832.486 208.394h18.209v3.019h-18.209zM832.486 219.382h65.515v3.019h-65.515zM756.905 250.168H898v3.019H756.905z"/><path style="fill:#f60" d="M756.905 357.777h143.049v5.103H756.905z"/><path d="M759.819 257.008c.837 0 1.489.168 1.955.506.465.337.698.815.698 1.435 0 .42-.109.789-.329 1.106-.219.317-.566.594-1.041.829.587.334 1.001.666 1.242.998.241.331.362.689.362 1.074 0 .706-.256 1.254-.767 1.641-.511.388-1.225.582-2.142.582-.935 0-1.651-.189-2.147-.568-.497-.379-.745-.923-.745-1.634 0-.46.111-.852.332-1.177.221-.324.592-.619 1.114-.883-.42-.283-.727-.586-.921-.911a2.04 2.04 0 0 1-.291-1.068c0-.609.237-1.083.712-1.422.475-.339 1.131-.508 1.968-.508Zm-.946 5.882c0 .225.08.405.239.541.16.136.381.204.664.204.637 0 .956-.234.956-.701a.827.827 0 0 0-.209-.525c-.139-.172-.389-.365-.747-.579-.323.171-.554.342-.694.514a.856.856 0 0 0-.209.546Zm.935-4.333a.7.7 0 0 0-.467.161.518.518 0 0 0-.191.416c0 .311.212.587.636.826.258-.149.434-.285.528-.408a.672.672 0 0 0 .141-.418.516.516 0 0 0-.19-.419.694.694 0 0 0-.457-.158ZM766.354 261.906c0-1.051.129-1.999.386-2.843.257-.845.636-1.566 1.136-2.164h1.772c-.456.634-.808 1.381-1.054 2.24a9.933 9.933 0 0 0-.37 2.756c0 .946.12 1.844.359 2.694a7.09 7.09 0 0 0 1.055 2.243h-1.762c-.496-.573-.874-1.276-1.133-2.11-.26-.833-.389-1.772-.389-2.816ZM773.231 257.008c.837 0 1.489.168 1.955.506.465.337.698.815.698 1.435 0 .42-.109.789-.329 1.106-.219.317-.566.594-1.041.829.587.334 1.001.666 1.242.998.241.331.362.689.362 1.074 0 .706-.256 1.254-.767 1.641-.511.388-1.225.582-2.142.582-.935 0-1.651-.189-2.147-.568-.497-.379-.745-.923-.745-1.634 0-.46.111-.852.332-1.177.221-.324.592-.619 1.114-.883-.42-.283-.727-.586-.921-.911a2.04 2.04 0 0 1-.291-1.068c0-.609.237-1.083.712-1.422.475-.339 1.131-.508 1.968-.508Zm-.946 5.882c0 .225.08.405.239.541.16.136.381.204.664.204.638 0 .956-.234.956-.701a.827.827 0 0 0-.209-.525c-.139-.172-.389-.365-.747-.579-.323.171-.554.342-.694.514a.856.856 0 0 0-.209.546Zm.935-4.333a.7.7 0 0 0-.467.161.518.518 0 0 0-.191.416c0 .311.212.587.637.826.257-.149.433-.285.527-.408a.672.672 0 0 0 .141-.418.516.516 0 0 0-.19-.419.694.694 0 0 0-.457-.158ZM782.604 261.107c0 1.406-.236 2.437-.707 3.091-.471.654-1.192.981-2.164.981-.949 0-1.665-.341-2.147-1.025-.482-.683-.723-1.699-.723-3.047 0-1.413.235-2.45.707-3.11.471-.659 1.192-.989 2.163-.989.946 0 1.661.343 2.145 1.03s.726 1.71.726 3.069Zm-3.605 0c0 .899.057 1.517.169 1.854.112.337.301.506.565.506.269 0 .458-.174.568-.522.111-.348.166-.961.166-1.838 0-.881-.056-1.498-.168-1.851-.113-.353-.301-.53-.566-.53-.264 0-.453.17-.565.511-.112.341-.169.964-.169 1.87ZM789.128 261.107c0 1.406-.236 2.437-.707 3.091-.471.654-1.192.981-2.164.981-.949 0-1.665-.341-2.147-1.025-.482-.683-.723-1.699-.723-3.047 0-1.413.235-2.45.706-3.11.472-.659 1.193-.989 2.164-.989.946 0 1.661.343 2.145 1.03s.726 1.71.726 3.069Zm-3.605 0c0 .899.056 1.517.169 1.854.112.337.301.506.565.506.268 0 .458-.174.568-.522.111-.348.166-.961.166-1.838 0-.881-.056-1.498-.168-1.851-.113-.353-.301-.53-.566-.53-.264 0-.453.17-.565.511-.113.341-.169.964-.169 1.87ZM793.118 261.906c0 1.026-.129 1.958-.389 2.797-.259.839-.638 1.549-1.138 2.129h-1.762c.457-.624.806-1.364 1.049-2.221a9.91 9.91 0 0 0 .365-2.716c0-.96-.12-1.869-.359-2.726a7.147 7.147 0 0 0-1.066-2.27h1.773c.503.602.884 1.33 1.141 2.186.258.855.386 1.796.386 2.821ZM797.544 265.07l2.729-6.159h-3.442v-1.778h5.736v1.267l-2.8 6.67h-2.223ZM809.064 261.107c0 1.406-.236 2.437-.707 3.091-.471.654-1.192.981-2.164.981-.949 0-1.665-.341-2.147-1.025-.482-.683-.723-1.699-.723-3.047 0-1.413.235-2.45.706-3.11.472-.659 1.193-.989 2.164-.989.946 0 1.661.343 2.145 1.03s.726 1.71.726 3.069Zm-3.605 0c0 .899.056 1.517.169 1.854.112.337.301.506.565.506.268 0 .458-.174.568-.522.111-.348.166-.961.166-1.838 0-.881-.056-1.498-.168-1.851-.113-.353-.301-.53-.566-.53-.264 0-.453.17-.565.511-.113.341-.169.964-.169 1.87ZM815.588 261.107c0 1.406-.236 2.437-.707 3.091-.471.654-1.193.981-2.164.981-.95 0-1.665-.341-2.147-1.025-.482-.683-.723-1.699-.723-3.047 0-1.413.235-2.45.706-3.11.471-.659 1.193-.989 2.164-.989.946 0 1.661.343 2.145 1.03s.726 1.71.726 3.069Zm-3.605 0c0 .899.056 1.517.169 1.854.112.337.301.506.565.506.268 0 .458-.174.568-.522.111-.348.166-.961.166-1.838 0-.881-.056-1.498-.169-1.851-.112-.353-.3-.53-.565-.53-.264 0-.453.17-.565.511-.113.341-.169.964-.169 1.87ZM816.213 261.238h3.072v1.696h-3.072zM823.128 259.862c.457 0 .869.106 1.237.318a2.2 2.2 0 0 1 .859.9c.205.388.307.835.307 1.343 0 .888-.267 1.569-.802 2.044-.534.475-1.344.712-2.427.712-.928 0-1.686-.143-2.273-.429v-1.762c.316.145.672.265 1.069.359.396.094.738.141 1.024.141.399 0 .705-.084.919-.252.214-.169.321-.418.321-.748 0-.304-.109-.542-.326-.712-.218-.171-.548-.256-.99-.256a3.55 3.55 0 0 0-1.092.191l-.789-.392.299-4.197h4.534v1.789h-2.707l-.098 1.049c.283-.054.484-.084.604-.09.119-.005.23-.008.331-.008ZM832.398 263.532h-.876v1.538h-2.12v-1.538h-3.17v-1.577l3.306-4.833h1.984v4.806h.876v1.604Zm-2.996-1.604v-.924a16.708 16.708 0 0 1 .049-1.169h-.06c-.123.279-.263.54-.419.783l-.88 1.31h1.31ZM832.8 261.238h3.072v1.696H832.8zM839.715 259.862c.457 0 .869.106 1.237.318a2.2 2.2 0 0 1 .859.9c.205.388.307.835.307 1.343 0 .888-.267 1.569-.802 2.044-.534.475-1.343.712-2.427.712-.928 0-1.686-.143-2.273-.429v-1.762c.316.145.672.265 1.069.359.396.094.738.141 1.024.141.399 0 .705-.084.919-.252.214-.169.321-.418.321-.748 0-.304-.109-.542-.326-.712-.218-.171-.548-.256-.99-.256a3.55 3.55 0 0 0-1.092.191l-.789-.392.299-4.197h4.534v1.789h-2.707l-.098 1.049c.283-.054.484-.084.604-.09.119-.005.23-.008.331-.008ZM848.729 265.07h-5.768v-1.413l1.941-1.963c.554-.58.917-.976 1.087-1.188.17-.212.289-.394.356-.546.067-.152.101-.312.101-.478a.624.624 0 0 0-.201-.49c-.135-.119-.323-.179-.566-.179-.25 0-.503.071-.758.215a5.383 5.383 0 0 0-.867.633l-1.18-1.381c.409-.366.754-.628 1.033-.785.279-.158.582-.279.91-.362a4.52 4.52 0 0 1 1.107-.125c.514 0 .974.091 1.378.272.404.181.718.439.94.774.223.336.335.712.335 1.129 0 .311-.039.599-.117.864a3.012 3.012 0 0 1-.362.78 5.32 5.32 0 0 1-.649.807c-.27.283-.846.82-1.726 1.61v.054h3.006v1.772ZM854.671 258.911v1.549l-.002.283c-.002.101-.027.747-.074 1.935l2.463-3.767h2.349v6.159h-1.892v-1.669c0-.583.025-1.274.076-2.071l-2.452 3.74h-2.36v-6.159h1.892ZM867.056 265.07h-2.126v-4.577h-1.25c-.12 1.323-.27 2.295-.452 2.917-.181.621-.431 1.071-.75 1.351-.319.279-.748.418-1.288.418-.377 0-.698-.054-.963-.163v-1.582c.12.065.28.098.479.098.163 0 .295-.084.397-.253.101-.168.191-.438.269-.807.078-.37.148-.845.212-1.425.063-.58.124-1.292.182-2.136h5.29v6.159ZM870.416 258.911v1.549l-.003.283c-.002.101-.026.747-.074 1.935l2.463-3.767h2.349v6.159h-1.892v-1.669c0-.583.025-1.274.076-2.071l-2.452 3.74h-2.359v-6.159h1.892ZM883.898 265.07h-2.18v-4.208c0-.511.011-.978.033-1.402a4.727 4.727 0 0 1-.5.511l-.903.745-1.114-1.37 2.729-2.224h1.935v7.948ZM890.422 265.07h-2.18v-4.208c0-.511.011-.978.033-1.402a4.727 4.727 0 0 1-.5.511l-.903.745-1.114-1.37 2.729-2.224h1.935v7.948ZM897.925 265.07h-5.768v-1.413l1.94-1.963c.555-.58.917-.976 1.088-1.188.17-.212.289-.394.356-.546.067-.152.1-.312.1-.478a.624.624 0 0 0-.201-.49c-.134-.119-.322-.179-.565-.179-.25 0-.503.071-.759.215a5.472 5.472 0 0 0-.867.633l-1.179-1.381c.409-.366.753-.628 1.032-.785a3.68 3.68 0 0 1 .911-.362 4.517 4.517 0 0 1 1.106-.125c.515 0 .975.091 1.379.272.404.181.717.439.94.774.223.336.335.712.335 1.129 0 .311-.039.599-.117.864a3.045 3.045 0 0 1-.362.78c-.163.256-.38.525-.65.807-.27.283-.845.82-1.726 1.61v.054h3.007v1.772Z" style="fill:#f60;fill-rule:nonzero"/><g><path d="M771.951 290.223h-4.836v-15.986h-4.897v15.986h-4.824v-20.519h14.557v20.519ZM792.402 279.935c0 3.453-.733 6.078-2.2 7.874-1.466 1.796-3.613 2.695-6.44 2.695-2.786 0-4.923-.903-6.409-2.709-1.487-1.806-2.23-4.435-2.23-7.888 0-3.415.739-6.023 2.217-7.824 1.479-1.801 3.628-2.702 6.447-2.702 2.827 0 4.969.894 6.428 2.681 1.458 1.787 2.187 4.411 2.187 7.873Zm-12.224 0c0 3.968 1.195 5.951 3.584 5.951 1.215 0 2.117-.482 2.704-1.445.587-.964.881-2.466.881-4.506 0-2.049-.298-3.562-.893-4.54-.596-.978-1.485-1.467-2.667-1.467-2.406 0-3.609 2.003-3.609 6.007ZM803.35 290.223l-3.633-14.779h-.11c.17 2.517.256 4.473.256 5.867v8.912h-4.253v-20.519h6.391l3.706 14.568h.097l3.634-14.568h6.403v20.519h-4.411v-8.996c0-.468.006-.988.019-1.558.012-.571.066-1.97.164-4.197h-.11l-3.584 14.751h-4.569ZM836.292 279.935c0 3.453-.734 6.078-2.2 7.874-1.466 1.796-3.613 2.695-6.44 2.695-2.786 0-4.923-.903-6.41-2.709-1.486-1.806-2.229-4.435-2.229-7.888 0-3.415.739-6.023 2.217-7.824 1.479-1.801 3.627-2.702 6.446-2.702 2.828 0 4.97.894 6.428 2.681 1.459 1.787 2.188 4.411 2.188 7.873Zm-12.224 0c0 3.968 1.194 5.951 3.584 5.951 1.215 0 2.116-.482 2.704-1.445.587-.964.881-2.466.881-4.506 0-2.049-.298-3.562-.893-4.54-.596-.978-1.485-1.467-2.668-1.467-2.405 0-3.608 2.003-3.608 6.007ZM851.347 269.704v4.477h-7.023v16.042H839.5v-20.519h11.847ZM853.886 269.704h4.278v8.814c0 .936-.065 2.807-.195 5.614h.097l7.085-14.428h5.929v20.519h-4.253v-8.589c0-1.301.073-3.247.219-5.839h-.097l-7.145 14.428h-5.918v-20.519ZM882.758 290.223h-4.8v-15.986h-4.338v-4.533h13.463v4.533h-4.325v15.986ZM900.17 290.223h-10.547v-20.519h10.547v4.449h-5.747v3.228h5.322v4.449h-5.322v3.874h5.747v4.519Z" style="fill-rule:nonzero"/></g><g><path d="M770.63 349.521h-4.397v-13.882h-4.453v13.882h-4.386v-17.819h13.236v17.819ZM789.224 340.587c0 2.999-.667 5.278-2 6.838-1.333 1.56-3.285 2.34-5.855 2.34-2.534 0-4.477-.784-5.828-2.352-1.352-1.568-2.028-3.852-2.028-6.85 0-2.966.672-5.231 2.017-6.795 1.344-1.564 3.297-2.346 5.861-2.346 2.57 0 4.518.776 5.844 2.328 1.326 1.552 1.989 3.831 1.989 6.837Zm-11.115 0c0 3.446 1.087 5.168 3.26 5.168 1.104 0 1.924-.418 2.458-1.255.534-.837.801-2.141.801-3.913 0-1.779-.271-3.093-.812-3.942-.542-.85-1.35-1.274-2.425-1.274-2.188 0-3.282 1.739-3.282 5.216ZM807.95 345.572v3.949h-17.92v-3.949h1.337c.965-1.803 1.76-3.89 2.386-6.258.626-2.369 1.031-4.906 1.216-7.612h10.771v13.87h2.21Zm-6.607 0v-9.933h-2.872a31.903 31.903 0 0 1-2.486 9.933h5.358ZM821.826 337.37c0 1.99-.532 3.528-1.596 4.613-1.064 1.085-2.576 1.627-4.535 1.627h-1.227v5.911h-4.364v-17.819h5.591c2.04 0 3.572.492 4.596 1.475 1.023.983 1.535 2.381 1.535 4.193Zm-7.358 2.315h.796c.655 0 1.176-.203 1.563-.609.387-.406.58-.967.58-1.682 0-1.202-.604-1.804-1.812-1.804h-1.127v4.095ZM839.514 340.587c0 2.999-.666 5.278-2 6.838-1.333 1.56-3.284 2.34-5.855 2.34-2.534 0-4.476-.784-5.828-2.352-1.351-1.568-2.027-3.852-2.027-6.85 0-2.966.672-5.231 2.016-6.795 1.344-1.564 3.298-2.346 5.861-2.346 2.571 0 4.519.776 5.845 2.328 1.325 1.552 1.988 3.831 1.988 6.837Zm-11.114 0c0 3.446 1.086 5.168 3.259 5.168 1.105 0 1.924-.418 2.458-1.255.534-.837.801-2.141.801-3.913 0-1.779-.27-3.093-.812-3.942-.541-.85-1.35-1.274-2.425-1.274-2.187 0-3.281 1.739-3.281 5.216ZM849.623 335.395c-1.038 0-1.849.469-2.43 1.408-.582.938-.873 2.232-.873 3.882 0 3.429 1.182 5.143 3.546 5.143.715 0 1.407-.109 2.077-.329.67-.219 1.344-.483 2.022-.792v4.071c-1.348.658-2.873.987-4.574.987-2.438 0-4.307-.78-5.607-2.34-1.3-1.56-1.95-3.815-1.95-6.764 0-1.845.315-3.466.945-4.864.63-1.397 1.536-2.472 2.718-3.223 1.182-.752 2.572-1.128 4.17-1.128 1.746 0 3.414.419 5.005 1.256l-1.337 3.79a14.097 14.097 0 0 0-1.79-.78 5.72 5.72 0 0 0-1.922-.317ZM864.24 349.521h-4.364v-13.882h-3.945v-3.937h12.242v3.937h-3.933v13.882ZM884.601 349.521h-4.938l-4.795-9.031v9.031h-4.386v-17.819h4.386v8.629l4.618-8.629h4.795l-4.983 8.508 5.303 9.311Z" style="fill-rule:nonzero"/><path d="m896.157 349.521-.795-3.339h-5.248l-.818 3.339h-4.794l5.27-17.892h5.822l5.336 17.892h-4.773Zm-1.701-7.288-.696-2.925c-.162-.65-.359-1.491-.591-2.523a45.36 45.36 0 0 1-.459-2.219 53.695 53.695 0 0 1-.392 2.048c-.195.951-.628 2.824-1.298 5.619h3.436Z" style="fill-rule:nonzero"/></g><g><path d="M781.531 323.955h-7.648v-9.043h-8.841v9.043h-7.648v-22.183h7.648v8.224h8.841v-8.224h7.648v22.183ZM804.896 323.955l-1.387-4.157h-9.149l-1.426 4.157h-8.36l9.188-22.274h10.152l9.304 22.274h-8.322Zm-2.966-9.073-1.214-3.642c-.282-.809-.626-1.856-1.03-3.141-.405-1.284-.671-2.205-.8-2.761-.115.516-.343 1.365-.683 2.549-.341 1.183-1.095 3.515-2.264 6.995h5.991ZM816.261 301.772h6.781v9.529c0 1.011-.103 3.035-.308 6.069h.154l11.23-15.598h9.4v22.183h-6.742v-9.286c0-1.406.116-3.51.347-6.312h-.154l-11.327 15.598h-9.381v-22.183Zm13.561-1.775c-3.069 0-5.364-.471-6.886-1.411-1.522-.941-2.373-2.398-2.552-4.37h6.279c.065.991.341 1.709.829 2.154.488.445 1.265.668 2.33.668 1.927 0 2.98-.941 3.16-2.822h6.375c-.526 3.854-3.704 5.781-9.535 5.781ZM862.03 323.955h-7.609v-17.282h-6.877v-4.901h21.343v4.901h-6.857v17.282ZM872.913 301.772h6.781v9.529c0 1.011-.103 3.035-.308 6.069h.154l11.23-15.598h9.4v22.183h-6.742v-9.286c0-1.406.116-3.51.347-6.312h-.154l-11.327 15.598h-9.381v-22.183Z" style="fill-rule:nonzero"/></g></svg>