<?xml version="1.0" encoding="UTF-8" standalone="no"?><!DOCTYPE svg PUBLIC "-//W3C//DTD SVG 1.1//EN" "http://www.w3.org/Graphics/SVG/1.1/DTD/svg11.dtd"><svg width="100%" height="100%" viewBox="0 0 1920 1080" version="1.1" xmlns="http://www.w3.org/2000/svg" xmlns:xlink="http://www.w3.org/1999/xlink" xml:space="preserve" xmlns:serif="http://www.serif.com/" style="fill-rule:evenodd;clip-rule:evenodd;stroke-miterlimit:1.5;"><g id="больницы"><circle cx="264.577" cy="405.501" r="15"/><clipPath id="_clip1"><circle cx="264.577" cy="405.501" r="15"/></clipPath><g clip-path="url(#_clip1)"><path d="M267.117,402.961L267.117,396.611L262.037,396.611L262.037,402.961L255.688,402.961L255.688,408.041L262.037,408.041L262.037,414.391L267.117,414.391L267.117,408.041L273.467,408.041L273.467,402.961L267.117,402.961Z" style="fill:url(#_Linear2);"/></g><circle cx="264.577" cy="405.501" r="15" style="fill:none;stroke:url(#_Linear3);stroke-width:2px;"/><circle cx="346.705" cy="592.061" r="15"/><clipPath id="_clip4"><circle cx="346.705" cy="592.061" r="15"/></clipPath><g clip-path="url(#_clip4)"><path d="M349.245,589.521L349.245,583.171L344.165,583.171L344.165,589.521L337.815,589.521L337.815,594.601L344.165,594.601L344.165,600.951L349.245,600.951L349.245,594.601L355.595,594.601L355.595,589.521L349.245,589.521Z" style="fill:url(#_Linear5);"/></g><circle cx="346.705" cy="592.061" r="15" style="fill:none;stroke:url(#_Linear6);stroke-width:2px;"/><circle cx="329.989" cy="502.445" r="15"/><clipPath id="_clip7"><circle cx="329.989" cy="502.445" r="15"/></clipPath><g clip-path="url(#_clip7)"><path d="M332.529,499.905L332.529,493.555L327.449,493.555L327.449,499.905L321.099,499.905L321.099,504.985L327.449,504.985L327.449,511.335L332.529,511.335L332.529,504.985L338.879,504.985L338.879,499.905L332.529,499.905Z" style="fill:url(#_Linear8);"/></g><circle cx="329.989" cy="502.445" r="15" style="fill:none;stroke:url(#_Linear9);stroke-width:2px;"/></g><defs><linearGradient id="_Linear2" x1="0" y1="0" x2="1" y2="0" gradientUnits="userSpaceOnUse" gradientTransform="matrix(11.7722,0,0,34.0431,255.345,409.831)"><stop offset="0" style="stop-color:rgb(223,137,152);stop-opacity:1"/><stop offset="0.9" style="stop-color:rgb(229,185,157);stop-opacity:1"/><stop offset="1" style="stop-color:rgb(229,183,155);stop-opacity:1"/></linearGradient><linearGradient id="_Linear3" x1="0" y1="0" x2="1" y2="0" gradientUnits="userSpaceOnUse" gradientTransform="matrix(30,0,0,30,249.577,405.501)"><stop offset="0" style="stop-color:rgb(223,137,152);stop-opacity:1"/><stop offset="0.9" style="stop-color:rgb(229,185,157);stop-opacity:1"/><stop offset="1" style="stop-color:rgb(229,183,155);stop-opacity:1"/></linearGradient><linearGradient id="_Linear5" x1="0" y1="0" x2="1" y2="0" gradientUnits="userSpaceOnUse" gradientTransform="matrix(11.7722,0,0,34.0431,337.473,596.391)"><stop offset="0" style="stop-color:rgb(223,137,152);stop-opacity:1"/><stop offset="0.9" style="stop-color:rgb(229,185,157);stop-opacity:1"/><stop offset="1" style="stop-color:rgb(229,183,155);stop-opacity:1"/></linearGradient><linearGradient id="_Linear6" x1="0" y1="0" x2="1" y2="0" gradientUnits="userSpaceOnUse" gradientTransform="matrix(30,0,0,30,331.705,592.061)"><stop offset="0" style="stop-color:rgb(223,137,152);stop-opacity:1"/><stop offset="0.9" style="stop-color:rgb(229,185,157);stop-opacity:1"/><stop offset="1" style="stop-color:rgb(229,183,155);stop-opacity:1"/></linearGradient><linearGradient id="_Linear8" x1="0" y1="0" x2="1" y2="0" gradientUnits="userSpaceOnUse" gradientTransform="matrix(11.7722,0,0,34.0431,320.757,506.774)"><stop offset="0" style="stop-color:rgb(223,137,152);stop-opacity:1"/><stop offset="0.9" style="stop-color:rgb(229,185,157);stop-opacity:1"/><stop offset="1" style="stop-color:rgb(229,183,155);stop-opacity:1"/></linearGradient><linearGradient id="_Linear9" x1="0" y1="0" x2="1" y2="0" gradientUnits="userSpaceOnUse" gradientTransform="matrix(30,0,0,30,314.989,502.445)"><stop offset="0" style="stop-color:rgb(223,137,152);stop-opacity:1"/><stop offset="0.9" style="stop-color:rgb(229,185,157);stop-opacity:1"/><stop offset="1" style="stop-color:rgb(229,183,155);stop-opacity:1"/></linearGradient></defs></svg>