<?xml version="1.0" encoding="UTF-8" standalone="no"?><!DOCTYPE svg PUBLIC "-//W3C//DTD SVG 1.1//EN" "http://www.w3.org/Graphics/SVG/1.1/DTD/svg11.dtd"><svg width="100%" height="100%" viewBox="0 0 1920 1080" version="1.1" xmlns="http://www.w3.org/2000/svg" xmlns:xlink="http://www.w3.org/1999/xlink" xml:space="preserve" xmlns:serif="http://www.serif.com/" style="fill-rule:evenodd;clip-rule:evenodd;stroke-miterlimit:1.5;"><g id="родственники"><circle cx="510.656" cy="773.778" r="15"/><clipPath id="_clip1"><circle cx="510.656" cy="773.778" r="15"/></clipPath><g clip-path="url(#_clip1)"><path d="M518.875,778.733C518.12,777.223 516.694,775.965 514.849,775.21C514.346,775.042 513.759,775.042 513.34,775.294C512.501,775.797 511.662,776.049 510.656,776.049C509.649,776.049 508.811,775.797 507.972,775.294C507.553,775.126 506.966,775.042 506.462,775.294C504.617,776.049 503.192,777.307 502.437,778.817C501.85,779.907 502.772,781.165 504.03,781.165L517.282,781.165C518.54,781.165 519.462,779.907 518.875,778.733ZM510.656,764.391C512.97,764.391 514.849,766.646 514.849,769.423C514.849,772.201 512.97,774.455 510.656,774.455C508.341,774.455 506.462,772.201 506.462,769.423C506.462,766.646 508.341,764.391 510.656,764.391Z" style="fill:url(#_Linear2);"/></g><circle cx="510.656" cy="773.778" r="15" style="fill:none;stroke:url(#_Linear3);stroke-width:2px;"/><circle cx="756.656" cy="404.778" r="15"/><clipPath id="_clip4"><circle cx="756.656" cy="404.778" r="15"/></clipPath><g clip-path="url(#_clip4)"><path d="M764.875,409.733C764.12,408.223 762.694,406.965 760.849,406.21C760.346,406.042 759.759,406.042 759.34,406.294C758.501,406.797 757.662,407.049 756.656,407.049C755.649,407.049 754.811,406.797 753.972,406.294C753.553,406.126 752.966,406.042 752.462,406.294C750.617,407.049 749.192,408.307 748.437,409.817C747.85,410.907 748.772,412.165 750.03,412.165L763.282,412.165C764.54,412.165 765.462,410.907 764.875,409.733ZM756.656,395.391C758.97,395.391 760.849,397.646 760.849,400.423C760.849,403.201 758.97,405.455 756.656,405.455C754.341,405.455 752.462,403.201 752.462,400.423C752.462,397.646 754.341,395.391 756.656,395.391Z" style="fill:url(#_Linear5);"/></g><circle cx="756.656" cy="404.778" r="15" style="fill:none;stroke:url(#_Linear6);stroke-width:2px;"/><circle cx="34.656" cy="240.778" r="15"/><clipPath id="_clip7"><circle cx="34.656" cy="240.778" r="15"/></clipPath><g clip-path="url(#_clip7)"><path d="M42.875,245.733C42.12,244.223 40.694,242.965 38.849,242.21C38.346,242.042 37.759,242.042 37.34,242.294C36.501,242.797 35.662,243.049 34.656,243.049C33.649,243.049 32.811,242.797 31.972,242.294C31.553,242.126 30.966,242.042 30.462,242.294C28.617,243.049 27.192,244.307 26.437,245.817C25.85,246.907 26.772,248.165 28.03,248.165L41.282,248.165C42.54,248.165 43.462,246.907 42.875,245.733ZM34.656,231.391C36.97,231.391 38.849,233.646 38.849,236.423C38.849,239.201 36.97,241.455 34.656,241.455C32.342,241.455 30.462,239.201 30.462,236.423C30.462,233.646 32.342,231.391 34.656,231.391Z" style="fill:url(#_Linear8);"/></g><circle cx="34.656" cy="240.778" r="15" style="fill:none;stroke:url(#_Linear9);stroke-width:2px;"/><circle cx="192.656" cy="716.778" r="15"/><clipPath id="_clip10"><circle cx="192.656" cy="716.778" r="15"/></clipPath><g clip-path="url(#_clip10)"><path d="M200.875,721.733C200.12,720.223 198.694,718.965 196.849,718.21C196.346,718.042 195.759,718.042 195.34,718.294C194.501,718.797 193.662,719.049 192.656,719.049C191.649,719.049 190.811,718.797 189.972,718.294C189.553,718.126 188.966,718.042 188.462,718.294C186.617,719.049 185.192,720.307 184.437,721.817C183.85,722.907 184.772,724.165 186.03,724.165L199.282,724.165C200.54,724.165 201.462,722.907 200.875,721.733ZM192.656,707.391C194.97,707.391 196.849,709.646 196.849,712.423C196.849,715.201 194.97,717.455 192.656,717.455C190.342,717.455 188.462,715.201 188.462,712.423C188.462,709.646 190.342,707.391 192.656,707.391Z" style="fill:url(#_Linear11);"/></g><circle cx="192.656" cy="716.778" r="15" style="fill:none;stroke:url(#_Linear12);stroke-width:2px;"/><circle cx="591.656" cy="939.778" r="15"/><clipPath id="_clip13"><circle cx="591.656" cy="939.778" r="15"/></clipPath><g clip-path="url(#_clip13)"><path d="M599.875,944.733C599.12,943.223 597.694,941.965 595.849,941.21C595.346,941.042 594.759,941.042 594.34,941.294C593.501,941.797 592.662,942.049 591.656,942.049C590.649,942.049 589.811,941.797 588.972,941.294C588.553,941.126 587.966,941.042 587.462,941.294C585.617,942.049 584.192,943.307 583.437,944.817C582.85,945.907 583.772,947.165 585.03,947.165L598.282,947.165C599.54,947.165 600.462,945.907 599.875,944.733ZM591.656,930.391C593.97,930.391 595.849,932.646 595.849,935.423C595.849,938.201 593.97,940.455 591.656,940.455C589.341,940.455 587.462,938.201 587.462,935.423C587.462,932.646 589.341,930.391 591.656,930.391Z" style="fill:url(#_Linear14);"/></g><circle cx="591.656" cy="939.778" r="15" style="fill:none;stroke:url(#_Linear15);stroke-width:2px;"/><circle cx="713.656" cy="689.778" r="15"/><clipPath id="_clip16"><circle cx="713.656" cy="689.778" r="15"/></clipPath><g clip-path="url(#_clip16)"><path d="M721.875,694.733C721.12,693.223 719.694,691.965 717.849,691.21C717.346,691.042 716.759,691.042 716.34,691.294C715.501,691.797 714.662,692.049 713.656,692.049C712.649,692.049 711.811,691.797 710.972,691.294C710.553,691.126 709.966,691.042 709.462,691.294C707.617,692.049 706.192,693.307 705.437,694.817C704.85,695.907 705.772,697.165 707.03,697.165L720.282,697.165C721.54,697.165 722.462,695.907 721.875,694.733ZM713.656,680.391C715.97,680.391 717.849,682.646 717.849,685.423C717.849,688.201 715.97,690.455 713.656,690.455C711.341,690.455 709.462,688.201 709.462,685.423C709.462,682.646 711.341,680.391 713.656,680.391Z" style="fill:url(#_Linear17);"/></g><circle cx="713.656" cy="689.778" r="15" style="fill:none;stroke:url(#_Linear18);stroke-width:2px;"/><circle cx="603.656" cy="349.778" r="15"/><clipPath id="_clip19"><circle cx="603.656" cy="349.778" r="15"/></clipPath><g clip-path="url(#_clip19)"><path d="M611.875,354.733C611.12,353.223 609.694,351.965 607.849,351.21C607.346,351.042 606.759,351.042 606.34,351.294C605.501,351.797 604.662,352.049 603.656,352.049C602.649,352.049 601.811,351.797 600.972,351.294C600.553,351.126 599.966,351.042 599.462,351.294C597.617,352.049 596.192,353.307 595.437,354.817C594.85,355.907 595.772,357.165 597.03,357.165L610.282,357.165C611.54,357.165 612.462,355.907 611.875,354.733ZM603.656,340.391C605.97,340.391 607.849,342.646 607.849,345.423C607.849,348.201 605.97,350.455 603.656,350.455C601.341,350.455 599.462,348.201 599.462,345.423C599.462,342.646 601.341,340.391 603.656,340.391Z" style="fill:url(#_Linear20);"/></g><circle cx="603.656" cy="349.778" r="15" style="fill:none;stroke:url(#_Linear21);stroke-width:2px;"/></g><defs><linearGradient id="_Linear2" x1="0" y1="0" x2="1" y2="0" gradientUnits="userSpaceOnUse" gradientTransform="matrix(11.1236,0,0,32.1168,501.932,776.863)"><stop offset="0" style="stop-color:rgb(223,137,152);stop-opacity:1"/><stop offset="0.9" style="stop-color:rgb(229,185,157);stop-opacity:1"/><stop offset="1" style="stop-color:rgb(229,183,155);stop-opacity:1"/></linearGradient><linearGradient id="_Linear3" x1="0" y1="0" x2="1" y2="0" gradientUnits="userSpaceOnUse" gradientTransform="matrix(30,0,0,30,495.656,773.778)"><stop offset="0" style="stop-color:rgb(223,137,152);stop-opacity:1"/><stop offset="0.9" style="stop-color:rgb(229,185,157);stop-opacity:1"/><stop offset="1" style="stop-color:rgb(229,183,155);stop-opacity:1"/></linearGradient><linearGradient id="_Linear5" x1="0" y1="0" x2="1" y2="0" gradientUnits="userSpaceOnUse" gradientTransform="matrix(11.1236,0,0,32.1168,747.932,407.863)"><stop offset="0" style="stop-color:rgb(223,137,152);stop-opacity:1"/><stop offset="0.9" style="stop-color:rgb(229,185,157);stop-opacity:1"/><stop offset="1" style="stop-color:rgb(229,183,155);stop-opacity:1"/></linearGradient><linearGradient id="_Linear6" x1="0" y1="0" x2="1" y2="0" gradientUnits="userSpaceOnUse" gradientTransform="matrix(30,0,0,30,741.656,404.778)"><stop offset="0" style="stop-color:rgb(223,137,152);stop-opacity:1"/><stop offset="0.9" style="stop-color:rgb(229,185,157);stop-opacity:1"/><stop offset="1" style="stop-color:rgb(229,183,155);stop-opacity:1"/></linearGradient><linearGradient id="_Linear8" x1="0" y1="0" x2="1" y2="0" gradientUnits="userSpaceOnUse" gradientTransform="matrix(11.1236,0,0,32.1168,25.9323,243.863)"><stop offset="0" style="stop-color:rgb(223,137,152);stop-opacity:1"/><stop offset="0.9" style="stop-color:rgb(229,185,157);stop-opacity:1"/><stop offset="1" style="stop-color:rgb(229,183,155);stop-opacity:1"/></linearGradient><linearGradient id="_Linear9" x1="0" y1="0" x2="1" y2="0" gradientUnits="userSpaceOnUse" gradientTransform="matrix(30,0,0,30,19.6559,240.778)"><stop offset="0" style="stop-color:rgb(223,137,152);stop-opacity:1"/><stop offset="0.9" style="stop-color:rgb(229,185,157);stop-opacity:1"/><stop offset="1" style="stop-color:rgb(229,183,155);stop-opacity:1"/></linearGradient><linearGradient id="_Linear11" x1="0" y1="0" x2="1" y2="0" gradientUnits="userSpaceOnUse" gradientTransform="matrix(11.1236,0,0,32.1168,183.932,719.863)"><stop offset="0" style="stop-color:rgb(223,137,152);stop-opacity:1"/><stop offset="0.9" style="stop-color:rgb(229,185,157);stop-opacity:1"/><stop offset="1" style="stop-color:rgb(229,183,155);stop-opacity:1"/></linearGradient><linearGradient id="_Linear12" x1="0" y1="0" x2="1" y2="0" gradientUnits="userSpaceOnUse" gradientTransform="matrix(30,0,0,30,177.656,716.778)"><stop offset="0" style="stop-color:rgb(223,137,152);stop-opacity:1"/><stop offset="0.9" style="stop-color:rgb(229,185,157);stop-opacity:1"/><stop offset="1" style="stop-color:rgb(229,183,155);stop-opacity:1"/></linearGradient><linearGradient id="_Linear14" x1="0" y1="0" x2="1" y2="0" gradientUnits="userSpaceOnUse" gradientTransform="matrix(11.1236,0,0,32.1168,582.932,942.863)"><stop offset="0" style="stop-color:rgb(223,137,152);stop-opacity:1"/><stop offset="0.9" style="stop-color:rgb(229,185,157);stop-opacity:1"/><stop offset="1" style="stop-color:rgb(229,183,155);stop-opacity:1"/></linearGradient><linearGradient id="_Linear15" x1="0" y1="0" x2="1" y2="0" gradientUnits="userSpaceOnUse" gradientTransform="matrix(30,0,0,30,576.656,939.778)"><stop offset="0" style="stop-color:rgb(223,137,152);stop-opacity:1"/><stop offset="0.9" style="stop-color:rgb(229,185,157);stop-opacity:1"/><stop offset="1" style="stop-color:rgb(229,183,155);stop-opacity:1"/></linearGradient><linearGradient id="_Linear17" x1="0" y1="0" x2="1" y2="0" gradientUnits="userSpaceOnUse" gradientTransform="matrix(11.1236,0,0,32.1168,704.932,692.863)"><stop offset="0" style="stop-color:rgb(223,137,152);stop-opacity:1"/><stop offset="0.9" style="stop-color:rgb(229,185,157);stop-opacity:1"/><stop offset="1" style="stop-color:rgb(229,183,155);stop-opacity:1"/></linearGradient><linearGradient id="_Linear18" x1="0" y1="0" x2="1" y2="0" gradientUnits="userSpaceOnUse" gradientTransform="matrix(30,0,0,30,698.656,689.778)"><stop offset="0" style="stop-color:rgb(223,137,152);stop-opacity:1"/><stop offset="0.9" style="stop-color:rgb(229,185,157);stop-opacity:1"/><stop offset="1" style="stop-color:rgb(229,183,155);stop-opacity:1"/></linearGradient><linearGradient id="_Linear20" x1="0" y1="0" x2="1" y2="0" gradientUnits="userSpaceOnUse" gradientTransform="matrix(11.1236,0,0,32.1168,594.932,352.863)"><stop offset="0" style="stop-color:rgb(223,137,152);stop-opacity:1"/><stop offset="0.9" style="stop-color:rgb(229,185,157);stop-opacity:1"/><stop offset="1" style="stop-color:rgb(229,183,155);stop-opacity:1"/></linearGradient><linearGradient id="_Linear21" x1="0" y1="0" x2="1" y2="0" gradientUnits="userSpaceOnUse" gradientTransform="matrix(30,0,0,30,588.656,349.778)"><stop offset="0" style="stop-color:rgb(223,137,152);stop-opacity:1"/><stop offset="0.9" style="stop-color:rgb(229,185,157);stop-opacity:1"/><stop offset="1" style="stop-color:rgb(229,183,155);stop-opacity:1"/></linearGradient></defs></svg>