<?xml version="1.0" encoding="UTF-8" standalone="no"?><!DOCTYPE svg PUBLIC "-//W3C//DTD SVG 1.1//EN" "http://www.w3.org/Graphics/SVG/1.1/DTD/svg11.dtd"><svg width="100%" height="100%" viewBox="0 0 1920 1080" version="1.1" xmlns="http://www.w3.org/2000/svg" xmlns:xlink="http://www.w3.org/1999/xlink" xml:space="preserve" xmlns:serif="http://www.serif.com/" style="fill-rule:evenodd;clip-rule:evenodd;stroke-miterlimit:1.5;"><rect id="Artboard2" x="0" y="0" width="1920" height="1080" style="fill:none;"/><path d="M302.698,511.003L302.698,500.503L295.298,500.503L295.298,511.003L302.698,511.003Z" style="fill:rgb(254,114,0);fill-opacity:0.5;stroke:rgb(254,114,0);stroke-width:2px;"/><path d="M310.343,528.441L310.343,517.941L302.943,517.941L302.943,528.441L310.343,528.441Z" style="fill:rgb(254,114,0);fill-opacity:0.5;stroke:rgb(254,114,0);stroke-width:2px;"/><path d="M321.252,505.591L321.252,495.091L313.852,495.091L313.852,505.591L321.252,505.591Z" style="fill:rgb(254,114,0);fill-opacity:0.5;stroke:rgb(254,114,0);stroke-width:2px;"/><path d="M331.99,515.728L331.99,505.228L324.59,505.228L324.59,515.728L331.99,515.728Z" style="fill:rgb(254,114,0);fill-opacity:0.5;stroke:rgb(254,114,0);stroke-width:2px;"/><path d="M328.64,533.251L328.64,522.751L321.24,522.751L321.24,533.251L328.64,533.251Z" style="fill:rgb(254,114,0);fill-opacity:0.5;stroke:rgb(254,114,0);stroke-width:2px;"/><path d="M312.405,540.896L312.405,530.396L305.005,530.396L305.005,540.896L312.405,540.896Z" style="fill:rgb(254,114,0);fill-opacity:0.5;stroke:rgb(254,114,0);stroke-width:2px;"/><path d="M319.706,520.624L319.706,510.124L312.306,510.124L312.306,520.624L319.706,520.624Z" style="fill:rgb(254,114,0);fill-opacity:0.5;stroke:rgb(254,114,0);stroke-width:2px;"/><path d="M278.013,499.953L278.013,489.453L270.613,489.453L270.613,499.953L278.013,499.953Z" style="fill:rgb(254,114,0);fill-opacity:0.5;stroke:rgb(254,114,0);stroke-width:2px;"/><path d="M344.071,492.476L344.071,481.976L336.671,481.976L336.671,492.476L344.071,492.476Z" style="fill:rgb(254,114,0);fill-opacity:0.5;stroke:rgb(254,114,0);stroke-width:2px;"/><path d="M351.108,543.67L351.108,533.17L343.708,533.17L343.708,543.67L351.108,543.67Z" style="fill:rgb(254,114,0);fill-opacity:0.5;stroke:rgb(254,114,0);stroke-width:2px;"/><path d="M313.549,561.155L313.549,550.655L306.149,550.655L306.149,561.155L313.549,561.155Z" style="fill:rgb(254,114,0);fill-opacity:0.5;stroke:rgb(254,114,0);stroke-width:2px;"/><path d="M225.13,545.349L225.13,534.849L217.73,534.849L217.73,545.349L225.13,545.349Z" style="fill:rgb(254,114,0);fill-opacity:0.5;stroke:rgb(254,114,0);stroke-width:2px;"/><path d="M222.281,580.677L222.281,570.177L214.881,570.177L214.881,580.677L222.281,580.677Z" style="fill:rgb(254,114,0);fill-opacity:0.5;stroke:rgb(254,114,0);stroke-width:2px;"/><path d="M199.489,628.825L199.489,618.325L192.089,618.325L192.089,628.825L199.489,628.825Z" style="fill:rgb(254,114,0);fill-opacity:0.5;stroke:rgb(254,114,0);stroke-width:2px;"/><path d="M205.662,708.122L205.662,697.622L198.262,697.622L198.262,708.122L205.662,708.122Z" style="fill:rgb(254,114,0);fill-opacity:0.5;stroke:rgb(254,114,0);stroke-width:2px;"/><path d="M453.999,787.894L453.999,777.394L446.599,777.394L446.599,787.894L453.999,787.894Z" style="fill:rgb(254,114,0);fill-opacity:0.5;stroke:rgb(254,114,0);stroke-width:2px;"/><path d="M140.948,591.735L140.948,581.235L133.548,581.235L133.548,591.735L140.948,591.735Z" style="fill:rgb(254,114,0);fill-opacity:0.5;stroke:rgb(254,114,0);stroke-width:2px;"/><path d="M307.593,673.626L307.593,663.126L300.193,663.126L300.193,673.626L307.593,673.626Z" style="fill:rgb(254,114,0);fill-opacity:0.5;stroke:rgb(254,114,0);stroke-width:2px;"/><path d="M398.646,646.711L398.646,636.211L391.246,636.211L391.246,646.711L398.646,646.711Z" style="fill:rgb(254,114,0);fill-opacity:0.5;stroke:rgb(254,114,0);stroke-width:2px;"/><path d="M473.665,603.761L473.665,593.261L466.265,593.261L466.265,603.761L473.665,603.761Z" style="fill:rgb(254,114,0);fill-opacity:0.5;stroke:rgb(254,114,0);stroke-width:2px;"/><path d="M499.192,621.995L499.192,611.495L491.792,611.495L491.792,621.995L499.192,621.995Z" style="fill:rgb(254,114,0);fill-opacity:0.5;stroke:rgb(254,114,0);stroke-width:2px;"/><path d="M731.366,713.77L731.366,703.27L723.966,703.27L723.966,713.77L731.366,713.77Z" style="fill:rgb(254,114,0);fill-opacity:0.5;stroke:rgb(254,114,0);stroke-width:2px;"/><path d="M689.429,680.95L689.429,670.45L682.029,670.45L682.029,680.95L689.429,680.95Z" style="fill:rgb(254,114,0);fill-opacity:0.5;stroke:rgb(254,114,0);stroke-width:2px;"/><path d="M434.776,658.604L434.776,648.104L427.376,648.104L427.376,658.604L434.776,658.604Z" style="fill:rgb(254,114,0);fill-opacity:0.5;stroke:rgb(254,114,0);stroke-width:2px;"/><path d="M439.513,685.776L439.513,675.276L432.113,675.276L432.113,685.776L439.513,685.776Z" style="fill:rgb(254,114,0);fill-opacity:0.5;stroke:rgb(254,114,0);stroke-width:2px;"/><path d="M476.528,425.663L476.528,415.163L469.128,415.163L469.128,425.663L476.528,425.663Z" style="fill:rgb(254,114,0);fill-opacity:0.5;stroke:rgb(254,114,0);stroke-width:2px;"/><path d="M429.57,452.005L429.57,441.505L422.17,441.505L422.17,452.005L429.57,452.005Z" style="fill:rgb(254,114,0);fill-opacity:0.5;stroke:rgb(254,114,0);stroke-width:2px;"/><path d="M358.484,429.122L358.484,418.622L351.084,418.622L351.084,429.122L358.484,429.122Z" style="fill:rgb(254,114,0);fill-opacity:0.5;stroke:rgb(254,114,0);stroke-width:2px;"/><path d="M388.185,426.444L388.185,415.944L380.785,415.944L380.785,426.444L388.185,426.444Z" style="fill:rgb(254,114,0);fill-opacity:0.5;stroke:rgb(254,114,0);stroke-width:2px;"/><path d="M385.994,397.961L385.994,387.461L378.594,387.461L378.594,397.961L385.994,397.961Z" style="fill:rgb(254,114,0);fill-opacity:0.5;stroke:rgb(254,114,0);stroke-width:2px;"/><path d="M337.061,378.242L337.061,367.742L329.661,367.742L329.661,378.242L337.061,378.242Z" style="fill:rgb(254,114,0);fill-opacity:0.5;stroke:rgb(254,114,0);stroke-width:2px;"/><path d="M399.87,351.219L399.87,340.719L392.47,340.719L392.47,351.219L399.87,351.219Z" style="fill:rgb(254,114,0);fill-opacity:0.5;stroke:rgb(254,114,0);stroke-width:2px;"/><path d="M160.99,339.047L160.99,328.547L153.59,328.547L153.59,339.047L160.99,339.047Z" style="fill:rgb(254,114,0);fill-opacity:0.5;stroke:rgb(254,114,0);stroke-width:2px;"/><path d="M106.215,434.903L106.215,424.403L98.815,424.403L98.815,434.903L106.215,434.903Z" style="fill:rgb(254,114,0);fill-opacity:0.5;stroke:rgb(254,114,0);stroke-width:2px;"/><path d="M277.387,394.583L277.387,384.083L269.987,384.083L269.987,394.583L277.387,394.583Z" style="fill:rgb(254,114,0);fill-opacity:0.5;stroke:rgb(254,114,0);stroke-width:2px;"/><path d="M311.487,613.611L311.487,603.111L304.087,603.111L304.087,613.611L311.487,613.611Z" style="fill:rgb(254,114,0);fill-opacity:0.5;stroke:rgb(254,114,0);stroke-width:2px;"/><path d="M368.524,594.827L368.524,584.327L361.124,584.327L361.124,594.827L368.524,594.827Z" style="fill:rgb(254,114,0);fill-opacity:0.5;stroke:rgb(254,114,0);stroke-width:2px;"/><path d="M390.515,471.591L390.515,461.091L383.115,461.091L383.115,471.591L390.515,471.591Z" style="fill:rgb(254,114,0);fill-opacity:0.5;stroke:rgb(254,114,0);stroke-width:2px;"/><path d="M615.385,356.903L615.385,346.403L607.985,346.403L607.985,356.903L615.385,356.903Z" style="fill:rgb(254,114,0);fill-opacity:0.5;stroke:rgb(254,114,0);stroke-width:2px;"/><path d="M565.892,377.315L565.892,366.815L558.492,366.815L558.492,377.315L565.892,377.315Z" style="fill:rgb(254,114,0);fill-opacity:0.5;stroke:rgb(254,114,0);stroke-width:2px;"/><path d="M477.965,731.755L477.965,721.255L470.565,721.255L470.565,731.755L477.965,731.755Z" style="fill:rgb(254,114,0);fill-opacity:0.5;stroke:rgb(254,114,0);stroke-width:2px;"/><path d="M518.925,768.346L518.925,757.846L511.525,757.846L511.525,768.346L518.925,768.346Z" style="fill:rgb(254,114,0);fill-opacity:0.5;stroke:rgb(254,114,0);stroke-width:2px;"/><path d="M233.843,778.723L233.843,768.223L226.443,768.223L226.443,778.723L233.843,778.723Z" style="fill:rgb(254,114,0);fill-opacity:0.5;stroke:rgb(254,114,0);stroke-width:2px;"/><path d="M46.519,609.421L46.519,598.921L39.119,598.921L39.119,609.421L46.519,609.421Z" style="fill:rgb(254,114,0);fill-opacity:0.5;stroke:rgb(254,114,0);stroke-width:2px;"/><path d="M118.609,324.34L118.609,313.84L111.209,313.84L111.209,324.34L118.609,324.34Z" style="fill:rgb(254,114,0);fill-opacity:0.5;stroke:rgb(254,114,0);stroke-width:2px;"/></svg>