<?xml version="1.0" encoding="UTF-8" standalone="no"?><!DOCTYPE svg PUBLIC "-//W3C//DTD SVG 1.1//EN" "http://www.w3.org/Graphics/SVG/1.1/DTD/svg11.dtd"><svg width="100%" height="100%" viewBox="0 0 1920 1080" version="1.1" xmlns="http://www.w3.org/2000/svg" xmlns:xlink="http://www.w3.org/1999/xlink" xml:space="preserve" xmlns:serif="http://www.serif.com/" style="fill-rule:evenodd;clip-rule:evenodd;stroke-miterlimit:1.5;"><circle id="транспорт" cx="297.653" cy="505.457" r="15"/><clipPath id="_clip1"><circle cx="297.653" cy="505.457" r="15"/></clipPath><g clip-path="url(#_clip1)"><path id="path1310" d="M291.501,515.464C291.29,515.373 291.054,515.144 290.93,514.911C290.841,514.745 290.829,514.634 290.813,513.889C290.801,513.328 290.778,513.042 290.742,513.019C290.713,513.001 290.401,512.985 290.049,512.984L289.409,512.984L289.423,508.63L289.436,504.277L289.84,501.258C290.062,499.598 290.276,498.134 290.315,498.004C290.419,497.657 290.716,497.23 291.022,496.986C291.336,496.736 292.151,496.329 292.685,496.156C293.178,495.997 294.072,495.784 294.845,495.643C296.94,495.261 298.651,495.281 300.864,495.712C303.395,496.206 304.658,496.889 305.013,497.956C305.077,498.149 305.239,499.251 305.503,501.281L305.897,504.318L305.897,512.984L305.282,512.984C304.943,512.985 304.642,513.001 304.613,513.019C304.577,513.042 304.553,513.324 304.541,513.866C304.519,514.808 304.473,514.97 304.153,515.252C303.537,515.794 302.457,515.539 302.235,514.798C302.205,514.698 302.182,514.3 302.182,513.876C302.182,513.259 302.169,513.117 302.109,513.057C302.044,512.991 301.578,512.984 297.677,512.984C293.777,512.984 293.311,512.991 293.246,513.057C293.186,513.117 293.173,513.262 293.173,513.904C293.172,514.621 293.164,514.696 293.063,514.911C292.932,515.188 292.804,515.314 292.523,515.441C292.267,515.557 291.744,515.569 291.501,515.464ZM292.388,510.273C292.827,510.116 293.133,509.68 293.133,509.21C293.133,508.556 292.645,508.061 292.001,508.061C291.681,508.061 291.488,508.134 291.251,508.341C290.981,508.579 290.877,508.817 290.877,509.199C290.877,509.56 290.973,509.799 291.207,510.021C291.506,510.304 292.003,510.411 292.388,510.273ZM303.857,510.209C304.696,509.783 304.696,508.615 303.857,508.189C303.262,507.887 302.541,508.148 302.285,508.758C302.181,509.006 302.197,509.454 302.319,509.705C302.593,510.271 303.287,510.498 303.857,510.209ZM303.949,505.135C304.086,505.109 304.244,505.044 304.301,504.99C304.417,504.882 304.505,504.54 304.475,504.323C304.464,504.246 304.31,503.146 304.134,501.878C303.804,499.503 303.768,499.339 303.537,499.129C303.298,498.913 303.411,498.917 297.71,498.915C293.852,498.914 292.273,498.928 292.123,498.966C291.849,499.035 291.658,499.231 291.573,499.532C291.458,499.935 290.844,504.47 290.879,504.657C290.926,504.906 291.121,505.098 291.366,505.137C291.699,505.191 303.665,505.189 303.949,505.135ZM301.184,497.893C301.398,497.843 301.517,497.718 301.558,497.498C301.595,497.302 301.477,497.041 301.318,496.969C301.235,496.931 300.207,496.917 297.64,496.917C294.336,496.918 294.071,496.924 293.979,496.999C293.761,497.176 293.718,497.446 293.868,497.693C293.923,497.782 294.012,497.854 294.089,497.871C294.16,497.887 294.239,497.907 294.264,497.915C294.378,497.953 301.016,497.931 301.184,497.893Z" style="fill:url(#_Linear2);fill-rule:nonzero;"/></g><circle cx="297.653" cy="505.457" r="15" style="fill:none;stroke:url(#_Linear3);stroke-width:2px;"/><defs><linearGradient id="_Linear2" x1="0" y1="0" x2="1" y2="0" gradientUnits="userSpaceOnUse" gradientTransform="matrix(10.917,0,0,38.62,289.091,510.369)"><stop offset="0" style="stop-color:rgb(223,137,152);stop-opacity:1"/><stop offset="0.9" style="stop-color:rgb(229,185,157);stop-opacity:1"/><stop offset="1" style="stop-color:rgb(229,183,155);stop-opacity:1"/></linearGradient><linearGradient id="_Linear3" x1="0" y1="0" x2="1" y2="0" gradientUnits="userSpaceOnUse" gradientTransform="matrix(30,0,0,30,282.653,505.457)"><stop offset="0" style="stop-color:rgb(223,137,152);stop-opacity:1"/><stop offset="0.9" style="stop-color:rgb(229,185,157);stop-opacity:1"/><stop offset="1" style="stop-color:rgb(229,183,155);stop-opacity:1"/></linearGradient></defs></svg>