<?xml version="1.0" encoding="UTF-8" standalone="no"?><!DOCTYPE svg PUBLIC "-//W3C//DTD SVG 1.1//EN" "http://www.w3.org/Graphics/SVG/1.1/DTD/svg11.dtd"><svg width="100%" height="100%" viewBox="0 0 100 100" version="1.1" xmlns="http://www.w3.org/2000/svg" xmlns:xlink="http://www.w3.org/1999/xlink" xml:space="preserve" xmlns:serif="http://www.serif.com/" style="fill-rule:evenodd;clip-rule:evenodd;stroke-linejoin:round;stroke-miterlimit:2;"><rect id="Картограф" x="-0" y="-0" width="100" height="100" style="fill:rgb(28,27,44);"/><clipPath id="_clip1"><rect x="-0" y="-0" width="100" height="100"/></clipPath><g clip-path="url(#_clip1)"><g id="_1-30-icon-map" serif:id="1-30-icon-map"><path id="_1-30-icon-map1" serif:id="1-30-icon-map" d="M50,-0C77.596,-0 100,22.404 100,50C100,77.596 77.596,100 50,100C22.404,100 -0,77.596 -0,50C-0,22.404 22.404,-0 50,-0ZM50,3.096C75.887,3.096 96.904,24.113 96.904,50C96.904,75.887 75.887,96.904 50,96.904C24.113,96.904 3.096,75.887 3.096,50C3.096,24.113 24.113,3.096 50,3.096ZM50,8.096C73.127,8.096 91.904,26.873 91.904,50C91.904,73.127 73.127,91.904 50,91.904C26.873,91.904 8.096,73.127 8.096,50C8.096,26.873 26.873,8.096 50,8.096ZM72.072,26.331C72.529,26.123 73.068,26.221 73.424,26.576C73.779,26.932 73.877,27.471 73.669,27.928C70.504,34.891 62.609,52.26 60.131,57.711C59.644,58.784 58.784,59.644 57.711,60.131C52.26,62.609 34.891,70.504 27.928,73.669C27.471,73.877 26.932,73.779 26.576,73.424C26.221,73.068 26.123,72.529 26.331,72.072C29.496,65.109 37.391,47.74 39.869,42.289C40.356,41.216 41.216,40.356 42.289,39.869C47.74,37.391 65.109,29.496 72.072,26.331ZM31.293,68.707L54.061,58.358L41.642,45.939L31.293,68.707Z" style="fill:white;"/></g></g></svg>