<?xml version="1.0" encoding="UTF-8" standalone="no"?><!DOCTYPE svg PUBLIC "-//W3C//DTD SVG 1.1//EN" "http://www.w3.org/Graphics/SVG/1.1/DTD/svg11.dtd"><svg width="100%" height="100%" viewBox="0 0 50 50" version="1.1" xmlns="http://www.w3.org/2000/svg" xmlns:xlink="http://www.w3.org/1999/xlink" xml:space="preserve" xmlns:serif="http://www.serif.com/" style="fill-rule:evenodd;clip-rule:evenodd;stroke-linejoin:round;stroke-miterlimit:2;"><path id="_1-30-icon-map" serif:id="1-30-icon-map" d="M25,0C38.798,0 50,11.202 50,25C50,38.798 38.798,50 25,50C11.202,50 -0,38.798 -0,25C-0,11.202 11.202,0 25,0ZM25,1.548C37.943,1.548 48.452,12.057 48.452,25C48.452,37.943 37.943,48.452 25,48.452C12.057,48.452 1.548,37.943 1.548,25C1.548,12.057 12.057,1.548 25,1.548ZM25,4.048C36.564,4.048 45.952,13.436 45.952,25C45.952,36.564 36.564,45.952 25,45.952C13.436,45.952 4.048,36.564 4.048,25C4.048,13.436 13.436,4.048 25,4.048ZM30.625,11.99L19.254,20.927C18.898,21.207 18.664,21.613 18.6,22.06L16.546,36.377C16.444,37.088 16.785,37.791 17.408,38.15C18.031,38.51 18.809,38.454 19.375,38.01L30.746,29.073C31.102,28.793 31.336,28.387 31.4,27.94L33.454,13.623C33.556,12.912 33.215,12.209 32.592,11.85C31.969,11.49 31.191,11.546 30.625,11.99L30.625,11.99ZM20.566,22.44L18.611,36.066L29.434,27.56C29.434,27.56 20.566,22.44 20.566,22.44Z" style="fill:white;"/></svg>