<?xml version="1.0" encoding="UTF-8" standalone="no"?><!DOCTYPE svg PUBLIC "-//W3C//DTD SVG 1.1//EN" "http://www.w3.org/Graphics/SVG/1.1/DTD/svg11.dtd"><svg width="100%" height="100%" viewBox="0 0 50 50" version="1.1" xmlns="http://www.w3.org/2000/svg" xmlns:xlink="http://www.w3.org/1999/xlink" xml:space="preserve" xmlns:serif="http://www.serif.com/" style="fill-rule:evenodd;clip-rule:evenodd;stroke-linejoin:round;stroke-miterlimit:2;"><path id="_1-30-icon-gear" serif:id="1-30-icon-gear" d="M25,0C38.798,0 50,11.202 50,25C50,38.798 38.798,50 25,50C11.202,50 -0,38.798 -0,25C-0,11.202 11.202,0 25,0ZM25,1.548C37.943,1.548 48.452,12.057 48.452,25C48.452,37.943 37.943,48.452 25,48.452C12.057,48.452 1.548,37.943 1.548,25C1.548,12.057 12.057,1.548 25,1.548ZM25,4.048C36.564,4.048 45.952,13.436 45.952,25C45.952,36.564 36.564,45.952 25,45.952C13.436,45.952 4.048,36.564 4.048,25C4.048,13.436 13.436,4.048 25,4.048ZM28.084,11.927C26.056,11.448 23.944,11.448 21.916,11.927L21.845,15.158C21.303,15.331 20.777,15.549 20.272,15.809L17.937,13.575C16.164,14.671 14.671,16.164 13.575,17.937L15.809,20.272C15.549,20.777 15.331,21.303 15.158,21.845L11.927,21.916C11.448,23.944 11.448,26.056 11.927,28.084L15.158,28.155C15.331,28.697 15.549,29.223 15.809,29.728L13.575,32.063C14.671,33.836 16.164,35.329 17.937,36.425L20.272,34.191C20.777,34.451 21.303,34.669 21.845,34.842L21.916,38.073C23.944,38.552 26.056,38.552 28.084,38.073L28.155,34.842C28.697,34.669 29.223,34.451 29.728,34.191L32.063,36.425C33.836,35.329 35.329,33.836 36.425,32.063L34.191,29.728C34.451,29.223 34.669,28.697 34.842,28.155L38.073,28.084C38.552,26.056 38.552,23.944 38.073,21.916L34.842,21.845C34.669,21.303 34.451,20.777 34.191,20.272L36.425,17.937C35.329,16.164 33.836,14.671 32.063,13.575L29.728,15.809C29.223,15.549 28.697,15.331 28.155,15.158L28.084,11.927ZM25,19.757C27.893,19.757 30.243,22.107 30.243,25C30.243,27.893 27.893,30.243 25,30.243C22.107,30.243 19.757,27.893 19.757,25C19.757,22.107 22.107,19.757 25,19.757Z" style="fill:white;"/></svg>