<?xml version="1.0" encoding="UTF-8" standalone="no"?><!DOCTYPE svg PUBLIC "-//W3C//DTD SVG 1.1//EN" "http://www.w3.org/Graphics/SVG/1.1/DTD/svg11.dtd"><svg width="100%" height="100%" viewBox="0 0 50 50" version="1.1" xmlns="http://www.w3.org/2000/svg" xmlns:xlink="http://www.w3.org/1999/xlink" xml:space="preserve" xmlns:serif="http://www.serif.com/" style="fill-rule:evenodd;clip-rule:evenodd;stroke-linejoin:round;stroke-miterlimit:2;"><path id="_1-30-icon-foot" serif:id="1-30-icon-foot" d="M25,0C38.798,0 50,11.202 50,25C50,38.798 38.798,50 25,50C11.202,50 0,38.798 0,25C0,11.202 11.202,0 25,0ZM25,1.548C37.943,1.548 48.452,12.057 48.452,25C48.452,37.943 37.943,48.452 25,48.452C12.057,48.452 1.548,37.943 1.548,25C1.548,12.057 12.057,1.548 25,1.548ZM25,4.048C36.564,4.048 45.952,13.436 45.952,25C45.952,36.564 36.564,45.952 25,45.952C13.436,45.952 4.048,36.564 4.048,25C4.048,13.436 13.436,4.048 25,4.048ZM17.198,33.455C17.174,33.296 17.277,33.146 17.434,33.112C18.352,32.915 21.274,32.289 22.169,32.097C22.321,32.065 22.472,32.151 22.522,32.298C22.744,32.96 23.312,34.727 23.312,35.559C23.312,36.595 23.396,37.593 21.804,38.198C20.213,38.802 18.912,38.217 18.16,36.69C17.58,35.512 17.297,34.058 17.198,33.455ZM32.802,28.186C32.826,28.027 32.723,27.877 32.566,27.843C31.648,27.646 28.726,27.02 27.831,26.828C27.679,26.796 27.528,26.882 27.478,27.029C27.256,27.691 26.688,29.458 26.688,30.29C26.688,31.326 26.604,32.324 28.196,32.929C29.787,33.533 31.088,32.948 31.84,31.421C32.42,30.243 32.703,28.789 32.802,28.186ZM21.888,30.216C22.048,30.183 22.153,30.031 22.127,29.87C22.044,29.299 21.974,27.947 22.809,26.512C23.912,24.617 23.437,21.061 22.809,19.475C22.182,17.889 20.818,16.837 19.165,16.837C17.513,16.837 16.477,17.956 15.898,19.601C15.32,21.245 15.203,23.846 15.396,25.507C15.589,27.167 16.112,29.375 16.275,29.905C16.38,30.242 16.504,30.712 16.581,31.007C16.622,31.164 16.778,31.261 16.936,31.229C17.883,31.035 20.928,30.412 21.888,30.216ZM28.112,24.947C27.952,24.914 27.847,24.762 27.873,24.601C27.956,24.03 28.026,22.678 27.191,21.243C26.088,19.348 26.563,15.793 27.191,14.206C27.818,12.62 29.182,11.568 30.835,11.568C32.487,11.568 33.523,12.688 34.102,14.332C34.68,15.976 34.797,18.577 34.604,20.238C34.411,21.898 33.888,24.106 33.725,24.636C33.62,24.974 33.496,25.443 33.419,25.739C33.378,25.895 33.222,25.992 33.064,25.96C32.117,25.766 29.072,25.143 28.112,24.947Z" style="fill:white;"/></svg>