<svg viewBox="0 0 50 50" xmlns="http://www.w3.org/2000/svg" xml:space="preserve" style="fill-rule:evenodd;clip-rule:evenodd;stroke-linejoin:round;stroke-miterlimit:2"><path d="M25 0c13.798 0 25 11.202 25 25S38.798 50 25 50 0 38.798 0 25 11.202 0 25 0Zm0 1.548c12.943 0 23.452 10.509 23.452 23.452 0 12.943-10.509 23.452-23.452 23.452C12.057 48.452 1.548 37.943 1.548 25 1.548 12.057 12.057 1.548 25 1.548Zm0 2.5c11.564 0 20.952 9.388 20.952 20.952 0 11.564-9.388 20.952-20.952 20.952-11.564 0-20.952-9.388-20.952-20.952C4.048 13.436 13.436 4.048 25 4.048Zm-8.763 7.477c-1.903 0-3.806 2.087-4.113 2.517l-.123.123-.061.184c-2.64 6.077 6.262 15.225 7.367 16.33.859.859 8.103 7.796 13.935 7.796.921 0 1.719-.184 2.456-.491l.184-.062.123-.122c.552-.43 3.315-2.886 2.333-5.096-.369-.859-3.377-4.051-7.183-4.665l-.246-.062-.245.062c-.184.061-1.473.307-3.315 1.535-.614-.307-1.842-1.167-3.868-3.131-1.964-1.965-2.824-3.193-3.131-3.806 1.167-1.842 1.474-3.131 1.535-3.254l.062-.246-.062-.245c-.614-3.806-3.867-6.753-4.727-7.183-.245-.123-.552-.184-.921-.184Z" style="fill:#fff"/></svg>