<?xml version="1.0" encoding="UTF-8" standalone="no"?><!DOCTYPE svg PUBLIC "-//W3C//DTD SVG 1.1//EN" "http://www.w3.org/Graphics/SVG/1.1/DTD/svg11.dtd"><svg width="100%" height="100%" viewBox="0 0 100 100" version="1.1" xmlns="http://www.w3.org/2000/svg" xmlns:xlink="http://www.w3.org/1999/xlink" xml:space="preserve" xmlns:serif="http://www.serif.com/" style="fill-rule:evenodd;clip-rule:evenodd;stroke-linejoin:round;stroke-miterlimit:2;"><rect id="Инфорг" x="-0" y="0" width="100" height="100" style="fill:rgb(28,27,44);"/><clipPath id="_clip1"><rect x="-0" y="0" width="100" height="100"/></clipPath><g clip-path="url(#_clip1)"><g id="_1-30-icon-phone" serif:id="1-30-icon-phone"><path id="_1-30-icon-phone1" serif:id="1-30-icon-phone" d="M50,-0C77.596,-0 100,22.404 100,50C100,77.596 77.596,100 50,100C22.404,100 -0,77.596 -0,50C-0,22.404 22.404,-0 50,-0ZM50,3.096C75.887,3.096 96.904,24.113 96.904,50C96.904,75.887 75.887,96.904 50,96.904C24.113,96.904 3.096,75.887 3.096,50C3.096,24.113 24.113,3.096 50,3.096ZM50,8.096C73.127,8.096 91.904,26.873 91.904,50C91.904,73.127 73.127,91.904 50,91.904C26.873,91.904 8.096,73.127 8.096,50C8.096,26.873 26.873,8.096 50,8.096ZM32.475,23.05C28.668,23.05 24.862,27.224 24.248,28.084L24.003,28.329L23.88,28.698C18.601,40.853 36.404,59.147 38.614,61.357C40.332,63.076 54.82,76.95 66.484,76.95C68.326,76.95 69.922,76.582 71.396,75.968L71.764,75.845L72.009,75.599C73.115,74.74 78.64,69.829 76.675,65.409C75.938,63.69 69.922,57.305 62.31,56.078L61.819,55.955L61.328,56.078C60.959,56.2 58.381,56.691 54.698,59.147C53.47,58.533 51.014,56.814 46.963,52.885C43.034,48.956 41.315,46.501 40.701,45.273C43.034,41.59 43.648,39.011 43.77,38.766L43.893,38.275L43.77,37.783C42.543,30.171 36.035,24.278 34.316,23.418C33.825,23.173 33.211,23.05 32.475,23.05Z" style="fill:white;"/></g></g></svg>