<?xml version="1.0" encoding="UTF-8" standalone="no"?><!DOCTYPE svg PUBLIC "-//W3C//DTD SVG 1.1//EN" "http://www.w3.org/Graphics/SVG/1.1/DTD/svg11.dtd"><svg width="100%" height="100%" viewBox="0 0 100 100" version="1.1" xmlns="http://www.w3.org/2000/svg" xmlns:xlink="http://www.w3.org/1999/xlink" xml:space="preserve" xmlns:serif="http://www.serif.com/" style="fill-rule:evenodd;clip-rule:evenodd;stroke-linejoin:round;stroke-miterlimit:2;"><rect id="Пеший-поисковик" serif:id="Пеший поисковик" x="0" y="0" width="100" height="100" style="fill:rgb(28,27,44);"/><clipPath id="_clip1"><rect x="0" y="0" width="100" height="100"/></clipPath><g clip-path="url(#_clip1)"><g id="_1-30-icon-foot" serif:id="1-30-icon-foot"><path id="_1-30-icon-foot1" serif:id="1-30-icon-foot" d="M50,-0C77.596,-0 100,22.404 100,50C100,77.596 77.596,100 50,100C22.404,100 -0,77.596 -0,50C-0,22.404 22.404,-0 50,-0ZM50,3.096C75.887,3.096 96.904,24.113 96.904,50C96.904,75.887 75.887,96.904 50,96.904C24.113,96.904 3.096,75.887 3.096,50C3.096,24.113 24.113,3.096 50,3.096ZM50,8.096C73.127,8.096 91.904,26.873 91.904,50C91.904,73.127 73.127,91.904 50,91.904C26.873,91.904 8.096,73.127 8.096,50C8.096,26.873 26.873,8.096 50,8.096ZM34.395,66.909C34.347,66.592 34.554,66.292 34.868,66.225C36.705,65.83 42.549,64.578 44.339,64.194C44.642,64.129 44.945,64.302 45.043,64.596C45.488,65.92 46.624,69.453 46.624,71.118C46.624,73.189 46.791,75.186 43.608,76.395C40.426,77.605 37.824,76.434 36.321,73.38C35.161,71.024 34.594,68.116 34.395,66.909ZM65.605,56.371C65.653,56.054 65.446,55.754 65.132,55.687C63.295,55.292 57.451,54.04 55.661,53.656C55.358,53.591 55.055,53.764 54.957,54.058C54.512,55.382 53.376,58.916 53.376,60.58C53.376,62.652 53.209,64.648 56.392,65.858C59.574,67.067 62.176,65.896 63.679,62.842C64.839,60.486 65.406,57.578 65.605,56.371ZM43.776,60.432C44.095,60.366 44.306,60.061 44.254,59.74C44.088,58.597 43.949,55.895 45.619,53.024C47.824,49.233 46.874,42.123 45.619,38.951C44.364,35.778 41.636,33.673 38.331,33.673C35.026,33.673 32.954,35.913 31.797,39.202C30.64,42.491 30.406,47.692 30.792,51.013C31.177,54.335 32.224,58.75 32.551,59.809C32.76,60.485 33.009,61.424 33.162,62.015C33.243,62.328 33.556,62.522 33.872,62.457C35.766,62.07 41.855,60.825 43.776,60.432ZM56.224,49.894C55.905,49.828 55.694,49.523 55.746,49.202C55.912,48.059 56.051,45.357 54.381,42.486C52.176,38.695 53.126,31.585 54.381,28.413C55.636,25.24 58.364,23.135 61.669,23.135C64.974,23.135 67.046,25.375 68.203,28.664C69.36,31.953 69.594,37.154 69.208,40.475C68.823,43.797 67.776,48.212 67.449,49.271C67.24,49.947 66.991,50.886 66.838,51.477C66.757,51.79 66.444,51.984 66.128,51.92C64.234,51.532 58.145,50.287 56.224,49.894Z" style="fill:white;"/></g></g></svg>