<svg xmlns="http://www.w3.org/2000/svg" fill-rule="evenodd" clip-rule="evenodd" viewBox="0 0 702 102"><defs/><path fill="none" stroke="url(#_Linear1)" stroke-dasharray="2 4 0 0" stroke-width="2" d="M101 11c0-5.523-4.477-10-10-10H11C5.477 1 1 5.477 1 11v80c0 5.523 4.477 10 10 10h80c5.523 0 10-4.477 10-10V11z"/><path fill="none" stroke="url(#_Linear2)" stroke-dasharray="2 4 0 0" stroke-width="2" d="M301 11c0-5.523-4.477-10-10-10h-80c-5.523 0-10 4.477-10 10v80c0 5.523 4.477 10 10 10h80c5.523 0 10-4.477 10-10V11z"/><path fill="none" stroke="url(#_Linear3)" stroke-dasharray="2 4 0 0" stroke-width="2" d="M501 11c0-5.523-4.477-10-10-10h-80c-5.523 0-10 4.477-10 10v80c0 5.523 4.477 10 10 10h80c5.523 0 10-4.477 10-10V11z"/><path fill="none" stroke="url(#_Linear4)" stroke-dasharray="2 4 0 0" stroke-width="2" d="M701 11c0-5.523-4.477-10-10-10h-80c-5.523 0-10 4.477-10 10v80c0 5.523 4.477 10 10 10h80c5.523 0 10-4.477 10-10V11z"/><path fill="url(#_Linear5)" fill-rule="nonzero" d="M136 53.22h30v1.53h-30z"/><path fill="url(#_Linear6)" fill-rule="nonzero" d="M336 53.22h30v1.53h-30z"/><path fill="url(#_Linear7)" fill-rule="nonzero" d="M536 53.22h30v1.53h-30z"/><defs><linearGradient id="_Linear1" x1="0" x2="1" y1="0" y2="0" gradientTransform="matrix(0 120 -60 0 31.278 -9)" gradientUnits="userSpaceOnUse"><stop offset="0" stop-color="#df8998" stop-opacity=".5"/><stop offset=".9" stop-color="#e5b99d" stop-opacity=".5"/><stop offset="1" stop-color="#e5b79b" stop-opacity=".5"/></linearGradient><linearGradient id="_Linear2" x1="0" x2="1" y1="0" y2="0" gradientTransform="matrix(0 120 -60 0 231.278 -9)" gradientUnits="userSpaceOnUse"><stop offset="0" stop-color="#df8998" stop-opacity=".5"/><stop offset=".9" stop-color="#e5b99d" stop-opacity=".5"/><stop offset="1" stop-color="#e5b79b" stop-opacity=".5"/></linearGradient><linearGradient id="_Linear3" x1="0" x2="1" y1="0" y2="0" gradientTransform="matrix(0 120 -60 0 431.278 -9)" gradientUnits="userSpaceOnUse"><stop offset="0" stop-color="#df8998" stop-opacity=".5"/><stop offset=".9" stop-color="#e5b99d" stop-opacity=".5"/><stop offset="1" stop-color="#e5b79b" stop-opacity=".5"/></linearGradient><linearGradient id="_Linear4" x1="0" x2="1" y1="0" y2="0" gradientTransform="matrix(0 120 -60 0 631.278 -9)" gradientUnits="userSpaceOnUse"><stop offset="0" stop-color="#df8998" stop-opacity=".5"/><stop offset=".9" stop-color="#e5b99d" stop-opacity=".5"/><stop offset="1" stop-color="#e5b79b" stop-opacity=".5"/></linearGradient><linearGradient id="_Linear5" x1="0" x2="1" y1="0" y2="0" gradientTransform="matrix(0 100 -100 0 147.531 1)" gradientUnits="userSpaceOnUse"><stop offset="0" stop-color="#df8998"/><stop offset=".9" stop-color="#e5b99d"/><stop offset="1" stop-color="#e5b79b"/></linearGradient><linearGradient id="_Linear6" x1="0" x2="1" y1="0" y2="0" gradientTransform="matrix(0 100 -100 0 347.531 1)" gradientUnits="userSpaceOnUse"><stop offset="0" stop-color="#df8998"/><stop offset=".9" stop-color="#e5b99d"/><stop offset="1" stop-color="#e5b79b"/></linearGradient><linearGradient id="_Linear7" x1="0" x2="1" y1="0" y2="0" gradientTransform="matrix(0 100 -100 0 547.531 1)" gradientUnits="userSpaceOnUse"><stop offset="0" stop-color="#df8998"/><stop offset=".9" stop-color="#e5b99d"/><stop offset="1" stop-color="#e5b79b"/></linearGradient></defs></svg>