<svg xmlns="http://www.w3.org/2000/svg" fill-rule="evenodd" clip-rule="evenodd" viewBox="0 0 1002 102"><defs/><path fill="none" stroke="url(#_Linear1)" stroke-dasharray="2 4 0 0" stroke-width="2" d="M501 11a10.001 10.001 0 00-10-10H311a10.001 10.001 0 00-10 10v80a10.001 10.001 0 0010 10h180a10.001 10.001 0 0010-10V11z"/><path fill="none" stroke="url(#_Linear2)" stroke-dasharray="2 4 0 0" stroke-width="2" d="M401 11v80"/><path fill="none" stroke="url(#_Linear3)" stroke-dasharray="2 4 0 0" stroke-width="2" d="M201 11a10.001 10.001 0 00-10-10H11A10.001 10.001 0 001 11v80a10.001 10.001 0 0010 10h180a10.001 10.001 0 0010-10V11z"/><path fill="none" stroke="url(#_Linear4)" stroke-dasharray="2 4 0 0" stroke-width="2" d="M101 11v80"/><path fill="none" stroke="url(#_Linear5)" stroke-dasharray="2 4 0 0" stroke-width="2" d="M1001 11a10.001 10.001 0 00-10-10H611a10.001 10.001 0 00-10 10v80a10.001 10.001 0 0010 10h380a10.001 10.001 0 0010-10V11z"/><path fill="none" stroke="url(#_Linear6)" stroke-dasharray="2 4 0 0" stroke-width="2" d="M801 11v80"/><path fill="none" stroke="url(#_Linear7)" stroke-dasharray="2 4 0 0" stroke-width="2" d="M701 11v80"/><path fill="none" stroke="url(#_Linear8)" stroke-dasharray="2 4 0 0" stroke-width="2" d="M901 11v80"/><path fill="url(#_Linear9)" fill-rule="nonzero" d="M536 53.22h30v1.53h-30z"/><path fill="url(#_Linear10)" fill-rule="nonzero" d="M236 53.22h30v1.53h-30z"/><defs><linearGradient id="_Linear1" x1="0" x2="1" y1="0" y2="0" gradientTransform="matrix(0 120 -120 0 361.555 -9)" gradientUnits="userSpaceOnUse"><stop offset="0" stop-color="#df8998" stop-opacity=".5"/><stop offset=".9" stop-color="#e5b99d" stop-opacity=".5"/><stop offset="1" stop-color="#e5b79b" stop-opacity=".5"/></linearGradient><linearGradient id="_Linear2" x1="0" x2="1" y1="0" y2="0" gradientTransform="matrix(0 14.4 -9.6 0 305.844 9.8)" gradientUnits="userSpaceOnUse"><stop offset="0" stop-color="#df8998" stop-opacity=".5"/><stop offset=".9" stop-color="#e5b99d" stop-opacity=".5"/><stop offset="1" stop-color="#e5b79b" stop-opacity=".5"/></linearGradient><linearGradient id="_Linear3" x1="0" x2="1" y1="0" y2="0" gradientTransform="matrix(0 120 -120 0 61.556 -9)" gradientUnits="userSpaceOnUse"><stop offset="0" stop-color="#df8998" stop-opacity=".5"/><stop offset=".9" stop-color="#e5b99d" stop-opacity=".5"/><stop offset="1" stop-color="#e5b79b" stop-opacity=".5"/></linearGradient><linearGradient id="_Linear4" x1="0" x2="1" y1="0" y2="0" gradientTransform="matrix(0 14.4 -9.6 0 5.844 9.8)" gradientUnits="userSpaceOnUse"><stop offset="0" stop-color="#df8998" stop-opacity=".5"/><stop offset=".9" stop-color="#e5b99d" stop-opacity=".5"/><stop offset="1" stop-color="#e5b79b" stop-opacity=".5"/></linearGradient><linearGradient id="_Linear5" x1="0" x2="1" y1="0" y2="0" gradientTransform="matrix(0 120 -240 0 722.111 -9)" gradientUnits="userSpaceOnUse"><stop offset="0" stop-color="#df8998" stop-opacity=".5"/><stop offset=".9" stop-color="#e5b99d" stop-opacity=".5"/><stop offset="1" stop-color="#e5b79b" stop-opacity=".5"/></linearGradient><linearGradient id="_Linear6" x1="0" x2="1" y1="0" y2="0" gradientTransform="matrix(0 14.4 -19.2 0 610.689 9.8)" gradientUnits="userSpaceOnUse"><stop offset="0" stop-color="#df8998" stop-opacity=".5"/><stop offset=".9" stop-color="#e5b99d" stop-opacity=".5"/><stop offset="1" stop-color="#e5b79b" stop-opacity=".5"/></linearGradient><linearGradient id="_Linear7" x1="0" x2="1" y1="0" y2="0" gradientTransform="matrix(0 14.4 -19.2 0 510.689 9.8)" gradientUnits="userSpaceOnUse"><stop offset="0" stop-color="#df8998" stop-opacity=".5"/><stop offset=".9" stop-color="#e5b99d" stop-opacity=".5"/><stop offset="1" stop-color="#e5b79b" stop-opacity=".5"/></linearGradient><linearGradient id="_Linear8" x1="0" x2="1" y1="0" y2="0" gradientTransform="matrix(0 14.4 -19.2 0 710.689 9.8)" gradientUnits="userSpaceOnUse"><stop offset="0" stop-color="#df8998" stop-opacity=".5"/><stop offset=".9" stop-color="#e5b99d" stop-opacity=".5"/><stop offset="1" stop-color="#e5b79b" stop-opacity=".5"/></linearGradient><linearGradient id="_Linear9" x1="0" x2="1" y1="0" y2="0" gradientTransform="matrix(0 100 -100 0 547.531 1)" gradientUnits="userSpaceOnUse"><stop offset="0" stop-color="#df8998"/><stop offset=".9" stop-color="#e5b99d"/><stop offset="1" stop-color="#e5b79b"/></linearGradient><linearGradient id="_Linear10" x1="0" x2="1" y1="0" y2="0" gradientTransform="matrix(0 100 -100 0 247.531 1)" gradientUnits="userSpaceOnUse"><stop offset="0" stop-color="#df8998"/><stop offset=".9" stop-color="#e5b99d"/><stop offset="1" stop-color="#e5b79b"/></linearGradient></defs></svg>