<svg xmlns="http://www.w3.org/2000/svg" fill-rule="evenodd" stroke-linecap="round" stroke-linejoin="round" stroke-miterlimit="1.5" clip-rule="evenodd" viewBox="0 0 1001 401"><g fill="none"><path stroke="url(#_Linear1)" d="M100.5.5v400"/><path stroke="url(#_Linear2)" d="M200.5.5v400"/><path stroke="url(#_Linear3)" d="M300.5.5v400"/><path stroke="url(#_Linear4)" d="M400.5.5v400"/><path stroke="url(#_Linear5)" d="M500.5.5v400"/><path stroke="url(#_Linear6)" d="M600.5.5v400"/><path stroke="url(#_Linear7)" d="M700.5.5v400"/><path stroke="url(#_Linear8)" d="M800.5.5v400"/><path stroke="url(#_Linear9)" d="M.5 390.5a10.001 10.001 0 0010 10h980c5.523 0 10-4.477 10-10v-380a10.001 10.001 0 00-10-10h-980a10.001 10.001 0 00-10 10v380z"/><path stroke="url(#_Linear10)" d="M900.5.5v400"/><path stroke="url(#_Linear11)" d="M.5 100.5h1000"/><path stroke="url(#_Linear12)" d="M.5 200.5h1000"/><path stroke="url(#_Linear13)" d="M.5 300.5h1000"/></g><defs><linearGradient id="_Linear1" x1="0" x2="1" y1="0" y2="0" gradientTransform="matrix(1000 400 -400 1000 .5 .5)" gradientUnits="userSpaceOnUse"><stop offset="0" stop-color="#df8998"/><stop offset=".9" stop-color="#e5b99d"/><stop offset="1" stop-color="#e5b79b"/></linearGradient><linearGradient id="_Linear2" x1="0" x2="1" y1="0" y2="0" gradientTransform="matrix(1000 400 -400 1000 .5 .5)" gradientUnits="userSpaceOnUse"><stop offset="0" stop-color="#df8998"/><stop offset=".9" stop-color="#e5b99d"/><stop offset="1" stop-color="#e5b79b"/></linearGradient><linearGradient id="_Linear3" x1="0" x2="1" y1="0" y2="0" gradientTransform="matrix(1000 400 -400 1000 .5 .5)" gradientUnits="userSpaceOnUse"><stop offset="0" stop-color="#df8998"/><stop offset=".9" stop-color="#e5b99d"/><stop offset="1" stop-color="#e5b79b"/></linearGradient><linearGradient id="_Linear4" x1="0" x2="1" y1="0" y2="0" gradientTransform="matrix(1000 400 -400 1000 .5 .5)" gradientUnits="userSpaceOnUse"><stop offset="0" stop-color="#df8998"/><stop offset=".9" stop-color="#e5b99d"/><stop offset="1" stop-color="#e5b79b"/></linearGradient><linearGradient id="_Linear5" x1="0" x2="1" y1="0" y2="0" gradientTransform="matrix(1000 400 -400 1000 .5 .5)" gradientUnits="userSpaceOnUse"><stop offset="0" stop-color="#df8998"/><stop offset=".9" stop-color="#e5b99d"/><stop offset="1" stop-color="#e5b79b"/></linearGradient><linearGradient id="_Linear6" x1="0" x2="1" y1="0" y2="0" gradientTransform="matrix(1000 400 -400 1000 .5 .5)" gradientUnits="userSpaceOnUse"><stop offset="0" stop-color="#df8998"/><stop offset=".9" stop-color="#e5b99d"/><stop offset="1" stop-color="#e5b79b"/></linearGradient><linearGradient id="_Linear7" x1="0" x2="1" y1="0" y2="0" gradientTransform="matrix(1000 400 -400 1000 .5 .5)" gradientUnits="userSpaceOnUse"><stop offset="0" stop-color="#df8998"/><stop offset=".9" stop-color="#e5b99d"/><stop offset="1" stop-color="#e5b79b"/></linearGradient><linearGradient id="_Linear8" x1="0" x2="1" y1="0" y2="0" gradientTransform="matrix(1000 400 -400 1000 .5 .5)" gradientUnits="userSpaceOnUse"><stop offset="0" stop-color="#df8998"/><stop offset=".9" stop-color="#e5b99d"/><stop offset="1" stop-color="#e5b79b"/></linearGradient><linearGradient id="_Linear9" x1="0" x2="1" y1="0" y2="0" gradientTransform="matrix(1000 400 -400 1000 .5 .5)" gradientUnits="userSpaceOnUse"><stop offset="0" stop-color="#df8998"/><stop offset=".9" stop-color="#e5b99d"/><stop offset="1" stop-color="#e5b79b"/></linearGradient><linearGradient id="_Linear10" x1="0" x2="1" y1="0" y2="0" gradientTransform="matrix(1000 400 -400 1000 .5 .5)" gradientUnits="userSpaceOnUse"><stop offset="0" stop-color="#df8998"/><stop offset=".9" stop-color="#e5b99d"/><stop offset="1" stop-color="#e5b79b"/></linearGradient><linearGradient id="_Linear11" x1="0" x2="1" y1="0" y2="0" gradientTransform="matrix(1000 400 -400 1000 .5 .5)" gradientUnits="userSpaceOnUse"><stop offset="0" stop-color="#df8998"/><stop offset=".9" stop-color="#e5b99d"/><stop offset="1" stop-color="#e5b79b"/></linearGradient><linearGradient id="_Linear12" x1="0" x2="1" y1="0" y2="0" gradientTransform="matrix(1000 400 -400 1000 .5 .5)" gradientUnits="userSpaceOnUse"><stop offset="0" stop-color="#df8998"/><stop offset=".9" stop-color="#e5b99d"/><stop offset="1" stop-color="#e5b79b"/></linearGradient><linearGradient id="_Linear13" x1="0" x2="1" y1="0" y2="0" gradientTransform="matrix(1000 400 -400 1000 .5 .5)" gradientUnits="userSpaceOnUse"><stop offset="0" stop-color="#df8998"/><stop offset=".9" stop-color="#e5b99d"/><stop offset="1" stop-color="#e5b79b"/></linearGradient></defs></svg>