<?xml version="1.0" encoding="UTF-8" standalone="no"?><!DOCTYPE svg PUBLIC "-//W3C//DTD SVG 1.1//EN" "http://www.w3.org/Graphics/SVG/1.1/DTD/svg11.dtd"><svg width="100%" height="100%" viewBox="0 0 726 726" version="1.1" xmlns="http://www.w3.org/2000/svg" xmlns:xlink="http://www.w3.org/1999/xlink" xml:space="preserve" xmlns:serif="http://www.serif.com/" style="fill-rule:evenodd;clip-rule:evenodd;stroke-linejoin:round;stroke-miterlimit:2;"><g id="_2-7-ring-in" serif:id="2-7-ring-in"><path d="M369.12,54.253L360.93,54.253L359.166,58.18L357.549,58.18L364.269,43.48L365.802,43.48L372.522,58.18L370.884,58.18L369.12,54.253ZM368.553,52.993L365.025,45.097L361.497,52.993L368.553,52.993Z" style="fill:white;fill-rule:nonzero;"/><path d="M391.094,44.696L401.793,45.759L401.663,47.075L392.489,46.164L392.014,50.95L396.799,51.425C398.527,51.597 399.804,52.082 400.633,52.882C401.461,53.682 401.808,54.757 401.673,56.108C401.534,57.516 400.942,58.547 399.899,59.203C398.856,59.86 397.429,60.098 395.618,59.918L389.642,59.325L391.094,44.696ZM395.72,58.683C397.071,58.817 398.117,58.661 398.858,58.214C399.599,57.767 400.02,57.035 400.121,56.018C400.22,55.015 399.957,54.232 399.33,53.671C398.704,53.109 397.701,52.76 396.322,52.623L391.891,52.183L391.29,58.243L395.72,58.683Z" style="fill:white;fill-rule:nonzero;"/><path d="M428.946,57.612C429.905,58.023 430.585,58.579 430.984,59.282C431.383,59.986 431.485,60.817 431.289,61.777C431.034,63.026 430.395,63.895 429.373,64.387C428.351,64.878 426.983,64.949 425.268,64.599L418.89,63.296L421.832,48.893L427.819,50.116C429.356,50.43 430.491,50.991 431.227,51.798C431.962,52.606 432.208,53.606 431.964,54.799C431.799,55.609 431.454,56.249 430.929,56.72C430.404,57.192 429.743,57.489 428.946,57.612ZM422.002,55.722L426.405,56.622C427.516,56.849 428.416,56.797 429.105,56.466C429.794,56.135 430.227,55.538 430.404,54.674C430.58,53.809 430.416,53.09 429.912,52.515C429.408,51.941 428.6,51.54 427.489,51.313L423.086,50.414L422.002,55.722ZM425.516,63.385C427.999,63.892 429.43,63.219 429.808,61.368C430.178,59.557 429.121,58.398 426.638,57.891L421.762,56.895L420.64,62.389L425.516,63.385Z" style="fill:white;fill-rule:nonzero;"/><path d="M462.507,60.71L455.019,58.412L451.12,71.186L449.654,70.736L453.968,56.683L462.901,59.425L462.507,60.71Z" style="fill:white;fill-rule:nonzero;"/><path d="M488.626,83.631L486.857,87.922L485.517,87.369L486.774,84.321L474.913,79.429L473.636,82.469L472.297,81.916L474.086,77.634L474.765,77.914C475.68,78.231 476.593,77.778 477.506,76.557C478.418,75.336 479.431,73.486 480.545,71.007L482.518,66.664L491.681,70.444L486.588,82.791L488.626,83.631ZM481.77,71.671C480.851,73.715 479.989,75.355 479.184,76.591C478.379,77.826 477.586,78.547 476.804,78.755L485.171,82.206L489.751,71.102L483.248,68.419L481.77,71.671Z" style="fill:white;fill-rule:nonzero;"/><path d="M513.715,96.451L513.073,97.631L503.943,92.661L510.97,79.75L519.824,84.569L519.181,85.75L511.693,81.673L509.193,86.266L515.87,89.901L515.237,91.063L508.56,87.428L505.95,92.224L513.715,96.451Z" style="fill:white;fill-rule:nonzero;"/><path d="M540.274,106.753L537.749,105.051L533.981,110.641L532.727,109.796L536.495,104.206L533.953,102.492L526.459,105.57L524.961,104.56L533.378,101.092L533.491,92.583L534.884,93.522L534.699,101.349L537.258,103.074L540.944,97.607L542.198,98.452L538.512,103.919L541.037,105.622L548.24,102.525L549.633,103.464L541.788,106.761L541.73,115.864L540.232,114.855L540.274,106.753Z" style="fill:white;fill-rule:nonzero;"/><path d="M563.782,123.509C564.375,124.307 564.685,125.125 564.71,125.963C564.736,126.801 564.467,127.56 563.906,128.24C563.362,128.899 562.68,129.307 561.86,129.465C561.04,129.623 560.18,129.554 559.282,129.256C558.383,128.959 557.535,128.481 556.736,127.822C555.98,127.198 555.338,126.463 554.81,125.619C554.282,124.774 553.927,123.869 553.745,122.901L554.89,122.404C555.039,123.235 555.341,124.024 555.795,124.771C556.25,125.519 556.801,126.16 557.448,126.694C558.064,127.202 558.711,127.573 559.389,127.807C560.068,128.04 560.711,128.103 561.317,127.996C561.923,127.888 562.431,127.586 562.841,127.089C563.385,126.431 563.545,125.709 563.321,124.925C563.097,124.141 562.515,123.361 561.576,122.586L559.147,120.58L559.949,119.609L562.313,121.561C563.112,122.22 563.876,122.565 564.605,122.595C565.333,122.625 565.947,122.337 566.447,121.733C566.999,121.063 567.148,120.301 566.892,119.445C566.636,118.589 566.076,117.805 565.213,117.092C564.673,116.646 564.063,116.275 563.383,115.976C562.703,115.678 561.986,115.481 561.231,115.384L561.641,114.062C563.317,114.32 564.808,114.988 566.114,116.066C566.881,116.699 567.48,117.402 567.912,118.177C568.344,118.951 568.554,119.724 568.544,120.496C568.533,121.267 568.269,121.966 567.752,122.592C567.253,123.197 566.655,123.58 565.96,123.741C565.264,123.902 564.538,123.824 563.782,123.509Z" style="fill:white;fill-rule:nonzero;"/><path d="M585.403,133.381L586.469,134.483L577.713,142.95L593.008,141.247L593.986,142.258L583.419,152.476L582.353,151.374L591.094,142.923L575.813,144.611L574.835,143.599L585.403,133.381Z" style="fill:white;fill-rule:nonzero;"/><path d="M606.614,156.158L607.584,157.344L598.157,165.056L613.541,164.627L614.432,165.716L603.053,175.023L602.083,173.836L611.494,166.138L596.126,166.554L595.235,165.465L606.614,156.158ZM611.325,160.226C610.66,159.413 610.319,158.621 610.302,157.848C610.285,157.075 610.603,156.413 611.255,155.861L611.986,156.755C611.561,157.121 611.353,157.563 611.361,158.081C611.369,158.599 611.59,159.123 612.024,159.654C612.45,160.175 612.918,160.493 613.428,160.608C613.939,160.724 614.416,160.61 614.858,160.266L615.589,161.161C614.919,161.69 614.205,161.868 613.447,161.692C612.688,161.517 611.981,161.028 611.325,160.226Z" style="fill:white;fill-rule:nonzero;"/><path d="M622.424,190.451L620.563,187.654L614.951,191.389L614.113,190.13L626.351,181.985L627.188,183.244L621.699,186.897L623.561,189.695L631.808,190.184L632.738,191.583L623.769,190.994L620.675,199.99L619.686,198.504L622.424,190.451Z" style="fill:white;fill-rule:nonzero;"/><path d="M661.299,248.115L647.742,253.796L647.165,252.421L658.012,247.876L646.657,246.372L646.373,245.694L653.206,236.57L642.418,241.091L641.841,239.715L655.399,234.034L655.894,235.216L648.309,245.316L660.804,246.933L661.299,248.115Z" style="fill:white;fill-rule:nonzero;"/><path d="M670.608,276.432L656.518,280.621L656.081,279.152L662.583,277.219L659.961,268.402L653.46,270.336L653.017,268.846L667.107,264.656L667.55,266.146L661.27,268.013L663.891,276.83L670.171,274.962L670.608,276.432Z" style="fill:white;fill-rule:nonzero;"/><path d="M661.87,303.677C661.586,302.249 661.648,300.891 662.056,299.604C662.465,298.317 663.16,297.237 664.143,296.364C665.125,295.49 666.31,294.916 667.697,294.641C669.084,294.365 670.398,294.443 671.64,294.875C672.882,295.306 673.937,296.039 674.806,297.072C675.675,298.106 676.252,299.336 676.535,300.765C676.819,302.193 676.759,303.543 676.355,304.815C675.951,306.087 675.255,307.164 674.266,308.045C673.278,308.926 672.091,309.505 670.704,309.78C669.317,310.056 667.998,309.975 666.748,309.538C665.498,309.101 664.443,308.372 663.584,307.351C662.725,306.33 662.153,305.105 661.87,303.677ZM663.229,303.407C663.455,304.547 663.917,305.526 664.615,306.343C665.313,307.161 666.17,307.74 667.187,308.081C668.204,308.421 669.275,308.48 670.401,308.256C671.527,308.032 672.495,307.569 673.304,306.866C674.114,306.163 674.685,305.3 675.017,304.278C675.349,303.255 675.402,302.174 675.176,301.035C674.949,299.895 674.487,298.913 673.788,298.088C673.089,297.263 672.23,296.677 671.212,296.33C670.194,295.983 669.122,295.921 667.996,296.144C666.87,296.368 665.903,296.835 665.095,297.545C664.286,298.255 663.717,299.124 663.386,300.154C663.055,301.183 663.003,302.267 663.229,303.407Z" style="fill:white;fill-rule:nonzero;"/><path d="M681.586,337.847L666.955,339.266L666.807,337.74L680.1,336.451L679.202,327.191L665.908,328.481L665.76,326.955L680.392,325.535L681.586,337.847Z" style="fill:white;fill-rule:nonzero;"/><path d="M682.526,363.525C682.526,365.401 682.078,366.871 681.182,367.935C680.286,368.999 679.054,369.531 677.486,369.531C675.918,369.531 674.69,368.999 673.801,367.935C672.912,366.871 672.467,365.401 672.467,363.525L672.467,359.577L667.826,359.577L667.826,358.023L682.526,358.023L682.526,363.525ZM673.832,363.483C673.832,364.939 674.151,366.052 674.788,366.822C675.425,367.592 676.324,367.977 677.486,367.977C678.676,367.977 679.59,367.592 680.227,366.822C680.864,366.052 681.182,364.939 681.182,363.483L681.182,359.577L673.832,359.577L673.832,363.483Z" style="fill:white;fill-rule:nonzero;"/><path d="M665.66,398.168C665.829,396.722 666.302,395.455 667.077,394.369C667.853,393.283 668.846,392.476 670.056,391.948C671.267,391.42 672.574,391.239 673.979,391.403C675.383,391.567 676.613,392.046 677.669,392.839C678.725,393.633 679.505,394.651 680.008,395.893C680.51,397.136 680.677,398.481 680.508,399.927C680.381,401.012 680.083,401.992 679.614,402.867C679.145,403.742 678.526,404.459 677.755,405.017L676.89,403.922C678.177,402.917 678.923,401.546 679.126,399.808C679.262,398.653 679.12,397.573 678.703,396.565C678.285,395.558 677.648,394.733 676.793,394.09C675.938,393.447 674.941,393.059 673.801,392.926C672.66,392.792 671.6,392.939 670.62,393.367C669.639,393.795 668.829,394.451 668.19,395.335C667.551,396.218 667.164,397.237 667.029,398.391C666.824,400.143 667.24,401.651 668.276,402.914L667.181,403.78C666.56,403.059 666.12,402.214 665.86,401.246C665.599,400.278 665.533,399.252 665.66,398.168Z" style="fill:white;fill-rule:nonzero;"/><path d="M673.062,434.791L674.11,429.733L661.032,427.023L661.343,425.522L674.421,428.231L675.469,423.173L676.785,423.445L674.378,435.064L673.062,434.791Z" style="fill:white;fill-rule:nonzero;"/><path d="M665.568,466.03L655.751,455.97C655.05,455.253 654.591,454.527 654.374,453.791C654.156,453.056 654.159,452.328 654.385,451.606C654.551,451.071 654.858,450.536 655.303,450.001L656.375,450.797C656.038,451.22 655.806,451.632 655.681,452.033C655.394,452.955 655.659,453.866 656.478,454.767L657.034,455.381L669.616,453.059L669.122,454.643L658.093,456.569L666.031,464.546L665.568,466.03Z" style="fill:white;fill-rule:nonzero;"/><path d="M646.657,493.762C644.865,493.002 643.726,491.771 643.239,490.067C642.753,488.363 642.961,486.356 643.864,484.047L642.471,483.457L643.037,482.123L644.429,482.713C645.474,480.465 646.774,478.921 648.331,478.083C649.887,477.245 651.561,477.206 653.353,477.966C655.144,478.725 656.28,479.956 656.76,481.657C657.24,483.358 657.036,485.366 656.146,487.68L657.499,488.254L656.934,489.588L655.58,489.014C654.541,491.25 653.239,492.789 651.673,493.63C650.108,494.472 648.435,494.516 646.657,493.762ZM645.004,484.531C644.289,486.433 644.122,488.065 644.502,489.427C644.883,490.79 645.795,491.777 647.238,492.389C648.682,493.001 650.027,492.967 651.274,492.286C652.52,491.606 653.569,490.351 654.42,488.522L645.004,484.531ZM652.771,479.338C651.327,478.726 649.985,478.762 648.745,479.445C647.505,480.128 646.447,481.379 645.57,483.197L654.986,487.188C655.706,485.274 655.878,483.64 655.501,482.286C655.125,480.933 654.215,479.95 652.771,479.338Z" style="fill:white;fill-rule:nonzero;"/><path d="M645.09,513.097L637.984,513.988L641.107,520.42L640.234,522.025L636.434,514.245L627.13,515.352L628.003,513.747L635.733,512.764L632.358,505.741L633.211,504.173L637.291,512.536L645.943,511.529L645.09,513.097Z" style="fill:white;fill-rule:nonzero;"/><path d="M611.155,542.572L607.191,539.886L608.005,538.686L610.855,540.619L618.055,529.998L630.223,538.246L629.362,539.515L618.307,532.021L613.323,539.374L624.378,546.868L623.518,548.137L612.463,540.643L611.155,542.572Z" style="fill:white;fill-rule:nonzero;"/><path d="M604.513,572.253L593.273,562.779L594.248,561.623L598.904,565.548C599.408,563.885 600.143,562.481 601.108,561.336C602.218,560.019 603.403,559.265 604.664,559.073C605.924,558.881 607.132,559.272 608.288,560.247L611.997,563.373L611.009,564.545L607.429,561.527C606.562,560.797 605.657,560.501 604.715,560.641C603.773,560.781 602.887,561.343 602.057,562.328C601.11,563.452 600.412,564.823 599.964,566.441L605.487,571.097L604.513,572.253Z" style="fill:white;fill-rule:nonzero;"/><path d="M580.233,597.502L569.937,587.01L582.798,574.39L593.094,584.883L591.999,585.956L582.645,576.423L577.849,581.13L587.203,590.663L586.109,591.737L576.754,582.204L571.973,586.896L581.327,596.429L580.233,597.502Z" style="fill:white;fill-rule:nonzero;"/><path d="M556.494,617.428L547.279,605.975L561.317,594.68L570.532,606.133L569.337,607.094L560.965,596.688L555.729,600.901L564.102,611.307L562.907,612.268L554.535,601.862L549.315,606.061L557.688,616.467L556.494,617.428ZM546.338,608.457L543.428,604.841L544.557,603.933L546.624,606.502L548.489,605.001L549.332,606.048L546.338,608.457Z" style="fill:white;fill-rule:nonzero;"/><path d="M533.235,627.189C531.783,628.141 530.462,628.539 529.271,628.383C528.08,628.226 527.07,627.516 526.241,626.251C525.373,624.928 525.122,623.658 525.486,622.439C525.851,621.221 526.8,620.109 528.333,619.103L533.198,615.913L540.522,627.081L544.35,624.571L545.087,625.695L539.977,629.046L537.098,624.656L533.235,627.189ZM529.031,620.128C527.895,620.872 527.197,621.69 526.936,622.581C526.674,623.472 526.866,624.41 527.511,625.393C528.747,627.278 530.524,627.46 532.842,625.94L536.407,623.602L532.595,617.79L529.031,620.128Z" style="fill:white;fill-rule:nonzero;"/><path d="M510.178,640.683C508.642,641.493 507.286,641.764 506.109,641.498C504.932,641.232 503.991,640.43 503.286,639.093C502.549,637.693 502.42,636.404 502.899,635.226C503.378,634.048 504.428,633.031 506.051,632.176L511.216,629.455L518.069,642.459L516.713,643.174L514.265,638.53L510.178,640.683ZM506.666,633.253C505.464,633.886 504.691,634.634 504.346,635.496C504.001,636.358 504.103,637.309 504.651,638.35C505.702,640.344 507.454,640.695 509.906,639.402L513.678,637.415L510.437,631.265L506.666,633.253ZM505.64,649.009L504.284,649.724L497.431,636.719L498.787,636.004L505.64,649.009Z" style="fill:white;fill-rule:nonzero;"/><path d="M479.763,654.781C478.152,655.429 476.776,655.56 475.632,655.175C474.489,654.79 473.635,653.896 473.071,652.493C472.48,651.025 472.484,649.73 473.081,648.607C473.678,647.484 474.827,646.58 476.529,645.896L481.945,643.717L487.431,657.355L486.009,657.927L484.049,653.057L479.763,654.781ZM477.03,647.03C475.77,647.536 474.925,648.201 474.493,649.023C474.062,649.846 474.066,650.802 474.505,651.893C475.346,653.985 477.052,654.513 479.624,653.478L483.579,651.888L480.985,645.439L477.03,647.03Z" style="fill:white;fill-rule:nonzero;"/><path d="M454.499,669.274C453.185,669.668 451.902,669.715 450.651,669.417C449.4,669.12 448.306,668.515 447.369,667.605C446.431,666.694 445.76,665.562 445.354,664.207C444.949,662.853 444.888,661.537 445.171,660.262C445.454,658.986 446.037,657.88 446.918,656.944C447.8,656.008 448.898,655.343 450.212,654.95C451.312,654.621 452.37,654.494 453.387,654.57C454.403,654.646 455.322,654.933 456.144,655.433L455.501,656.655C454.051,655.862 452.44,655.73 450.67,656.26C449.677,656.557 448.841,657.059 448.162,657.767C447.482,658.474 447.012,659.309 446.752,660.271C446.492,661.233 446.481,662.233 446.719,663.273L453.982,661.099L454.349,662.327L447.106,664.494C447.507,665.441 448.074,666.225 448.807,666.846C449.541,667.466 450.376,667.874 451.311,668.069C452.246,668.264 453.196,668.217 454.162,667.928C455.932,667.399 457.206,666.404 457.982,664.944L459.19,665.613C458.778,666.481 458.168,667.226 457.36,667.848C456.553,668.47 455.599,668.945 454.499,669.274Z" style="fill:white;fill-rule:nonzero;"/><path d="M420.217,677.506C418.856,677.768 417.564,677.689 416.343,677.268C415.121,676.847 414.09,676.137 413.249,675.137C412.408,674.136 411.854,672.942 411.586,671.554C411.319,670.165 411.391,668.85 411.801,667.61C412.211,666.369 412.905,665.326 413.883,664.482C414.861,663.638 416.031,663.085 417.392,662.824C418.684,662.575 419.915,662.637 421.085,663.011C422.254,663.385 423.261,664.025 424.106,664.932C424.95,665.839 425.538,666.93 425.869,668.207L428.839,667.636L427.561,660.995L429.067,660.706L431.844,675.141L430.339,675.431L429.105,669.017L426.115,669.592C426.245,670.865 426.08,672.062 425.619,673.184C425.158,674.307 424.458,675.247 423.52,676.005C422.583,676.762 421.481,677.263 420.217,677.506ZM417.654,664.185C416.581,664.391 415.662,664.835 414.895,665.517C414.128,666.2 413.584,667.042 413.264,668.044C412.943,669.047 412.893,670.119 413.113,671.26C413.332,672.401 413.777,673.378 414.446,674.19C415.116,675.002 415.933,675.582 416.898,675.931C417.864,676.28 418.882,676.352 419.955,676.145C421.013,675.942 421.926,675.499 422.693,674.816C423.46,674.134 424.004,673.292 424.324,672.289C424.644,671.287 424.695,670.215 424.475,669.074C424.256,667.933 423.811,666.956 423.142,666.144C422.472,665.332 421.655,664.751 420.689,664.402C419.724,664.054 418.712,663.981 417.654,664.185Z" style="fill:white;fill-rule:nonzero;"/><path d="M386.909,681.671L385.576,667.031L387.103,666.892L387.507,671.326L391.878,670.928C392.073,670.911 392.353,670.899 392.718,670.894L395.385,666.139L397.037,665.988L394.144,671.038C395.247,671.261 396.121,671.755 396.767,672.518C397.413,673.282 397.79,674.256 397.897,675.441C398.047,677.087 397.644,678.41 396.688,679.41C395.731,680.411 394.368,680.992 392.597,681.153L386.909,681.671ZM396.354,675.624C396.244,674.425 395.808,673.533 395.045,672.949C394.282,672.365 393.224,672.134 391.872,672.257L387.627,672.644L388.314,680.194L392.413,679.82C393.779,679.696 394.806,679.276 395.493,678.56C396.18,677.843 396.467,676.865 396.354,675.624Z" style="fill:white;fill-rule:nonzero;"/><path d="M356.88,671.747L365.07,671.747L366.834,667.82L368.451,667.82L361.731,682.52L360.198,682.52L353.478,667.82L355.116,667.82L356.88,671.747ZM357.447,673.007L360.975,680.903L364.503,673.007L357.447,673.007Z" style="fill:white;fill-rule:nonzero;"/><path d="M334.853,681.335L324.161,680.196L324.302,678.881L333.469,679.857L333.978,675.075L329.196,674.566C327.47,674.382 326.196,673.887 325.373,673.082C324.551,672.276 324.212,671.198 324.356,669.848C324.505,668.442 325.104,667.414 326.152,666.766C327.199,666.117 328.628,665.889 330.438,666.082L336.41,666.718L334.853,681.335ZM330.327,667.316C328.977,667.172 327.93,667.321 327.186,667.763C326.442,668.204 326.016,668.933 325.908,669.95C325.801,670.952 326.059,671.736 326.681,672.302C327.304,672.869 328.304,673.225 329.682,673.372L334.109,673.843L334.754,667.788L330.327,667.316Z" style="fill:white;fill-rule:nonzero;"/><path d="M297.054,668.388C296.095,667.978 295.415,667.421 295.016,666.718C294.617,666.015 294.515,665.183 294.711,664.223C294.966,662.975 295.604,662.105 296.626,661.613C297.648,661.122 299.017,661.051 300.731,661.401L307.11,662.704L304.168,677.107L298.181,675.884C296.645,675.57 295.509,675.01 294.773,674.202C294.038,673.395 293.792,672.394 294.036,671.201C294.201,670.392 294.547,669.751 295.071,669.28C295.596,668.808 296.257,668.511 297.054,668.388ZM303.998,670.278L299.595,669.378C298.484,669.151 297.584,669.203 296.895,669.534C296.206,669.865 295.773,670.462 295.597,671.327C295.42,672.191 295.584,672.91 296.088,673.485C296.592,674.059 297.4,674.46 298.511,674.687L302.914,675.586L303.998,670.278ZM300.483,662.615C298.001,662.108 296.57,662.781 296.192,664.632C295.822,666.443 296.879,667.602 299.361,668.109L304.238,669.105L305.36,663.611L300.483,662.615Z" style="fill:white;fill-rule:nonzero;"/><path d="M263.493,665.289L270.981,667.589L274.881,654.815L276.346,655.265L272.031,669.317L263.098,666.574L263.493,665.289Z" style="fill:white;fill-rule:nonzero;"/><path d="M237.417,642.346L239.208,638.064L240.545,638.624L239.272,641.665L251.11,646.616L252.401,643.582L253.738,644.141L251.928,648.415L251.25,648.131C250.337,647.81 249.422,648.258 248.503,649.475C247.584,650.692 246.562,652.537 245.437,655.01L243.443,659.343L234.298,655.519L239.451,643.197L237.417,642.346ZM244.215,654.34C245.144,652.3 246.014,650.665 246.825,649.433C247.636,648.202 248.433,647.484 249.216,647.281L240.866,643.788L236.231,654.87L242.721,657.585L244.215,654.34Z" style="fill:white;fill-rule:nonzero;"/><path d="M212.269,629.553L212.91,628.372L222.049,633.325L215.045,646.249L206.182,641.446L206.823,640.264L214.319,644.327L216.81,639.729L210.127,636.107L210.757,634.944L217.441,638.566L220.042,633.766L212.269,629.553Z" style="fill:white;fill-rule:nonzero;"/><path d="M185.724,619.248L188.25,620.949L192.014,615.357L193.269,616.201L189.504,621.793L192.048,623.505L199.54,620.422L201.038,621.431L192.624,624.906L192.516,633.415L191.123,632.476L191.303,624.649L188.742,622.925L185.06,628.396L183.806,627.551L187.488,622.081L184.962,620.381L177.761,623.482L176.367,622.544L184.21,619.242L184.262,610.138L185.76,611.147L185.724,619.248Z" style="fill:white;fill-rule:nonzero;"/><path d="M162.214,602.496C161.618,601.699 161.306,600.882 161.278,600.044C161.25,599.206 161.516,598.447 162.076,597.765C162.618,597.105 163.298,596.694 164.118,596.534C164.938,596.374 165.798,596.441 166.697,596.735C167.596,597.029 168.446,597.505 169.247,598.162C170.005,598.784 170.649,599.517 171.18,600.359C171.71,601.202 172.068,602.107 172.253,603.074L171.108,603.575C170.957,602.744 170.653,601.956 170.197,601.21C169.74,600.464 169.187,599.825 168.538,599.292C167.921,598.786 167.273,598.417 166.594,598.185C165.914,597.954 165.272,597.893 164.666,598.002C164.06,598.111 163.552,598.415 163.144,598.913C162.602,599.573 162.444,600.295 162.671,601.078C162.897,601.862 163.481,602.64 164.423,603.412L166.858,605.411L166.058,606.385L163.688,604.44C162.887,603.783 162.123,603.44 161.394,603.412C160.665,603.385 160.052,603.674 159.554,604.28C159.004,604.951 158.858,605.714 159.116,606.569C159.374,607.424 159.936,608.206 160.802,608.917C161.343,609.361 161.954,609.731 162.635,610.027C163.315,610.323 164.033,610.518 164.789,610.613L164.382,611.936C162.706,611.684 161.213,611.02 159.904,609.945C159.135,609.315 158.534,608.613 158.1,607.84C157.665,607.067 157.453,606.295 157.461,605.523C157.47,604.751 157.731,604.052 158.247,603.424C158.744,602.818 159.34,602.433 160.035,602.27C160.731,602.107 161.457,602.183 162.214,602.496Z" style="fill:white;fill-rule:nonzero;"/><path d="M140.721,592.627L139.641,591.539L148.282,582.956L133.011,584.865L132.019,583.866L142.449,573.507L143.529,574.594L134.902,583.163L150.159,581.269L151.151,582.267L140.721,592.627Z" style="fill:white;fill-rule:nonzero;"/><path d="M119.404,569.845L118.431,568.66L127.844,560.931L112.46,561.389L111.568,560.302L122.928,550.973L123.901,552.158L114.504,559.874L129.871,559.429L130.764,560.516L119.404,569.845ZM114.685,565.786C115.351,566.597 115.693,567.389 115.712,568.162C115.73,568.935 115.414,569.597 114.763,570.15L114.03,569.257C114.454,568.891 114.662,568.449 114.653,567.931C114.644,567.413 114.422,566.889 113.987,566.359C113.56,565.839 113.091,565.522 112.581,565.407C112.07,565.292 111.593,565.407 111.152,565.752L110.419,564.859C111.088,564.328 111.801,564.15 112.56,564.324C113.319,564.498 114.027,564.985 114.685,565.786Z" style="fill:white;fill-rule:nonzero;"/><path d="M103.576,535.55L105.435,538.349L111.051,534.621L111.887,535.88L99.64,544.011L98.804,542.752L104.298,539.104L102.439,536.305L94.193,535.806L93.263,534.406L102.232,535.006L105.336,526.013L106.323,527.5L103.576,535.55Z" style="fill:white;fill-rule:nonzero;"/><path d="M78.232,508.043L91.208,501.136L91.929,502.489L80.139,508.765L83.474,515.031L87.89,512.87C89.715,511.978 91.235,511.355 92.451,511.002C93.666,510.648 94.668,510.563 95.455,510.747C96.243,510.93 96.844,511.411 97.258,512.19C97.436,512.523 97.577,512.892 97.681,513.297L96.398,513.837C96.336,513.6 96.252,513.383 96.147,513.186C95.857,512.642 95.406,512.315 94.793,512.206C94.179,512.096 93.372,512.196 92.372,512.507C91.371,512.817 90.107,513.34 88.579,514.074L82.919,516.848L78.232,508.043Z" style="fill:white;fill-rule:nonzero;"/><path d="M64.734,477.815L78.333,472.236L78.899,473.615L68.019,478.079L79.362,479.668L79.641,480.348L72.741,489.421L83.562,484.981L84.128,486.36L70.528,491.94L70.042,490.755L77.702,480.712L65.22,479.001L64.734,477.815Z" style="fill:white;fill-rule:nonzero;"/><path d="M55.376,449.602L69.45,445.356L69.892,446.824L63.399,448.783L66.055,457.589L72.549,455.63L72.998,457.117L58.924,461.363L58.475,459.875L64.748,457.983L62.092,449.177L55.819,451.069L55.376,449.602Z" style="fill:white;fill-rule:nonzero;"/><path d="M64.134,422.343C64.414,423.772 64.348,425.13 63.937,426.416C63.525,427.702 62.827,428.78 61.842,429.651C60.857,430.521 59.671,431.092 58.283,431.364C56.896,431.636 55.581,431.555 54.341,431.12C53.1,430.685 52.047,429.95 51.18,428.914C50.314,427.879 49.741,426.646 49.461,425.217C49.181,423.789 49.245,422.439 49.652,421.168C50.06,419.897 50.758,418.822 51.749,417.943C52.74,417.064 53.929,416.489 55.316,416.217C56.704,415.945 58.022,416.029 59.271,416.47C60.52,416.91 61.573,417.642 62.429,418.665C63.286,419.688 63.854,420.915 64.134,422.343ZM62.774,422.61C62.551,421.469 62.091,420.489 61.396,419.67C60.7,418.85 59.845,418.269 58.829,417.926C57.813,417.583 56.742,417.521 55.615,417.742C54.488,417.963 53.519,418.424 52.708,419.125C51.897,419.826 51.324,420.687 50.989,421.708C50.654,422.73 50.598,423.811 50.821,424.951C51.045,426.091 51.505,427.075 52.202,427.901C52.898,428.728 53.755,429.316 54.773,429.666C55.79,430.016 56.862,430.081 57.988,429.86C59.115,429.639 60.083,429.175 60.893,428.467C61.703,427.759 62.275,426.891 62.609,425.863C62.942,424.834 62.998,423.75 62.774,422.61Z" style="fill:white;fill-rule:nonzero;"/><path d="M44.402,388.17L59.03,386.718L59.182,388.244L45.891,389.563L46.809,398.82L60.1,397.501L60.252,399.027L45.623,400.478L44.402,388.17Z" style="fill:white;fill-rule:nonzero;"/><path d="M43.474,362.475C43.474,360.599 43.922,359.129 44.818,358.065C45.714,357.001 46.946,356.469 48.514,356.469C50.082,356.469 51.31,357.001 52.199,358.065C53.088,359.129 53.533,360.599 53.533,362.475L53.533,366.423L58.174,366.423L58.174,367.977L43.474,367.977L43.474,362.475ZM52.168,362.517C52.168,361.061 51.849,359.948 51.212,359.178C50.575,358.408 49.676,358.023 48.514,358.023C47.324,358.023 46.41,358.408 45.773,359.178C45.136,359.948 44.818,361.061 44.818,362.517L44.818,366.423L52.168,366.423L52.168,362.517Z" style="fill:white;fill-rule:nonzero;"/><path d="M60.336,327.763C60.179,329.21 59.718,330.481 58.952,331.573C58.185,332.666 57.199,333.482 55.993,334.02C54.788,334.559 53.482,334.752 52.076,334.599C50.67,334.447 49.436,333.979 48.373,333.195C47.31,332.411 46.522,331.4 46.008,330.161C45.495,328.923 45.316,327.58 45.473,326.132C45.591,325.047 45.88,324.064 46.342,323.185C46.803,322.305 47.416,321.583 48.181,321.018L49.056,322.106C47.778,323.122 47.044,324.5 46.856,326.24C46.73,327.395 46.881,328.474 47.308,329.478C47.734,330.482 48.377,331.301 49.238,331.937C50.099,332.572 51.1,332.952 52.241,333.075C53.382,333.199 54.441,333.042 55.418,332.606C56.395,332.17 57.199,331.507 57.83,330.618C58.461,329.728 58.84,328.706 58.965,327.551C59.155,325.797 58.726,324.293 57.679,323.039L58.767,322.164C59.393,322.88 59.841,323.721 60.109,324.686C60.378,325.652 60.454,326.677 60.336,327.763Z" style="fill:white;fill-rule:nonzero;"/><path d="M52.964,291.193L51.897,296.248L64.965,299.006L64.648,300.506L51.58,297.748L50.513,302.802L49.198,302.525L51.649,290.916L52.964,291.193Z" style="fill:white;fill-rule:nonzero;"/><path d="M60.467,259.952L70.244,270.051C70.941,270.771 71.397,271.499 71.612,272.236C71.827,272.972 71.82,273.7 71.592,274.421C71.423,274.955 71.114,275.489 70.667,276.022L69.598,275.222C69.937,274.8 70.17,274.389 70.297,273.989C70.588,273.068 70.327,272.156 69.511,271.251L68.957,270.635L56.366,272.906L56.867,271.324L67.903,269.443L59.998,261.434L60.467,259.952Z" style="fill:white;fill-rule:nonzero;"/><path d="M79.368,232.25C81.157,233.015 82.292,234.25 82.773,235.956C83.254,237.661 83.04,239.667 82.13,241.973L83.52,242.567L82.951,243.9L81.561,243.305C80.509,245.551 79.204,247.09 77.645,247.923C76.086,248.756 74.411,248.79 72.622,248.025C70.833,247.26 69.701,246.026 69.226,244.323C68.751,242.621 68.962,240.613 69.859,238.302L68.508,237.724L69.077,236.392L70.429,236.97C71.475,234.737 72.782,233.202 74.35,232.366C75.919,231.529 77.591,231.49 79.368,232.25ZM80.991,241.486C81.712,239.586 81.884,237.955 81.508,236.591C81.132,235.227 80.223,234.237 78.781,233.621C77.34,233.004 75.994,233.034 74.746,233.711C73.497,234.387 72.445,235.639 71.588,237.465L80.991,241.486ZM73.208,246.654C74.65,247.271 75.992,247.239 77.234,246.56C78.476,245.881 79.539,244.633 80.421,242.818L71.018,238.797C70.292,240.71 70.115,242.343 70.487,243.698C70.859,245.052 71.767,246.038 73.208,246.654Z" style="fill:white;fill-rule:nonzero;"/><path d="M80.909,212.883L88.018,212.009L84.91,205.569L85.787,203.967L89.568,211.757L98.875,210.673L97.998,212.276L90.265,213.239L93.623,220.271L92.766,221.837L88.706,213.463L80.052,214.449L80.909,212.883Z" style="fill:white;fill-rule:nonzero;"/><path d="M114.861,183.479L118.81,186.186L117.991,187.381L115.15,185.434L107.896,196.017L95.771,187.706L96.638,186.442L107.654,193.993L112.676,186.666L101.66,179.115L102.527,177.85L113.543,185.402L114.861,183.479Z" style="fill:white;fill-rule:nonzero;"/><path d="M121.457,153.754L132.731,163.188L131.76,164.348L127.09,160.439C126.592,162.104 125.862,163.51 124.901,164.659C123.795,165.979 122.613,166.738 121.353,166.934C120.094,167.131 118.884,166.744 117.725,165.773L114.004,162.66L114.988,161.485L118.58,164.49C119.449,165.218 120.355,165.51 121.296,165.367C122.237,165.223 123.121,164.658 123.948,163.67C124.891,162.543 125.584,161.169 126.027,159.55L120.487,154.914L121.457,153.754Z" style="fill:white;fill-rule:nonzero;"/><path d="M145.807,128.503L156.065,139.032L143.16,151.606L132.902,141.077L134,140.008L143.32,149.574L148.133,144.884L138.813,135.318L139.911,134.248L149.231,143.814L154.029,139.139L144.709,129.573L145.807,128.503Z" style="fill:white;fill-rule:nonzero;"/><path d="M169.519,108.575L178.721,120.038L164.67,131.317L155.468,119.854L156.663,118.894L165.024,129.31L170.264,125.103L161.904,114.687L163.099,113.728L171.46,124.143L176.684,119.95L168.323,109.534L169.519,108.575ZM179.664,117.557L182.57,121.177L181.44,122.084L179.376,119.513L177.509,121.011L176.668,119.963L179.664,117.557Z" style="fill:white;fill-rule:nonzero;"/><path d="M192.766,98.811C194.218,97.86 195.54,97.463 196.731,97.62C197.922,97.777 198.931,98.488 199.76,99.752C200.627,101.076 200.878,102.347 200.513,103.565C200.148,104.783 199.198,105.895 197.664,106.9L192.798,110.088L185.479,98.916L181.65,101.424L180.913,100.3L186.025,96.951L188.902,101.343L192.766,98.811ZM196.967,105.875C198.103,105.131 198.802,104.313 199.064,103.422C199.325,102.531 199.134,101.594 198.489,100.61C197.254,98.725 195.477,98.542 193.158,100.061L189.592,102.397L193.402,108.211L196.967,105.875Z" style="fill:white;fill-rule:nonzero;"/><path d="M215.821,85.321C217.355,84.508 218.711,84.234 219.888,84.498C221.066,84.762 222.008,85.563 222.715,86.899C223.455,88.297 223.587,89.586 223.11,90.765C222.633,91.944 221.584,92.962 219.963,93.82L214.803,96.551L207.927,83.559L209.282,82.842L211.738,87.482L215.821,85.321ZM219.346,92.745C220.547,92.11 221.318,91.361 221.662,90.498C222.005,89.635 221.902,88.684 221.351,87.644C220.297,85.652 218.545,85.304 216.095,86.601L212.327,88.595L215.579,94.739L219.346,92.745ZM220.344,76.987L221.699,76.27L228.575,89.262L227.22,89.979L220.344,76.987Z" style="fill:white;fill-rule:nonzero;"/><path d="M246.225,71.216C247.831,70.559 249.207,70.419 250.353,70.797C251.499,71.175 252.358,72.064 252.931,73.463C253.53,74.927 253.535,76.222 252.945,77.349C252.355,78.475 251.211,79.386 249.514,80.081L244.111,82.293L238.541,68.689L239.96,68.109L241.949,72.967L246.225,71.216ZM249.006,78.95C250.262,78.436 251.104,77.766 251.53,76.941C251.956,76.116 251.946,75.159 251.501,74.071C250.647,71.985 248.937,71.467 246.372,72.518L242.427,74.133L245.06,80.566L249.006,78.95Z" style="fill:white;fill-rule:nonzero;"/><path d="M271.516,56.719C272.831,56.328 274.114,56.284 275.364,56.584C276.614,56.885 277.707,57.492 278.642,58.404C279.578,59.317 280.246,60.451 280.649,61.807C281.051,63.162 281.109,64.477 280.823,65.752C280.537,67.028 279.952,68.132 279.068,69.066C278.185,70 277.085,70.662 275.77,71.053C274.669,71.379 273.611,71.504 272.595,71.426C271.578,71.348 270.66,71.058 269.839,70.557L270.485,69.336C271.933,70.132 273.543,70.268 275.315,69.742C276.308,69.447 277.145,68.947 277.827,68.241C278.508,67.535 278.98,66.701 279.242,65.74C279.504,64.778 279.518,63.778 279.282,62.738L272.014,64.895L271.65,63.667L278.898,61.516C278.499,60.568 277.934,59.783 277.202,59.16C276.469,58.538 275.636,58.128 274.701,57.931C273.766,57.734 272.816,57.779 271.85,58.065C270.078,58.591 268.802,59.583 268.023,61.041L266.816,60.37C267.23,59.502 267.842,58.758 268.651,58.138C269.46,57.519 270.415,57.045 271.516,56.719Z" style="fill:white;fill-rule:nonzero;"/><path d="M305.755,48.488C307.115,48.221 308.406,48.295 309.629,48.711C310.852,49.127 311.886,49.834 312.731,50.831C313.576,51.828 314.135,53.02 314.408,54.407C314.68,55.795 314.614,57.11 314.209,58.352C313.804,59.594 313.114,60.639 312.139,61.487C311.164,62.335 309.996,62.892 308.636,63.16C307.345,63.413 306.114,63.355 304.943,62.986C303.772,62.617 302.762,61.981 301.914,61.077C301.066,60.174 300.474,59.084 300.138,57.809L297.17,58.392L298.474,65.027L296.969,65.323L294.136,50.898L295.641,50.603L296.899,57.011L299.887,56.425C299.752,55.153 299.912,53.955 300.369,52.831C300.826,51.707 301.522,50.764 302.457,50.002C303.391,49.241 304.491,48.736 305.755,48.488ZM308.369,61.8C309.441,61.589 310.359,61.141 311.123,60.456C311.887,59.771 312.428,58.927 312.744,57.923C313.06,56.919 313.107,55.847 312.883,54.707C312.659,53.566 312.21,52.592 311.538,51.782C310.865,50.973 310.046,50.395 309.079,50.05C308.112,49.705 307.093,49.638 306.022,49.848C304.964,50.056 304.053,50.502 303.289,51.187C302.524,51.873 301.984,52.717 301.667,53.721C301.351,54.725 301.305,55.797 301.529,56.937C301.753,58.077 302.201,59.052 302.874,59.861C303.546,60.671 304.366,61.248 305.333,61.594C306.299,61.939 307.311,62.007 308.369,61.8Z" style="fill:white;fill-rule:nonzero;"/><path d="M339.064,44.312L340.45,58.947L338.924,59.091L338.504,54.659L334.135,55.073C333.94,55.092 333.66,55.104 333.295,55.11L330.645,59.876L328.994,60.032L331.868,54.971C330.765,54.752 329.889,54.262 329.24,53.501C328.591,52.74 328.211,51.767 328.099,50.582C327.943,48.938 328.341,47.613 329.294,46.609C330.246,45.605 331.608,45.019 333.378,44.851L339.064,44.312ZM329.642,50.394C329.755,51.593 330.195,52.483 330.96,53.064C331.725,53.645 332.784,53.872 334.136,53.744L338.38,53.342L337.665,45.795L333.567,46.183C332.201,46.312 331.176,46.736 330.492,47.455C329.808,48.174 329.524,49.153 329.642,50.394Z" style="fill:white;fill-rule:nonzero;"/><path d="M647.764,217.974L634.775,224.856L634.057,223.501L645.859,217.249L642.536,210.977L638.115,213.128C636.289,214.017 634.767,214.637 633.551,214.988C632.335,215.339 631.334,215.422 630.546,215.237C629.759,215.052 629.159,214.57 628.746,213.79C628.569,213.456 628.429,213.087 628.326,212.682L629.609,212.145C629.671,212.381 629.755,212.599 629.86,212.797C630.148,213.341 630.599,213.668 631.212,213.779C631.825,213.89 632.632,213.791 633.633,213.483C634.634,213.174 635.9,212.654 637.429,211.923L643.095,209.16L647.764,217.974Z" style="fill:white;fill-rule:nonzero;"/></g></svg>