<?xml version="1.0" encoding="UTF-8" standalone="no"?><!DOCTYPE svg PUBLIC "-//W3C//DTD SVG 1.1//EN" "http://www.w3.org/Graphics/SVG/1.1/DTD/svg11.dtd"><svg width="100%" height="100%" viewBox="0 0 726 726" version="1.1" xmlns="http://www.w3.org/2000/svg" xmlns:xlink="http://www.w3.org/1999/xlink" xml:space="preserve" xmlns:serif="http://www.serif.com/" style="fill-rule:evenodd;clip-rule:evenodd;stroke-linejoin:round;stroke-miterlimit:2;"><g id="_2-7-ring-out" serif:id="2-7-ring-out"><path d="M369.402,11.181L361.212,11.181L359.448,15.108L357.831,15.108L364.551,0.408L366.084,0.408L372.804,15.108L371.166,15.108L369.402,11.181ZM368.835,9.921L365.307,2.025L361.779,9.921L368.835,9.921Z" style="fill:white;fill-rule:nonzero;"/><path d="M395.578,1.857L406.277,2.919L406.146,4.236L396.973,3.325L396.497,8.11L401.283,8.586C403.01,8.757 404.288,9.243 405.116,10.042C405.944,10.842 406.291,11.918 406.157,13.269C406.017,14.676 405.426,15.708 404.383,16.364C403.34,17.02 401.913,17.258 400.102,17.078L394.125,16.485L395.578,1.857ZM400.204,15.843C401.555,15.978 402.601,15.821 403.342,15.374C404.083,14.927 404.503,14.195 404.604,13.178C404.704,12.175 404.441,11.393 403.814,10.831C403.187,10.269 402.184,9.92 400.805,9.783L396.375,9.343L395.773,15.404L400.204,15.843Z" style="fill:white;fill-rule:nonzero;"/><path d="M437.589,15.415C438.548,15.825 439.227,16.382 439.627,17.085C440.026,17.788 440.128,18.62 439.932,19.58C439.677,20.828 439.038,21.698 438.016,22.189C436.994,22.681 435.626,22.751 433.911,22.401L427.533,21.098L430.475,6.696L436.462,7.919C437.998,8.232 439.134,8.793 439.869,9.601C440.605,10.408 440.85,11.408 440.607,12.602C440.441,13.411 440.096,14.052 439.571,14.523C439.046,14.994 438.385,15.292 437.589,15.415ZM430.644,13.525L435.048,14.424C436.159,14.651 437.059,14.599 437.748,14.268C438.437,13.938 438.87,13.34 439.046,12.476C439.223,11.612 439.059,10.893 438.555,10.318C438.05,9.743 437.243,9.343 436.132,9.116L431.729,8.216L430.644,13.525ZM434.159,21.187C436.642,21.694 438.072,21.022 438.451,19.17C438.82,17.36 437.764,16.201 435.281,15.694L430.405,14.698L429.283,20.191L434.159,21.187Z" style="fill:white;fill-rule:nonzero;"/><path d="M475.226,19.557L467.738,17.259L463.839,30.033L462.374,29.583L466.687,15.53L475.621,18.272L475.226,19.557Z" style="fill:white;fill-rule:nonzero;"/><path d="M505.301,43.916L503.531,48.207L502.192,47.654L503.449,44.606L491.587,39.714L490.311,42.753L488.971,42.201L490.76,37.919L491.44,38.199C492.354,38.515 493.268,38.063 494.18,36.842C495.093,35.621 496.106,33.771 497.219,31.292L499.192,26.949L508.355,30.729L503.262,43.075L505.301,43.916ZM498.444,31.956C497.525,34 496.664,35.64 495.859,36.875C495.054,38.111 494.26,38.832 493.478,39.04L501.845,42.491L506.426,31.386L499.922,28.704L498.444,31.956Z" style="fill:white;fill-rule:nonzero;"/><path d="M534.185,58.552L533.543,59.733L524.413,54.763L531.441,41.852L540.294,46.671L539.652,47.851L532.163,43.775L529.663,48.368L536.34,52.002L535.708,53.164L529.031,49.53L526.42,54.325L534.185,58.552Z" style="fill:white;fill-rule:nonzero;"/><path d="M564.345,71.033L561.82,69.331L558.052,74.921L556.798,74.076L560.566,68.486L558.024,66.772L550.529,69.85L549.032,68.84L557.448,65.372L557.562,56.863L558.955,57.802L558.769,65.629L561.329,67.354L565.015,61.887L566.269,62.732L562.583,68.199L565.108,69.902L572.311,66.805L573.704,67.744L565.859,71.041L565.801,80.144L564.303,79.135L564.345,71.033Z" style="fill:white;fill-rule:nonzero;"/><path d="M591.224,90.308C591.817,91.107 592.126,91.925 592.152,92.763C592.177,93.601 591.909,94.36 591.347,95.04C590.804,95.698 590.122,96.107 589.302,96.264C588.481,96.422 587.622,96.353 586.723,96.056C585.825,95.759 584.976,95.281 584.177,94.621C583.421,93.997 582.78,93.263 582.251,92.418C581.723,91.574 581.368,90.668 581.186,89.701L582.332,89.203C582.481,90.034 582.783,90.824 583.237,91.571C583.691,92.318 584.242,92.959 584.89,93.494C585.505,94.002 586.152,94.373 586.831,94.606C587.51,94.84 588.152,94.903 588.758,94.795C589.365,94.687 589.873,94.385 590.283,93.888C590.827,93.23 590.986,92.509 590.762,91.724C590.538,90.94 589.956,90.161 589.017,89.385L586.588,87.38L587.39,86.408L589.755,88.36C590.554,89.02 591.317,89.364 592.046,89.394C592.775,89.424 593.389,89.137 593.888,88.532C594.441,87.863 594.589,87.1 594.333,86.244C594.078,85.389 593.518,84.604 592.654,83.891C592.114,83.446 591.505,83.074 590.825,82.776C590.145,82.478 589.427,82.28 588.672,82.183L589.083,80.861C590.758,81.119 592.249,81.787 593.556,82.865C594.322,83.498 594.921,84.202 595.353,84.976C595.785,85.75 595.996,86.523 595.985,87.295C595.974,88.067 595.71,88.766 595.193,89.392C594.694,89.996 594.097,90.379 593.401,90.54C592.706,90.701 591.98,90.624 591.224,90.308Z" style="fill:white;fill-rule:nonzero;"/><path d="M615.954,103.017L617.019,104.119L608.263,112.585L623.559,110.882L624.537,111.894L613.969,122.112L612.903,121.01L621.645,112.558L606.364,114.247L605.386,113.235L615.954,103.017Z" style="fill:white;fill-rule:nonzero;"/><path d="M639.981,128.919L640.952,130.106L631.524,137.818L646.909,137.388L647.799,138.477L636.421,147.784L635.45,146.598L644.862,138.9L629.494,139.316L628.603,138.226L639.981,128.919ZM644.693,132.988C644.028,132.175 643.687,131.382 643.67,130.61C643.653,129.837 643.97,129.175 644.622,128.623L645.354,129.517C644.929,129.883 644.721,130.324 644.729,130.842C644.736,131.361 644.957,131.885 645.392,132.416C645.817,132.936 646.285,133.254 646.796,133.37C647.307,133.486 647.783,133.372 648.226,133.028L648.957,133.922C648.287,134.452 647.573,134.629 646.814,134.454C646.056,134.278 645.349,133.79 644.693,132.988Z" style="fill:white;fill-rule:nonzero;"/><path d="M658.291,166.599L656.429,163.802L650.817,167.536L649.98,166.278L662.217,158.133L663.055,159.392L657.566,163.045L659.427,165.842L667.674,166.332L668.605,167.731L659.636,167.141L656.542,176.138L655.553,174.652L658.291,166.599Z" style="fill:white;fill-rule:nonzero;"/><path d="M685.787,197.736L672.797,204.617L672.08,203.263L683.882,197.01L680.559,190.738L676.138,192.89C674.312,193.778 672.79,194.398 671.574,194.749C670.358,195.101 669.356,195.184 668.569,194.999C667.782,194.814 667.182,194.331 666.769,193.552C666.592,193.218 666.452,192.849 666.348,192.444L667.632,191.906C667.694,192.143 667.778,192.36 667.882,192.558C668.171,193.102 668.622,193.43 669.235,193.541C669.848,193.652 670.655,193.553 671.656,193.244C672.657,192.936 673.923,192.416 675.452,191.685L681.118,188.921L685.787,197.736Z" style="fill:white;fill-rule:nonzero;"/><path d="M701.116,231.683L687.558,237.365L686.982,235.99L697.828,231.445L686.474,229.941L686.189,229.263L693.022,220.138L682.234,224.659L681.658,223.284L695.215,217.603L695.71,218.784L688.126,228.884L700.621,230.502L701.116,231.683Z" style="fill:white;fill-rule:nonzero;"/><path d="M711.838,263.964L697.748,268.154L697.311,266.684L703.813,264.751L701.191,255.935L694.689,257.868L694.246,256.378L708.336,252.189L708.779,253.678L702.499,255.546L705.121,264.362L711.401,262.495L711.838,263.964Z" style="fill:white;fill-rule:nonzero;"/><path d="M704.119,295.292C703.836,293.864 703.898,292.506 704.306,291.219C704.714,289.932 705.409,288.852 706.392,287.979C707.375,287.106 708.56,286.531 709.947,286.256C711.334,285.981 712.648,286.059 713.89,286.49C715.132,286.921 716.187,287.654 717.056,288.687C717.925,289.721 718.501,290.952 718.785,292.38C719.068,293.808 719.008,295.158 718.604,296.43C718.2,297.702 717.504,298.779 716.516,299.66C715.528,300.542 714.34,301.12 712.953,301.395C711.566,301.671 710.248,301.59 708.998,301.153C707.748,300.716 706.693,299.987 705.834,298.966C704.974,297.945 704.403,296.72 704.119,295.292ZM705.479,295.022C705.705,296.162 706.167,297.141 706.865,297.958C707.562,298.776 708.419,299.355 709.436,299.696C710.453,300.036 711.524,300.095 712.65,299.871C713.776,299.648 714.744,299.184 715.554,298.481C716.363,297.778 716.934,296.915 717.266,295.893C717.599,294.871 717.652,293.79 717.425,292.65C717.199,291.51 716.736,290.528 716.037,289.703C715.338,288.879 714.48,288.293 713.462,287.945C712.443,287.598 711.371,287.536 710.245,287.76C709.119,287.983 708.152,288.45 707.344,289.16C706.536,289.87 705.966,290.74 705.635,291.769C705.305,292.798 705.252,293.882 705.479,295.022Z" style="fill:white;fill-rule:nonzero;"/><path d="M724.452,333.625L709.821,335.044L709.673,333.518L722.966,332.229L722.068,322.969L708.774,324.259L708.626,322.733L723.258,321.313L724.452,333.625Z" style="fill:white;fill-rule:nonzero;"/><path d="M725.6,363.525C725.6,365.401 725.152,366.871 724.256,367.935C723.36,368.999 722.128,369.531 720.56,369.531C718.992,369.531 717.763,368.999 716.874,367.935C715.985,366.871 715.541,365.401 715.541,363.525L715.541,359.577L710.9,359.577L710.9,358.023L725.6,358.023L725.6,363.525ZM716.906,363.483C716.906,364.939 717.224,366.052 717.861,366.822C718.498,367.592 719.398,367.977 720.56,367.977C721.75,367.977 722.663,367.592 723.3,366.822C723.937,366.052 724.256,364.939 724.256,363.483L724.256,359.577L716.906,359.577L716.906,363.483Z" style="fill:white;fill-rule:nonzero;"/><path d="M708.467,402.95C708.636,401.504 709.109,400.238 709.884,399.152C710.66,398.066 711.653,397.259 712.863,396.731C714.074,396.203 715.381,396.021 716.786,396.186C718.19,396.35 719.42,396.829 720.476,397.622C721.532,398.415 722.312,399.433 722.815,400.676C723.318,401.919 723.484,403.264 723.315,404.71C723.188,405.794 722.89,406.774 722.421,407.65C721.952,408.525 721.333,409.242 720.563,409.8L719.697,408.705C720.985,407.7 721.73,406.328 721.934,404.59C722.069,403.436 721.927,402.355 721.51,401.348C721.092,400.341 720.456,399.515 719.601,398.873C718.745,398.23 717.748,397.842 716.608,397.708C715.467,397.575 714.407,397.722 713.427,398.15C712.446,398.578 711.637,399.234 710.997,400.117C710.358,401.001 709.971,402.02 709.836,403.174C709.631,404.926 710.047,406.434 711.083,407.697L709.988,408.562C709.367,407.841 708.927,406.997 708.667,406.029C708.407,405.061 708.34,404.035 708.467,402.95Z" style="fill:white;fill-rule:nonzero;"/><path d="M715.198,443.728L716.246,438.67L703.168,435.96L703.479,434.459L716.557,437.168L717.605,432.11L718.921,432.383L716.514,444.001L715.198,443.728Z" style="fill:white;fill-rule:nonzero;"/><path d="M706.631,479.036L696.813,468.976C696.113,468.259 695.654,467.533 695.436,466.797C695.219,466.062 695.222,465.334 695.447,464.612C695.614,464.077 695.921,463.542 696.366,463.007L697.438,463.803C697.101,464.226 696.869,464.638 696.744,465.039C696.456,465.961 696.722,466.872 697.541,467.773L698.097,468.387L710.679,466.066L710.185,467.649L699.156,469.575L707.094,477.552L706.631,479.036Z" style="fill:white;fill-rule:nonzero;"/><path d="M686.254,510.713C684.463,509.954 683.324,508.722 682.837,507.018C682.351,505.314 682.559,503.307 683.461,500.999L682.069,500.408L682.635,499.074L684.027,499.664C685.071,497.416 686.372,495.872 687.928,495.034C689.485,494.197 691.159,494.157 692.951,494.917C694.742,495.676 695.878,496.907 696.358,498.608C696.838,500.309 696.633,502.317 695.744,504.631L697.097,505.205L696.531,506.539L695.178,505.965C694.139,508.201 692.837,509.74 691.271,510.582C689.705,511.423 688.033,511.467 686.254,510.713ZM684.602,501.482C683.887,503.384 683.72,505.016 684.1,506.379C684.481,507.741 685.393,508.728 686.836,509.34C688.28,509.952 689.625,509.918 690.871,509.238C692.118,508.557 693.167,507.302 694.018,505.474L684.602,501.482ZM692.369,496.29C690.925,495.678 689.583,495.713 688.343,496.396C687.103,497.08 686.045,498.33 685.168,500.148L694.583,504.14C695.304,502.225 695.476,500.591 695.099,499.238C694.722,497.884 693.812,496.902 692.369,496.29Z" style="fill:white;fill-rule:nonzero;"/><path d="M682.845,533.831L675.738,534.723L678.861,541.155L677.988,542.76L674.188,534.979L664.885,536.086L665.758,534.481L673.488,533.498L670.112,526.475L670.965,524.907L675.046,533.27L683.698,532.263L682.845,533.831Z" style="fill:white;fill-rule:nonzero;"/><path d="M646.706,566.892L642.743,564.205L643.556,563.006L646.406,564.938L653.606,554.317L665.774,562.566L664.914,563.835L653.858,556.34L648.874,563.693L659.929,571.187L659.069,572.456L648.014,564.962L646.706,566.892Z" style="fill:white;fill-rule:nonzero;"/><path d="M637.521,599.926L626.281,590.452L627.256,589.295L631.912,593.22C632.416,591.558 633.151,590.154 634.117,589.009C635.226,587.692 636.412,586.938 637.672,586.746C638.932,586.554 640.14,586.945 641.297,587.92L645.006,591.046L644.018,592.218L640.437,589.2C639.57,588.469 638.665,588.174 637.724,588.314C636.782,588.454 635.896,589.016 635.066,590.001C634.118,591.125 633.42,592.496 632.972,594.114L638.496,598.769L637.521,599.926Z" style="fill:white;fill-rule:nonzero;"/><path d="M610.383,628.264L600.088,617.772L612.948,605.152L623.244,615.644L622.15,616.718L612.795,607.185L607.999,611.892L617.353,621.425L616.259,622.498L606.905,612.965L602.123,617.657L611.478,627.19L610.383,628.264Z" style="fill:white;fill-rule:nonzero;"/><path d="M583.498,650.985L574.283,639.532L588.321,628.237L597.536,639.69L596.342,640.651L587.969,630.245L582.734,634.458L591.106,644.864L589.912,645.825L581.539,635.419L576.32,639.618L584.693,650.024L583.498,650.985ZM573.342,642.014L570.433,638.398L571.562,637.49L573.629,640.059L575.494,638.558L576.337,639.605L573.342,642.014Z" style="fill:white;fill-rule:nonzero;"/><path d="M556.836,663.221C555.384,664.174 554.063,664.571 552.872,664.415C551.681,664.258 550.671,663.548 549.842,662.283C548.975,660.96 548.723,659.69 549.087,658.471C549.452,657.253 550.401,656.141 551.935,655.135L556.799,651.945L564.123,663.113L567.952,660.603L568.689,661.727L563.578,665.078L560.699,660.688L556.836,663.221ZM552.632,656.16C551.496,656.904 550.798,657.722 550.537,658.613C550.276,659.504 550.468,660.442 551.112,661.425C552.349,663.31 554.126,663.492 556.444,661.972L560.008,659.634L556.196,653.822L552.632,656.16Z" style="fill:white;fill-rule:nonzero;"/><path d="M530.15,678.847C528.614,679.656 527.258,679.928 526.081,679.661C524.905,679.395 523.964,678.594 523.259,677.256C522.521,675.856 522.392,674.567 522.871,673.389C523.35,672.211 524.401,671.195 526.023,670.34L531.188,667.618L538.041,680.623L536.685,681.337L534.237,676.693L530.15,678.847ZM526.638,671.416C525.437,672.049 524.664,672.797 524.319,673.659C523.974,674.521 524.076,675.472 524.624,676.513C525.675,678.507 527.426,678.858 529.879,677.565L533.65,675.578L530.409,669.429L526.638,671.416ZM525.612,687.172L524.256,687.887L517.403,674.882L518.759,674.168L525.612,687.172Z" style="fill:white;fill-rule:nonzero;"/><path d="M495.916,694.711C494.306,695.358 492.929,695.49 491.785,695.105C490.642,694.72 489.788,693.826 489.224,692.423C488.633,690.955 488.637,689.66 489.234,688.537C489.831,687.414 490.98,686.51 492.682,685.826L498.098,683.647L503.584,697.285L502.162,697.857L500.202,692.986L495.916,694.711ZM493.183,686.96C491.923,687.466 491.078,688.131 490.646,688.953C490.215,689.776 490.219,690.732 490.658,691.823C491.499,693.915 493.205,694.443 495.777,693.408L499.732,691.818L497.138,685.369L493.183,686.96Z" style="fill:white;fill-rule:nonzero;"/><path d="M466.678,710.59C465.364,710.983 464.081,711.031 462.83,710.733C461.58,710.435 460.485,709.831 459.548,708.921C458.611,708.01 457.939,706.878 457.534,705.523C457.128,704.168 457.067,702.853 457.35,701.577C457.634,700.302 458.216,699.196 459.098,698.26C459.979,697.324 461.077,696.659 462.392,696.266C463.492,695.936 464.55,695.81 465.566,695.886C466.582,695.961 467.501,696.249 468.323,696.748L467.681,697.971C466.23,697.177 464.62,697.045 462.849,697.575C461.857,697.872 461.021,698.375 460.341,699.082C459.662,699.79 459.192,700.625 458.931,701.586C458.671,702.548 458.66,703.549 458.898,704.589L466.161,702.415L466.528,703.642L459.286,705.81C459.686,706.757 460.253,707.541 460.987,708.161C461.72,708.782 462.555,709.19 463.49,709.385C464.425,709.58 465.376,709.533 466.341,709.244C468.112,708.714 469.385,707.719 470.161,706.26L471.37,706.928C470.957,707.797 470.347,708.542 469.54,709.164C468.732,709.785 467.778,710.261 466.678,710.59Z" style="fill:white;fill-rule:nonzero;"/><path d="M428.306,719.813C426.945,720.075 425.654,719.996 424.432,719.575C423.211,719.154 422.18,718.444 421.338,717.444C420.497,716.443 419.943,715.249 419.676,713.861C419.409,712.472 419.48,711.157 419.89,709.917C420.3,708.676 420.994,707.633 421.973,706.789C422.951,705.945 424.12,705.392 425.481,705.131C426.774,704.882 428.005,704.944 429.174,705.318C430.344,705.692 431.351,706.332 432.196,707.239C433.04,708.146 433.628,709.237 433.959,710.514L436.929,709.942L435.651,703.302L437.156,703.013L439.934,717.448L438.428,717.738L437.194,711.324L434.204,711.899C434.335,713.172 434.17,714.369 433.708,715.491C433.247,716.614 432.548,717.554 431.61,718.312C430.672,719.069 429.571,719.57 428.306,719.813ZM425.743,706.492C424.671,706.698 423.751,707.142 422.984,707.824C422.217,708.507 421.674,709.349 421.353,710.351C421.033,711.354 420.983,712.426 421.202,713.567C421.422,714.708 421.866,715.685 422.536,716.497C423.205,717.309 424.023,717.889 424.988,718.238C425.953,718.587 426.972,718.659 428.044,718.452C429.103,718.249 430.016,717.806 430.783,717.123C431.55,716.441 432.093,715.599 432.414,714.596C432.734,713.594 432.784,712.522 432.565,711.381C432.345,710.24 431.901,709.263 431.231,708.451C430.562,707.639 429.744,707.058 428.779,706.709C427.814,706.361 426.802,706.288 425.743,706.492Z" style="fill:white;fill-rule:nonzero;"/><path d="M390.831,724.565L389.499,709.926L391.026,709.787L391.429,714.221L395.8,713.823C395.995,713.805 396.275,713.794 396.641,713.789L399.308,709.033L400.96,708.883L398.066,713.933C399.169,714.156 400.044,714.649 400.689,715.413C401.335,716.176 401.712,717.151 401.82,718.336C401.97,719.981 401.566,721.304 400.61,722.305C399.654,723.306 398.291,723.887 396.52,724.048L390.831,724.565ZM400.276,718.519C400.167,717.319 399.731,716.428 398.968,715.844C398.205,715.259 397.147,715.029 395.795,715.152L391.549,715.538L392.236,723.088L396.335,722.715C397.702,722.591 398.728,722.17 399.415,721.454C400.102,720.738 400.389,719.759 400.276,718.519Z" style="fill:white;fill-rule:nonzero;"/><path d="M356.598,714.819L364.788,714.819L366.552,710.892L368.169,710.892L361.449,725.592L359.916,725.592L353.196,710.892L354.834,710.892L356.598,714.819ZM357.165,716.079L360.693,723.975L364.221,716.079L357.165,716.079Z" style="fill:white;fill-rule:nonzero;"/><path d="M330.369,724.175L319.678,723.036L319.818,721.72L328.985,722.697L329.494,717.915L324.712,717.405C322.986,717.222 321.712,716.727 320.89,715.921C320.067,715.116 319.728,714.038 319.872,712.687C320.022,711.281 320.62,710.254 321.668,709.605C322.716,708.956 324.144,708.728 325.954,708.921L331.926,709.557L330.369,724.175ZM325.844,710.155C324.493,710.012 323.446,710.161 322.702,710.602C321.958,711.044 321.532,711.773 321.424,712.789C321.317,713.792 321.575,714.576 322.198,715.142C322.82,715.708 323.82,716.064 325.199,716.211L329.626,716.683L330.271,710.627L325.844,710.155Z" style="fill:white;fill-rule:nonzero;"/><path d="M288.411,710.585C287.452,710.175 286.773,709.618 286.373,708.915C285.974,708.212 285.872,707.38 286.068,706.42C286.323,705.172 286.962,704.302 287.984,703.811C289.006,703.319 290.374,703.249 292.089,703.599L298.467,704.901L295.526,719.304L289.538,718.081C288.002,717.768 286.866,717.207 286.131,716.4C285.395,715.592 285.15,714.592 285.393,713.398C285.559,712.589 285.904,711.949 286.429,711.477C286.954,711.006 287.615,710.708 288.411,710.585ZM295.356,712.475L290.952,711.576C289.841,711.349 288.941,711.401 288.252,711.732C287.563,712.062 287.13,712.66 286.954,713.524C286.777,714.388 286.941,715.108 287.445,715.682C287.95,716.257 288.757,716.657 289.868,716.884L294.272,717.783L295.356,712.475ZM291.841,704.813C289.358,704.306 287.927,704.978 287.549,706.83C287.18,708.641 288.236,709.799 290.719,710.306L295.595,711.302L296.717,705.809L291.841,704.813Z" style="fill:white;fill-rule:nonzero;"/><path d="M250.773,706.442L258.261,708.741L262.162,695.967L263.627,696.417L259.312,710.47L250.379,707.727L250.773,706.442Z" style="fill:white;fill-rule:nonzero;"/><path d="M220.743,682.061L222.533,677.78L223.87,678.339L222.598,681.38L234.436,686.331L235.727,683.297L237.064,683.857L235.254,688.13L234.576,687.846C233.663,687.525 232.747,687.973 231.829,689.19C230.91,690.407 229.888,692.252 228.763,694.725L226.768,699.058L217.624,695.234L222.777,682.912L220.743,682.061ZM227.541,694.055C228.469,692.015 229.339,690.38 230.15,689.148C230.961,687.917 231.758,687.199 232.541,686.996L224.191,683.503L219.557,694.585L226.047,697.3L227.541,694.055Z" style="fill:white;fill-rule:nonzero;"/><path d="M191.799,667.452L192.439,666.27L201.578,671.223L194.574,684.147L185.712,679.344L186.353,678.163L193.848,682.225L196.34,677.628L189.656,674.006L190.287,672.843L196.97,676.465L199.572,671.664L191.799,667.452Z" style="fill:white;fill-rule:nonzero;"/><path d="M161.653,654.968L164.179,656.669L167.944,651.077L169.198,651.921L165.434,657.513L167.977,659.225L175.469,656.143L176.968,657.151L168.553,660.626L168.445,669.135L167.052,668.196L167.232,660.369L164.671,658.645L160.989,664.116L159.735,663.271L163.417,657.801L160.891,656.101L153.69,659.202L152.296,658.264L160.139,654.962L160.191,645.858L161.69,646.867L161.653,654.968Z" style="fill:white;fill-rule:nonzero;"/><path d="M134.772,635.697C134.176,634.9 133.865,634.083 133.837,633.245C133.809,632.407 134.075,631.647 134.634,630.965C135.176,630.305 135.857,629.895 136.677,629.735C137.496,629.574 138.356,629.641 139.255,629.936C140.155,630.23 141.005,630.706 141.806,631.363C142.563,631.985 143.207,632.717 143.738,633.56C144.269,634.403 144.626,635.308 144.811,636.275L143.667,636.775C143.515,635.945 143.211,635.156 142.755,634.411C142.299,633.665 141.746,633.025 141.096,632.492C140.479,631.986 139.831,631.617 139.152,631.386C138.473,631.154 137.83,631.093 137.224,631.203C136.618,631.312 136.111,631.616 135.702,632.114C135.161,632.774 135.003,633.496 135.229,634.279C135.456,635.062 136.04,635.84 136.981,636.613L139.416,638.611L138.617,639.585L136.247,637.64C135.446,636.983 134.681,636.641 133.952,636.613C133.223,636.585 132.61,636.875 132.113,637.481C131.562,638.152 131.416,638.915 131.674,639.769C131.933,640.624 132.495,641.407 133.36,642.118C133.901,642.562 134.512,642.932 135.193,643.228C135.874,643.524 136.592,643.719 137.347,643.814L136.94,645.137C135.264,644.884 133.771,644.221 132.462,643.146C131.694,642.516 131.092,641.814 130.658,641.041C130.224,640.268 130.011,639.496 130.019,638.724C130.028,637.952 130.29,637.252 130.805,636.625C131.302,636.019 131.899,635.634 132.594,635.471C133.289,635.308 134.015,635.383 134.772,635.697Z" style="fill:white;fill-rule:nonzero;"/><path d="M110.171,622.991L109.09,621.904L117.732,613.32L102.46,615.229L101.469,614.231L111.898,603.871L112.979,604.959L104.352,613.528L119.609,611.634L120.6,612.632L110.171,622.991Z" style="fill:white;fill-rule:nonzero;"/><path d="M86.036,597.083L85.063,595.898L94.476,588.169L79.093,588.628L78.2,587.54L89.561,578.212L90.534,579.396L81.137,587.112L96.504,586.667L97.397,587.755L86.036,597.083ZM81.317,593.024C81.983,593.835 82.326,594.627 82.344,595.4C82.363,596.173 82.047,596.836 81.395,597.388L80.662,596.496C81.086,596.13 81.294,595.687 81.285,595.169C81.276,594.651 81.054,594.127 80.619,593.597C80.193,593.077 79.724,592.76 79.213,592.646C78.702,592.531 78.226,592.646 77.784,592.99L77.051,592.097C77.72,591.566 78.434,591.388 79.193,591.562C79.951,591.736 80.659,592.223 81.317,593.024Z" style="fill:white;fill-rule:nonzero;"/><path d="M67.71,559.402L69.568,562.201L75.184,558.473L76.021,559.733L63.774,567.863L62.938,566.604L68.431,562.956L66.573,560.157L58.326,559.658L57.397,558.259L66.365,558.858L69.469,549.865L70.457,551.352L67.71,559.402Z" style="fill:white;fill-rule:nonzero;"/><path d="M40.209,528.281L53.185,521.375L53.906,522.728L42.116,529.003L45.451,535.269L49.868,533.108C51.693,532.216 53.213,531.594 54.428,531.24C55.643,530.886 56.645,530.801 57.433,530.985C58.22,531.168 58.821,531.649 59.235,532.428C59.413,532.762 59.554,533.131 59.658,533.535L58.376,534.075C58.313,533.839 58.229,533.622 58.124,533.424C57.835,532.88 57.383,532.553 56.77,532.444C56.156,532.334 55.349,532.435 54.349,532.745C53.349,533.056 52.084,533.578 50.556,534.312L44.896,537.087L40.209,528.281Z" style="fill:white;fill-rule:nonzero;"/><path d="M24.917,494.247L38.517,488.667L39.083,490.047L28.203,494.51L39.546,496.099L39.825,496.779L32.924,505.852L43.746,501.412L44.312,502.792L30.712,508.371L30.226,507.186L37.886,497.143L25.403,495.432L24.917,494.247Z" style="fill:white;fill-rule:nonzero;"/><path d="M14.147,462.069L28.22,457.824L28.663,459.291L22.169,461.25L24.825,470.056L31.319,468.097L31.768,469.585L17.695,473.831L17.246,472.343L23.519,470.451L20.862,461.645L14.589,463.537L14.147,462.069Z" style="fill:white;fill-rule:nonzero;"/><path d="M21.885,430.728C22.165,432.157 22.099,433.514 21.687,434.801C21.276,436.087 20.578,437.165 19.593,438.036C18.608,438.906 17.421,439.477 16.034,439.749C14.646,440.021 13.332,439.939 12.091,439.505C10.851,439.07 9.797,438.335 8.931,437.299C8.065,436.263 7.492,435.031 7.212,433.602C6.932,432.173 6.995,430.823 7.403,429.552C7.81,428.281 8.509,427.207 9.5,426.328C10.49,425.449 11.679,424.874 13.067,424.602C14.454,424.33 15.773,424.414 17.022,424.854C18.271,425.295 19.323,426.026 20.18,427.05C21.037,428.073 21.605,429.299 21.885,430.728ZM20.525,430.995C20.301,429.854 19.842,428.874 19.146,428.055C18.451,427.235 17.595,426.654 16.579,426.311C15.563,425.967 14.492,425.906 13.366,426.127C12.239,426.348 11.27,426.808 10.459,427.509C9.647,428.21 9.074,429.072 8.739,430.093C8.404,431.115 8.348,432.195 8.572,433.336C8.795,434.476 9.255,435.459 9.952,436.286C10.649,437.112 11.506,437.701 12.523,438.051C13.54,438.401 14.612,438.465 15.739,438.245C16.866,438.024 17.834,437.56 18.644,436.852C19.454,436.144 20.026,435.276 20.359,434.248C20.693,433.219 20.748,432.135 20.525,430.995Z" style="fill:white;fill-rule:nonzero;"/><path d="M1.536,392.392L16.164,390.94L16.316,392.466L3.025,393.784L3.943,403.042L17.234,401.723L17.385,403.249L2.757,404.7L1.536,392.392Z" style="fill:white;fill-rule:nonzero;"/><path d="M0.4,362.475C0.4,360.599 0.848,359.129 1.744,358.065C2.64,357.001 3.872,356.469 5.44,356.469C7.008,356.469 8.237,357.001 9.126,358.065C10.015,359.129 10.459,360.599 10.459,362.475L10.459,366.423L15.1,366.423L15.1,367.977L0.4,367.977L0.4,362.475ZM9.094,362.517C9.094,361.061 8.776,359.948 8.139,359.178C7.502,358.408 6.602,358.023 5.44,358.023C4.25,358.023 3.337,358.408 2.7,359.178C2.063,359.948 1.744,361.061 1.744,362.517L1.744,366.423L9.094,366.423L9.094,362.517Z" style="fill:white;fill-rule:nonzero;"/><path d="M17.529,322.98C17.372,324.428 16.911,325.698 16.144,326.791C15.378,327.884 14.392,328.699 13.186,329.238C11.98,329.776 10.675,329.969 9.269,329.817C7.863,329.664 6.629,329.196 5.566,328.412C4.503,327.628 3.715,326.617 3.201,325.379C2.688,324.14 2.509,322.797 2.666,321.35C2.784,320.264 3.073,319.281 3.534,318.402C3.996,317.522 4.609,316.8 5.374,316.235L6.249,317.323C4.971,318.339 4.237,319.717 4.048,321.457C3.923,322.612 4.074,323.692 4.5,324.695C4.927,325.699 5.57,326.519 6.431,327.154C7.292,327.789 8.292,328.169 9.434,328.293C10.575,328.416 11.634,328.26 12.611,327.823C13.587,327.387 14.391,326.724 15.023,325.835C15.654,324.946 16.033,323.924 16.158,322.768C16.348,321.015 15.919,319.511 14.872,318.257L15.959,317.382C16.586,318.097 17.034,318.938 17.302,319.903C17.571,320.869 17.646,321.895 17.529,322.98Z" style="fill:white;fill-rule:nonzero;"/><path d="M10.827,282.256L9.761,287.311L22.829,290.069L22.512,291.569L9.444,288.811L8.377,293.865L7.062,293.588L9.512,281.978L10.827,282.256Z" style="fill:white;fill-rule:nonzero;"/><path d="M19.404,246.946L29.181,257.045C29.878,257.765 30.334,258.493 30.549,259.229C30.764,259.966 30.757,260.694 30.529,261.415C30.36,261.949 30.052,262.482 29.604,263.016L28.535,262.215C28.874,261.794 29.107,261.383 29.234,260.983C29.526,260.062 29.264,259.149 28.449,258.245L27.895,257.629L15.303,259.9L15.804,258.318L26.84,256.437L18.935,248.428L19.404,246.946Z" style="fill:white;fill-rule:nonzero;"/><path d="M39.77,215.299C41.559,216.064 42.694,217.299 43.176,219.005C43.657,220.71 43.442,222.716 42.533,225.022L43.923,225.616L43.353,226.949L41.963,226.354C40.911,228.6 39.606,230.139 38.047,230.972C36.488,231.805 34.814,231.839 33.024,231.074C31.235,230.309 30.103,229.075 29.628,227.372C29.154,225.669 29.365,223.662 30.262,221.351L28.91,220.773L29.48,219.441L30.831,220.018C31.877,217.786 33.184,216.251 34.753,215.414C36.321,214.578 37.993,214.539 39.77,215.299ZM41.393,224.535C42.114,222.635 42.287,221.003 41.91,219.64C41.534,218.276 40.625,217.286 39.184,216.67C37.742,216.053 36.397,216.083 35.148,216.76C33.9,217.436 32.847,218.688 31.99,220.514L41.393,224.535ZM33.611,229.703C35.052,230.319 36.394,230.288 37.636,229.609C38.878,228.929 39.941,227.682 40.824,225.867L31.42,221.846C30.694,223.759 30.517,225.392 30.889,226.747C31.262,228.101 32.169,229.087 33.611,229.703Z" style="fill:white;fill-rule:nonzero;"/><path d="M43.154,192.149L50.263,191.275L47.156,184.835L48.033,183.232L51.814,191.022L61.12,189.938L60.243,191.541L52.511,192.505L55.868,199.537L55.011,201.102L50.952,192.729L42.297,193.715L43.154,192.149Z" style="fill:white;fill-rule:nonzero;"/><path d="M79.31,159.159L83.259,161.866L82.44,163.062L79.599,161.114L72.345,171.698L60.22,163.387L61.087,162.122L72.103,169.674L77.125,162.346L66.109,154.795L66.975,153.531L77.992,161.082L79.31,159.159Z" style="fill:white;fill-rule:nonzero;"/><path d="M88.449,126.081L99.722,135.515L98.752,136.675L94.082,132.767C93.583,134.431 92.854,135.837 91.892,136.986C90.787,138.307 89.605,139.065 88.345,139.262C87.085,139.458 85.876,139.071 84.716,138.101L80.996,134.988L81.98,133.812L85.571,136.817C86.441,137.545 87.346,137.837 88.288,137.694C89.229,137.551 90.113,136.985 90.94,135.997C91.883,134.87 92.576,133.497 93.019,131.877L87.478,127.241L88.449,126.081Z" style="fill:white;fill-rule:nonzero;"/><path d="M115.656,97.742L125.915,108.27L113.01,120.844L102.751,110.316L103.849,109.246L113.17,118.812L117.983,114.122L108.662,104.556L109.76,103.487L119.081,113.053L123.879,108.378L114.558,98.812L115.656,97.742Z" style="fill:white;fill-rule:nonzero;"/><path d="M142.514,75.018L151.716,86.481L137.665,97.76L128.463,86.297L129.659,85.337L138.019,95.753L143.26,91.546L134.899,81.13L136.095,80.171L144.455,90.586L149.679,86.393L141.319,75.977L142.514,75.018ZM152.66,84L155.565,87.62L154.435,88.527L152.371,85.956L150.504,87.454L149.663,86.406L152.66,84Z" style="fill:white;fill-rule:nonzero;"/><path d="M169.165,62.779C170.617,61.828 171.939,61.431 173.13,61.588C174.32,61.745 175.33,62.456 176.159,63.72C177.026,65.044 177.277,66.314 176.912,67.533C176.546,68.751 175.597,69.863 174.063,70.868L169.197,74.056L161.878,62.884L158.048,65.392L157.312,64.268L162.424,60.919L165.301,65.311L169.165,62.779ZM173.366,69.843C174.502,69.099 175.201,68.281 175.462,67.39C175.724,66.499 175.532,65.562 174.888,64.578C173.653,62.693 171.876,62.51 169.557,64.029L165.991,66.365L169.8,72.179L173.366,69.843Z" style="fill:white;fill-rule:nonzero;"/><path d="M195.849,47.157C197.383,46.345 198.739,46.071 199.916,46.335C201.093,46.599 202.035,47.399 202.743,48.736C203.483,50.134 203.614,51.423 203.137,52.602C202.661,53.781 201.612,54.799 199.991,55.657L194.831,58.388L187.954,45.395L189.309,44.678L191.765,49.319L195.849,47.157ZM199.374,54.582C200.574,53.946 201.346,53.197 201.689,52.335C202.033,51.472 201.929,50.521 201.379,49.481C200.325,47.489 198.572,47.141 196.122,48.438L192.355,50.432L195.606,56.576L199.374,54.582ZM200.372,38.824L201.726,38.106L208.603,51.099L207.248,51.816L200.372,38.824Z" style="fill:white;fill-rule:nonzero;"/><path d="M230.072,31.286C231.678,30.629 233.054,30.489 234.2,30.867C235.346,31.245 236.205,32.134 236.778,33.533C237.377,34.997 237.382,36.292 236.792,37.419C236.202,38.545 235.058,39.456 233.361,40.151L227.958,42.363L222.388,28.759L223.807,28.179L225.796,33.037L230.072,31.286ZM232.853,39.02C234.109,38.506 234.951,37.836 235.377,37.011C235.803,36.186 235.793,35.229 235.348,34.141C234.494,32.055 232.784,31.537 230.219,32.588L226.274,34.203L228.907,40.636L232.853,39.02Z" style="fill:white;fill-rule:nonzero;"/><path d="M259.336,15.403C260.651,15.013 261.934,14.968 263.184,15.269C264.435,15.569 265.527,16.176 266.463,17.089C267.398,18.001 268.067,19.135 268.469,20.491C268.871,21.846 268.93,23.162 268.644,24.437C268.358,25.712 267.773,26.816 266.889,27.75C266.005,28.685 264.906,29.347 263.59,29.737C262.49,30.064 261.431,30.188 260.415,30.11C259.399,30.032 258.481,29.742 257.66,29.241L258.305,28.02C259.754,28.817 261.364,28.952 263.136,28.426C264.129,28.132 264.966,27.631 265.647,26.925C266.329,26.219 266.8,25.385 267.063,24.424C267.325,23.463 267.338,22.462 267.103,21.422L259.835,23.579L259.471,22.351L266.718,20.2C266.32,19.252 265.755,18.467 265.022,17.845C264.29,17.222 263.456,16.813 262.522,16.615C261.587,16.418 260.636,16.463 259.67,16.75C257.898,17.276 256.623,18.267 255.844,19.725L254.637,19.054C255.051,18.186 255.663,17.443 256.472,16.823C257.281,16.203 258.236,15.73 259.336,15.403Z" style="fill:white;fill-rule:nonzero;"/><path d="M297.665,6.181C299.025,5.914 300.316,5.988 301.54,6.404C302.763,6.82 303.797,7.527 304.642,8.524C305.487,9.521 306.045,10.713 306.318,12.1C306.591,13.488 306.524,14.803 306.119,16.045C305.714,17.287 305.024,18.332 304.049,19.18C303.074,20.028 301.907,20.585 300.547,20.853C299.255,21.106 298.024,21.048 296.853,20.679C295.682,20.31 294.672,19.674 293.824,18.77C292.976,17.867 292.384,16.777 292.048,15.502L289.081,16.085L290.384,22.72L288.88,23.016L286.047,8.591L287.551,8.296L288.81,14.705L291.798,14.118C291.662,12.846 291.823,11.648 292.279,10.524C292.736,9.4 293.432,8.457 294.367,7.695C295.302,6.934 296.401,6.429 297.665,6.181ZM300.28,19.493C301.351,19.282 302.269,18.834 303.033,18.149C303.798,17.464 304.338,16.62 304.654,15.616C304.971,14.612 305.017,13.54 304.793,12.4C304.569,11.259 304.121,10.285 303.448,9.475C302.776,8.666 301.956,8.088 300.989,7.743C300.023,7.398 299.004,7.331 297.932,7.541C296.874,7.749 295.963,8.195 295.199,8.88C294.435,9.566 293.894,10.41 293.578,11.414C293.261,12.418 293.215,13.49 293.439,14.63C293.663,15.77 294.111,16.745 294.784,17.554C295.457,18.364 296.276,18.941 297.243,19.287C298.21,19.632 299.222,19.7 300.28,19.493Z" style="fill:white;fill-rule:nonzero;"/><path d="M335.142,1.418L336.528,16.052L335.002,16.197L334.582,11.765L330.212,12.179C330.017,12.197 329.737,12.21 329.372,12.216L326.723,16.981L325.071,17.138L327.946,12.077C326.842,11.858 325.966,11.368 325.317,10.607C324.669,9.845 324.288,8.872 324.176,7.688C324.02,6.043 324.419,4.719 325.371,3.714C326.324,2.71 327.685,2.124 329.455,1.956L335.142,1.418ZM325.719,7.499C325.833,8.698 326.272,9.588 327.037,10.17C327.802,10.751 328.861,10.978 330.213,10.85L334.457,10.448L333.742,2.9L329.644,3.289C328.279,3.418 327.254,3.842 326.569,4.561C325.885,5.279 325.602,6.259 325.719,7.499Z" style="fill:white;fill-rule:nonzero;"/></g></svg>