<?xml version="1.0" encoding="UTF-8" standalone="no"?><!DOCTYPE svg PUBLIC "-//W3C//DTD SVG 1.1//EN" "http://www.w3.org/Graphics/SVG/1.1/DTD/svg11.dtd"><svg width="100%" height="100%" viewBox="0 0 1920 1080" version="1.1" xmlns="http://www.w3.org/2000/svg" xmlns:xlink="http://www.w3.org/1999/xlink" xml:space="preserve" xmlns:serif="http://www.serif.com/" style="fill-rule:evenodd;clip-rule:evenodd;stroke-linejoin:round;stroke-miterlimit:2;"><rect x="0" y="0" width="1920" height="1080" style="fill:rgb(24,18,18);"/><path id="bg1" d="M951.375,495.026L956.379,490.023L920.873,0L999.127,0L963.621,490.023L968.625,495.026L1063.56,0L1147.46,0L973.812,500.213L977.496,503.898L1221.69,0L1326.22,0L981.66,508.062L984.857,511.259L1427.03,0L1584.37,0L988.741,515.143L991.938,518.34L1756.25,0L1920,0L1920,74.766L996.102,522.504L999.787,526.188L1920,206.739L1920,355.903L1004.97,531.375L1009.98,536.379L1920,470.44L1920,609.56L1009.98,543.621L1004.97,548.625L1920,724.097L1920,873.261L999.787,553.812L996.102,557.496L1920,1005.23L1920,1080L1756.25,1080L991.938,561.66L988.741,564.857L1584.37,1080L1427.03,1080L984.857,568.741L981.66,571.938L1326.22,1080L1221.69,1080L977.496,576.102L973.812,579.787L1147.46,1080L1063.56,1080L968.625,584.974L963.621,589.977L999.127,1080L920.873,1080L956.379,589.977L951.375,584.974L856.445,1080L772.54,1080L946.188,579.787L942.504,576.102L698.306,1080L593.783,1080L938.34,571.938L935.143,568.741L492.968,1080L335.632,1080L931.259,564.857L928.062,561.66L163.75,1080L-0,1080L0,1005.23L923.898,557.496L920.213,553.812L0,873.261L0,724.097L915.026,548.625L910.023,543.621L0,609.56L0,470.44L910.023,536.379L915.026,531.375L0,355.903L0,206.739L920.213,526.188L923.898,522.504L0,74.766L0,0L163.75,0L928.062,518.34L931.259,515.143L335.632,0L492.968,0L935.143,511.259L938.34,508.062L593.783,0L698.306,0L942.504,503.898L946.188,500.213L772.54,0L856.445,0L951.375,495.026Z" style="fill:rgb(36,30,30);fill-opacity:0.25;"/><circle id="bg2" cx="960" cy="540" r="161.717" style="fill:url(#_Radial1);"/><defs><radialGradient id="_Radial1" cx="0" cy="0" r="1" gradientUnits="userSpaceOnUse" gradientTransform="matrix(161.717,0,0,161.717,960,540)"><stop offset="0" style="stop-color:rgb(36,30,30);stop-opacity:1"/><stop offset="0.6" style="stop-color:rgb(36,30,30);stop-opacity:0.823529"/><stop offset="0.81" style="stop-color:rgb(36,30,30);stop-opacity:0.419608"/><stop offset="1" style="stop-color:rgb(36,30,30);stop-opacity:0"/></radialGradient></defs></svg>