<?xml version="1.0" encoding="UTF-8" standalone="no"?><!DOCTYPE svg PUBLIC "-//W3C//DTD SVG 1.1//EN" "http://www.w3.org/Graphics/SVG/1.1/DTD/svg11.dtd"><svg width="100%" height="100%" viewBox="0 0 40 40" version="1.1" xmlns="http://www.w3.org/2000/svg" xmlns:xlink="http://www.w3.org/1999/xlink" xml:space="preserve" xmlns:serif="http://www.serif.com/" style="fill-rule:evenodd;clip-rule:evenodd;stroke-linejoin:round;stroke-miterlimit:2;"><g id="player-close"><path d="M40,31L0,31L0,40L37,40L37,37L40,37L40,31Z" style="fill:rgb(65,59,50);"/><path d="M40,0L0,0L0,34L37,34L37,31L40,31L40,0Z" style="fill:rgb(86,78,67);"/><path d="M37,34L37,31L40,31L40,0L37,0L37,31L0,31L0,34L37,34Z" style="fill:rgb(128,122,110);"/><path d="M8,7L8,10L11,10L11,13L14,13L14,19L8,25L8,28L11,28L11,25L14,25L14,22L17,22L17,19L20,19L20,22L23,22L23,25L26,25L26,28L29,28L29,25L23,19L23,13L26,13L26,10L29,10L29,7L26,7L20,13L17,13L11,7L8,7Z" style="fill:rgb(65,59,50);"/><path d="M11,22L8,22L8,25L11,25L11,22ZM26,22L29,22L29,25L26,25L26,22ZM14,19L11,19L11,22L14,22L14,19ZM23,19L26,19L26,22L23,22L23,19ZM17,16L14,16L14,19L17,19L17,16ZM20,16L23,16L23,19L20,19L20,16ZM20,16L20,13L17,13L17,16L20,16ZM23,10L20,10L20,13L23,13L23,10ZM14,10L17,10L17,13L14,13L14,10ZM26,7L23,7L23,10L26,10L26,7ZM11,7L14,7L14,10L11,10L11,7ZM29,4L26,4L26,7L29,7L29,4ZM8,4L11,4L11,7L8,7L8,4Z" style="fill:rgb(176,172,164);"/></g></svg>