<?xml version="1.0" encoding="UTF-8" standalone="no"?><!DOCTYPE svg PUBLIC "-//W3C//DTD SVG 1.1//EN" "http://www.w3.org/Graphics/SVG/1.1/DTD/svg11.dtd"><svg width="100%" height="100%" viewBox="0 0 40 40" version="1.1" xmlns="http://www.w3.org/2000/svg" xmlns:xlink="http://www.w3.org/1999/xlink" xml:space="preserve" xmlns:serif="http://www.serif.com/" style="fill-rule:evenodd;clip-rule:evenodd;stroke-linejoin:round;stroke-miterlimit:2;"><g id="player-ch-btn-collapse"><path d="M40,31L0,31L0,40L37,40L37,37L40,37L40,31Z" style="fill:rgb(65,59,50);"/><path d="M40,0L0,0L0,34L37,34L37,31L40,31L40,0Z" style="fill:rgb(86,78,67);"/><path d="M37,34L37,31L40,31L40,0L37,0L37,31L0,31L0,34L37,34Z" style="fill:rgb(128,122,110);"/><g><path d="M11,16L23,16L23,28L20,28L20,25L17,25L17,22L14,22L14,19L11,19L11,16Z" style="fill:rgb(65,59,50);"/><path d="M23,4L23,25L20,25L20,22L17,22L17,19L14,19L14,16L11,16L11,13L14,13L14,10L17,10L17,7L20,7L20,4L23,4Z" style="fill:rgb(176,172,164);"/></g></g></svg>