<?xml version="1.0" encoding="UTF-8" standalone="no"?><!DOCTYPE svg PUBLIC "-//W3C//DTD SVG 1.1//EN" "http://www.w3.org/Graphics/SVG/1.1/DTD/svg11.dtd"><svg width="100%" height="100%" viewBox="0 0 24 52" version="1.1" xmlns="http://www.w3.org/2000/svg" xmlns:xlink="http://www.w3.org/1999/xlink" xml:space="preserve" xmlns:serif="http://www.serif.com/" style="fill-rule:evenodd;clip-rule:evenodd;stroke-linejoin:round;stroke-miterlimit:2;"><path d="M6,3L0,9L0,52L24,52L24,0L12,0L6,3Z" style="fill:rgb(86,78,67);"/><path d="M3,12L0,12L0,52L3,52L3,12ZM3,6L0,6L0,9L3,9L3,6ZM6,3L3,3L3,6L6,6L6,3ZM19,0L15,0L15,3L19,3L19,0ZM12,0L6,0L6,3L12,3L12,0Z" style="fill:rgb(128,122,110);"/><rect x="0" y="46" width="24" height="6" style="fill-opacity:0.25;"/></svg>