<?xml version="1.0" encoding="UTF-8" standalone="no"?><!DOCTYPE svg PUBLIC "-//W3C//DTD SVG 1.1//EN" "http://www.w3.org/Graphics/SVG/1.1/DTD/svg11.dtd"><svg width="100%" height="100%" viewBox="0 0 24 52" version="1.1" xmlns="http://www.w3.org/2000/svg" xmlns:xlink="http://www.w3.org/1999/xlink" xml:space="preserve" xmlns:serif="http://www.serif.com/" style="fill-rule:evenodd;clip-rule:evenodd;stroke-linejoin:round;stroke-miterlimit:2;"><path d="M18,0L0,0L0,52L24,52L24,9L18,3L18,0Z" style="fill:rgb(86,78,67);"/><path d="M24,27L21,27L21,52L24,52L24,27ZM24,18L21,18L21,24L24,24L24,18ZM24,6L21,6L21,9L24,9L24,6ZM21,3L18,3L18,6L21,6L21,3ZM18,0L0,0L0,3L18,3L18,0Z" style="fill:rgb(128,122,110);"/><rect x="0" y="46" width="24" height="6" style="fill-opacity:0.25;"/></svg>