<?xml version="1.0" encoding="UTF-8" standalone="no"?><!DOCTYPE svg PUBLIC "-//W3C//DTD SVG 1.1//EN" "http://www.w3.org/Graphics/SVG/1.1/DTD/svg11.dtd"><svg width="100%" height="100%" viewBox="0 0 40 40" version="1.1" xmlns="http://www.w3.org/2000/svg" xmlns:xlink="http://www.w3.org/1999/xlink" xml:space="preserve" xmlns:serif="http://www.serif.com/" style="fill-rule:evenodd;clip-rule:evenodd;stroke-linejoin:round;stroke-miterlimit:2;"><g id="player-ch-btn-open"><path d="M40,31L0,31L0,40L37,40L37,37L40,37L40,31Z" style="fill:rgb(65,59,50);"/><path d="M40,0L0,0L0,34L37,34L37,31L40,31L40,0Z" style="fill:rgb(86,78,67);"/><path d="M37,34L37,31L40,31L40,0L37,0L37,31L0,31L0,34L37,34Z" style="fill:rgb(128,122,110);"/><path d="M27.5,5L24.5,5L24.5,8L21.5,8L21.5,11L18.5,11L18.5,5L15.5,5L15.5,8L12.5,8L12.5,11L9.5,11L9.5,14L6.5,14L6.5,17L9.5,17L9.5,20L12.5,20L12.5,23L15.5,23L15.5,26L18.5,26L18.5,20L21.5,20L21.5,23L24.5,23L24.5,26L27.5,26L27.5,5Z" style="fill:white;"/></g></svg>