<?xml version="1.0" encoding="UTF-8" standalone="no"?><!DOCTYPE svg PUBLIC "-//W3C//DTD SVG 1.1//EN" "http://www.w3.org/Graphics/SVG/1.1/DTD/svg11.dtd"><svg width="100%" height="100%" viewBox="0 0 40 160" version="1.1" xmlns="http://www.w3.org/2000/svg" xmlns:xlink="http://www.w3.org/1999/xlink" xml:space="preserve" xmlns:serif="http://www.serif.com/" style="fill-rule:evenodd;clip-rule:evenodd;stroke-linejoin:round;stroke-miterlimit:2;"><path d="M34,0L12,0L6,3L0,9L0,160L40,160L40,9L34,3L34,0Z" style="fill:rgb(86,78,67);"/><path d="M40,27L37,27L37,160L40,160L40,27ZM3,12L0,12L0,110L3,110L3,12ZM40,18L37,18L37,24L40,24L40,18ZM40,6L37,6L37,9L40,9L40,6ZM3,6L0,6L0,9L3,9L3,6ZM37,3L34,3L34,6L37,6L37,3ZM6,3L3,3L3,6L6,6L6,3ZM34,0L22,0L22,3L34,3L34,0ZM12,0L6,0L6,3L12,3L12,0Z" style="fill:rgb(128,122,110);"/><rect x="0" y="113" width="3" height="47" style="fill:rgb(128,122,110);"/><rect x="0" y="154" width="40" height="6" style="fill-opacity:0.25;"/></svg>