<?xml version="1.0" encoding="UTF-8" standalone="no"?><!DOCTYPE svg PUBLIC "-//W3C//DTD SVG 1.1//EN" "http://www.w3.org/Graphics/SVG/1.1/DTD/svg11.dtd"><svg width="100%" height="100%" viewBox="0 0 468 104" version="1.1" xmlns="http://www.w3.org/2000/svg" xmlns:xlink="http://www.w3.org/1999/xlink" xml:space="preserve" xmlns:serif="http://www.serif.com/" style="fill-rule:evenodd;clip-rule:evenodd;stroke-linejoin:round;stroke-miterlimit:2;"><g id="start-btn--h"><path d="M12,6L-0,18L-0,104L468,104L468,18L456,6L456,0L24,0L12,6Z" style="fill:rgb(86,78,67);"/><path d="M468,54L462,54L462,104L468,104L468,54ZM6,24L-0,24L-0,104L6,104L6,24ZM468,36L462,36L462,48L468,48L468,36ZM468,12L462,12L462,18L468,18L468,12ZM6,12L-0,12L-0,18L6,18L6,12ZM462,6L456,6L456,12L462,12L462,6ZM12,6L6,6L6,12L12,12L12,6ZM450,0L414,0L414,6L450,6L450,0ZM408,0L174,0L174,6L408,6L408,0ZM156,0L150,0L150,6L156,6L156,0ZM144,0L98,0L98,6L144,6L144,0ZM56,0L36,0L36,6L56,6L56,0ZM24,0L12,0L12,6L24,6L24,0Z" style="fill:rgb(128,122,110);"/><rect x="-0" y="92" width="468" height="12" style="fill-opacity:0.25;"/><path d="M154,73.25L154,33L165.5,33L165.5,50.25L182.75,50.25L182.75,33L194.25,33L194.25,73.25L182.75,73.25L182.75,56L165.5,56L165.5,73.25L154,73.25Z" style="fill:rgb(128,122,110);fill-rule:nonzero;"/><path d="M200,73.25L200,44.5L205.75,44.5L205.75,38.75L211.5,38.75L211.5,33L228.75,33L228.75,38.75L234.5,38.75L234.5,44.5L240.25,44.5L240.25,73.25L228.75,73.25L228.75,61.75L211.5,61.75L211.5,73.25L200,73.25ZM211.5,56L228.75,56L228.75,44.5L223,44.5L223,38.75L217.25,38.75L217.25,44.5L211.5,44.5L211.5,56Z" style="fill:rgb(128,122,110);fill-rule:nonzero;"/><path d="M274.75,73.25L274.75,56L251.75,56L251.75,50.25L246,50.25L246,33L257.5,33L257.5,50.25L274.75,50.25L274.75,33L286.25,33L286.25,73.25L274.75,73.25Z" style="fill:rgb(128,122,110);fill-rule:nonzero;"/><path d="M292,73.25L292,44.5L297.75,44.5L297.75,38.75L303.5,38.75L303.5,33L320.75,33L320.75,38.75L326.5,38.75L326.5,44.5L332.25,44.5L332.25,73.25L320.75,73.25L320.75,61.75L303.5,61.75L303.5,73.25L292,73.25ZM303.5,56L320.75,56L320.75,44.5L315,44.5L315,38.75L309.25,38.75L309.25,44.5L303.5,44.5L303.5,56Z" style="fill:rgb(128,122,110);fill-rule:nonzero;"/><path d="M355.25,73.25L355.25,38.75L343.75,38.75L343.75,33L378.25,33L378.25,38.75L366.75,38.75L366.75,73.25L355.25,73.25Z" style="fill:rgb(128,122,110);fill-rule:nonzero;"/><path d="M384,73.25L384,33L395.5,33L395.5,44.5L418.5,44.5L418.5,50.25L424.25,50.25L424.25,67.5L418.5,67.5L418.5,73.25L384,73.25ZM395.5,67.5L412.75,67.5L412.75,50.25L395.5,50.25L395.5,67.5Z" style="fill:rgb(128,122,110);fill-rule:nonzero;"/><path d="M154,67.25L154,27L165.5,27L165.5,44.25L182.75,44.25L182.75,27L194.25,27L194.25,67.25L182.75,67.25L182.75,50L165.5,50L165.5,67.25L154,67.25Z" style="fill:rgb(54,44,42);fill-rule:nonzero;"/><path d="M200,67.25L200,38.5L205.75,38.5L205.75,32.75L211.5,32.75L211.5,27L228.75,27L228.75,32.75L234.5,32.75L234.5,38.5L240.25,38.5L240.25,67.25L228.75,67.25L228.75,55.75L211.5,55.75L211.5,67.25L200,67.25ZM211.5,50L228.75,50L228.75,38.5L223,38.5L223,32.75L217.25,32.75L217.25,38.5L211.5,38.5L211.5,50Z" style="fill:rgb(54,44,42);fill-rule:nonzero;"/><path d="M274.75,67.25L274.75,50L251.75,50L251.75,44.25L246,44.25L246,27L257.5,27L257.5,44.25L274.75,44.25L274.75,27L286.25,27L286.25,67.25L274.75,67.25Z" style="fill:rgb(54,44,42);fill-rule:nonzero;"/><path d="M292,67.25L292,38.5L297.75,38.5L297.75,32.75L303.5,32.75L303.5,27L320.75,27L320.75,32.75L326.5,32.75L326.5,38.5L332.25,38.5L332.25,67.25L320.75,67.25L320.75,55.75L303.5,55.75L303.5,67.25L292,67.25ZM303.5,50L320.75,50L320.75,38.5L315,38.5L315,32.75L309.25,32.75L309.25,38.5L303.5,38.5L303.5,50Z" style="fill:rgb(54,44,42);fill-rule:nonzero;"/><path d="M355.25,67.25L355.25,32.75L343.75,32.75L343.75,27L378.25,27L378.25,32.75L366.75,32.75L366.75,67.25L355.25,67.25Z" style="fill:rgb(54,44,42);fill-rule:nonzero;"/><path d="M384,67.25L384,27L395.5,27L395.5,38.5L418.5,38.5L418.5,44.25L424.25,44.25L424.25,61.5L418.5,61.5L418.5,67.25L384,67.25ZM395.5,61.5L412.75,61.5L412.75,44.25L395.5,44.25L395.5,61.5Z" style="fill:rgb(54,44,42);fill-rule:nonzero;"/><path d="M92,66L92,72L62,72L62,66L56,66L56,60L50,60L50,30L56,30L56,24L62,24L62,18L92,18L92,24L98,24L98,30L104,30L104,60L98,60L98,66L92,66Z" style="fill:rgb(78,116,17);"/><rect x="50" y="60" width="6" height="6" style="fill:rgb(54,44,42);"/><rect x="50" y="24" width="6" height="6" style="fill:rgb(54,44,42);"/><rect x="44" y="30" width="6" height="30" style="fill:rgb(54,44,42);"/><rect x="104" y="30" width="6" height="30" style="fill:rgb(54,44,42);"/><rect x="98" y="60" width="6" height="6" style="fill:rgb(54,44,42);"/><rect x="98" y="24" width="6" height="6" style="fill:rgb(54,44,42);"/><rect x="56" y="66" width="6" height="6" style="fill:rgb(54,44,42);"/><rect x="56" y="18" width="6" height="6" style="fill:rgb(54,44,42);"/><rect x="92" y="66" width="6" height="6" style="fill:rgb(54,44,42);"/><rect x="92" y="18" width="6" height="6" style="fill:rgb(54,44,42);"/><rect x="62" y="72" width="30" height="6" style="fill:rgb(54,44,42);"/><rect x="62" y="12" width="30" height="6" style="fill:rgb(54,44,42);"/></g></svg>