<?xml version="1.0" encoding="UTF-8" standalone="no"?><!DOCTYPE svg PUBLIC "-//W3C//DTD SVG 1.1//EN" "http://www.w3.org/Graphics/SVG/1.1/DTD/svg11.dtd"><svg width="100%" height="100%" viewBox="0 0 102 114" version="1.1" xmlns="http://www.w3.org/2000/svg" xmlns:xlink="http://www.w3.org/1999/xlink" xml:space="preserve" xmlns:serif="http://www.serif.com/" style="fill-rule:evenodd;clip-rule:evenodd;stroke-linejoin:round;stroke-miterlimit:2;"><g id="startscreen-btn-restart"><path d="M102,12L102,90L96,90L96,96L90,96L90,102L84,102L84,108L78,108L78,114L6,114L6,12L102,12Z" style="fill:rgb(54,44,42);"/><path d="M102,0L102,78L96,78L96,84L90,84L90,90L84,90L84,96L78,96L78,102L6,102L6,0L102,0Z" style="fill:rgb(86,78,67);"/><path d="M24,60L24,66L30,66L30,72L36,72L36,78L66,78L66,72L72,72L72,66L78,66L78,60L72,60L66,66L36,66L30,60L24,60ZM54,45L48,45L48,51L54,51L54,45ZM36,30L30,30L30,36L36,36L36,30ZM72,30L66,30L66,36L72,36L72,30Z" style="fill:rgb(107,100,88);"/><path d="M66,66L36,66L36,72L66,72L66,66L72,66L72,60L66,60L66,66ZM36,60L30,60L30,66L36,66L36,60ZM78,30L72,30L72,60L78,60L78,30ZM30,60L30,30L24,30L24,60L30,60ZM54,18L48,18L48,45L54,45L54,18ZM72,24L66,24L66,30L72,30L72,24ZM36,24L30,24L30,30L36,30L36,24Z" style="fill:rgb(54,44,42);"/><path d="M78,96L6,96L6,102L78,102L78,96ZM84,90L78,90L78,96L84,96L84,90ZM90,84L84,84L84,90L90,90L90,84L96,84L96,78L90,78L90,84ZM102,48L96,48L96,78L102,78L102,48ZM102,34L96,34L96,40L102,40L102,34ZM102,16L96,16L96,28L102,28L102,16ZM102,0L96,0L96,6L102,6L102,0Z" style="fill:rgb(128,122,110);"/><rect x="6" y="0" width="96" height="12" style="fill-opacity:0.25;"/><rect x="-0" y="12" width="6" height="84" style="fill:rgb(54,44,42);"/><rect x="-0" y="102" width="6" height="12" style="fill:rgb(41,33,32);"/><rect x="-0" y="-0" width="6" height="12" style="fill:rgb(41,33,32);"/><rect x="-0" y="96" width="6" height="6" style="fill:rgb(107,100,88);"/></g></svg>