<?xml version="1.0" encoding="UTF-8" standalone="no"?><!DOCTYPE svg PUBLIC "-//W3C//DTD SVG 1.1//EN" "http://www.w3.org/Graphics/SVG/1.1/DTD/svg11.dtd"><svg width="100%" height="100%" viewBox="0 0 510 114" version="1.1" xmlns="http://www.w3.org/2000/svg" xmlns:xlink="http://www.w3.org/1999/xlink" xml:space="preserve" xmlns:serif="http://www.serif.com/" style="fill-rule:evenodd;clip-rule:evenodd;stroke-linejoin:round;stroke-miterlimit:2;"><g id="startscreen-btn-continue-h"><rect x="0" y="12" width="510" height="102" style="fill:rgb(54,44,42);"/><rect x="0" y="-0" width="510" height="102" style="fill:rgb(86,78,67);"/><rect x="0" y="96" width="510" height="6" style="fill:rgb(128,122,110);"/><rect x="0" y="0" width="510" height="12" style="fill-opacity:0.25;"/><path d="M27.875,74.25L27.875,34L68.125,34L68.125,74.25L56.625,74.25L56.625,39.75L39.375,39.75L39.375,74.25L27.875,74.25Z" style="fill:rgb(54,44,42);fill-rule:nonzero;"/><path d="M73.875,74.25L73.875,34L108.375,34L108.375,39.75L114.125,39.75L114.125,57L108.375,57L108.375,62.75L85.375,62.75L85.375,74.25L73.875,74.25ZM85.375,57L102.625,57L102.625,39.75L85.375,39.75L85.375,57Z" style="fill:rgb(54,44,42);fill-rule:nonzero;"/><path d="M125.625,74.25L125.625,68.5L119.875,68.5L119.875,39.75L125.625,39.75L125.625,34L154.375,34L154.375,39.75L160.125,39.75L160.125,68.5L154.375,68.5L154.375,74.25L125.625,74.25ZM131.375,68.5L148.625,68.5L148.625,39.75L131.375,39.75L131.375,68.5Z" style="fill:rgb(54,44,42);fill-rule:nonzero;"/><path d="M165.875,80L165.875,68.5L171.625,68.5L171.625,57L177.375,57L177.375,34L206.125,34L206.125,68.5L211.875,68.5L211.875,80L200.375,80L200.375,74.25L177.375,74.25L177.375,80L165.875,80ZM183.125,68.5L194.625,68.5L194.625,39.75L183.125,39.75L183.125,68.5Z" style="fill:rgb(54,44,42);fill-rule:nonzero;"/><path d="M217.625,74.25L217.625,68.5L211.875,68.5L211.875,39.75L217.625,39.75L217.625,34L246.375,34L246.375,39.75L252.125,39.75L252.125,68.5L246.375,68.5L246.375,74.25L217.625,74.25ZM223.375,68.5L240.625,68.5L240.625,39.75L223.375,39.75L223.375,68.5Z" style="fill:rgb(54,44,42);fill-rule:nonzero;"/><path d="M257.875,74.25L257.875,62.75L263.625,62.75L263.625,57L269.375,57L269.375,34L298.125,34L298.125,74.25L286.625,74.25L286.625,39.75L275.125,39.75L275.125,68.5L269.375,68.5L269.375,74.25L257.875,74.25Z" style="fill:rgb(54,44,42);fill-rule:nonzero;"/><path d="M315.375,34L315.375,51.25L309.625,51.25L309.625,45.5L303.875,45.5L303.875,34L315.375,34ZM326.875,51.25L332.625,51.25L332.625,57L326.875,57L326.875,74.25L321.125,74.25L321.125,57L315.375,57L315.375,51.25L321.125,51.25L321.125,34L326.875,34L326.875,51.25ZM344.125,34L344.125,45.5L338.375,45.5L338.375,51.25L332.625,51.25L332.625,34L344.125,34ZM309.625,57L315.375,57L315.375,74.25L303.875,74.25L303.875,62.75L309.625,62.75L309.625,57ZM332.625,74.25L332.625,57L338.375,57L338.375,62.75L344.125,62.75L344.125,74.25L332.625,74.25Z" style="fill:rgb(54,44,42);fill-rule:nonzero;"/><path d="M349.875,74.25L349.875,34L361.375,34L361.375,57L367.125,57L367.125,51.25L372.875,51.25L372.875,45.5L378.625,45.5L378.625,34L390.125,34L390.125,74.25L378.625,74.25L378.625,57L372.875,57L372.875,62.75L367.125,62.75L367.125,68.5L361.375,68.5L361.375,74.25L349.875,74.25Z" style="fill:rgb(54,44,42);fill-rule:nonzero;"/><path d="M413.125,74.25L413.125,39.75L401.625,39.75L401.625,34L436.125,34L436.125,39.75L424.625,39.75L424.625,74.25L413.125,74.25Z" style="fill:rgb(54,44,42);fill-rule:nonzero;"/><path d="M441.875,74.25L441.875,34L453.375,34L453.375,45.5L476.375,45.5L476.375,51.25L482.125,51.25L482.125,68.5L476.375,68.5L476.375,74.25L441.875,74.25ZM453.375,68.5L470.625,68.5L470.625,51.25L453.375,51.25L453.375,68.5Z" style="fill:rgb(54,44,42);fill-rule:nonzero;"/></g></svg>