<?xml version="1.0" encoding="UTF-8" standalone="no"?><!DOCTYPE svg PUBLIC "-//W3C//DTD SVG 1.1//EN" "http://www.w3.org/Graphics/SVG/1.1/DTD/svg11.dtd"><svg width="100%" height="100%" viewBox="0 0 1920 1080" version="1.1" xmlns="http://www.w3.org/2000/svg" xmlns:xlink="http://www.w3.org/1999/xlink" xml:space="preserve" xmlns:serif="http://www.serif.com/" style="fill-rule:evenodd;clip-rule:evenodd;stroke-linecap:round;stroke-linejoin:round;stroke-miterlimit:1.5;"><rect id="Artboard1" x="0" y="0" width="1920" height="1080" style="fill:none;"/><path d="M1597.23,827.558L1597.23,992.588L1515.01,992.588M1582.5,561.4L1582.5,738.175M1598.82,112.495L1598.82,471.221" style="fill:none;fill-rule:nonzero;stroke:rgb(12,122,175);stroke-width:1px;"/><path d="M1515.01,978.454L1583.09,978.454L1583.09,827.558" style="fill:none;fill-rule:nonzero;stroke:rgb(12,122,175);stroke-width:1px;"/><path d="M1596.83,738.175L1596.83,561.4" style="fill:none;fill-rule:nonzero;stroke:rgb(12,122,175);stroke-width:1px;"/><path d="M1608.97,471.221L1608.97,112.495" style="fill:none;fill-rule:nonzero;stroke:rgb(12,122,175);stroke-width:1px;"/><path d="M1607.4,112.296L1608.97,113.872" style="fill:none;stroke:rgb(12,122,175);stroke-width:1px;"/><path d="M1598.82,116.718L1608.97,126.87" style="fill:none;stroke:rgb(12,122,175);stroke-width:1px;"/><path d="M1598.82,129.716L1608.97,139.869" style="fill:none;stroke:rgb(12,122,175);stroke-width:1px;"/><path d="M1598.82,142.714L1608.97,152.867" style="fill:none;stroke:rgb(12,122,175);stroke-width:1px;"/><path d="M1598.82,155.713L1608.97,165.865" style="fill:none;stroke:rgb(12,122,175);stroke-width:1px;"/><path d="M1598.82,168.711L1608.97,178.864" style="fill:none;stroke:rgb(12,122,175);stroke-width:1px;"/><path d="M1598.82,181.71L1608.97,191.862" style="fill:none;stroke:rgb(12,122,175);stroke-width:1px;"/><path d="M1598.82,194.708L1608.97,204.861" style="fill:none;stroke:rgb(12,122,175);stroke-width:1px;"/><path d="M1598.82,207.706L1608.97,217.859" style="fill:none;stroke:rgb(12,122,175);stroke-width:1px;"/><path d="M1598.82,220.705L1608.97,230.857" style="fill:none;stroke:rgb(12,122,175);stroke-width:1px;"/><path d="M1598.82,233.703L1608.97,243.856" style="fill:none;stroke:rgb(12,122,175);stroke-width:1px;"/><path d="M1598.82,246.702L1608.97,256.854" style="fill:none;stroke:rgb(12,122,175);stroke-width:1px;"/><path d="M1598.82,259.7L1608.97,269.853" style="fill:none;stroke:rgb(12,122,175);stroke-width:1px;"/><path d="M1598.82,272.698L1608.97,282.851" style="fill:none;stroke:rgb(12,122,175);stroke-width:1px;"/><path d="M1598.82,285.697L1608.97,295.849" style="fill:none;stroke:rgb(12,122,175);stroke-width:1px;"/><path d="M1598.82,298.695L1608.97,308.848" style="fill:none;stroke:rgb(12,122,175);stroke-width:1px;"/><path d="M1598.82,311.694L1608.97,321.846" style="fill:none;stroke:rgb(12,122,175);stroke-width:1px;"/><path d="M1598.82,324.692L1608.97,334.845" style="fill:none;stroke:rgb(12,122,175);stroke-width:1px;"/><path d="M1598.82,337.69L1608.97,347.843" style="fill:none;stroke:rgb(12,122,175);stroke-width:1px;"/><path d="M1598.82,350.689L1608.97,360.841" style="fill:none;stroke:rgb(12,122,175);stroke-width:1px;"/><path d="M1598.82,363.687L1608.97,373.84" style="fill:none;stroke:rgb(12,122,175);stroke-width:1px;"/><path d="M1598.82,376.686L1608.97,386.838" style="fill:none;stroke:rgb(12,122,175);stroke-width:1px;"/><path d="M1598.82,389.684L1608.97,399.837" style="fill:none;stroke:rgb(12,122,175);stroke-width:1px;"/><path d="M1598.82,402.682L1608.97,412.835" style="fill:none;stroke:rgb(12,122,175);stroke-width:1px;"/><path d="M1598.82,415.681L1608.97,425.833" style="fill:none;stroke:rgb(12,122,175);stroke-width:1px;"/><path d="M1598.82,428.679L1608.97,438.832" style="fill:none;stroke:rgb(12,122,175);stroke-width:1px;"/><path d="M1598.82,441.678L1608.97,451.83" style="fill:none;stroke:rgb(12,122,175);stroke-width:1px;"/><path d="M1598.82,454.676L1608.97,464.829" style="fill:none;stroke:rgb(12,122,175);stroke-width:1px;"/><path d="M1598.82,467.674L1602.37,471.221" style="fill:none;stroke:rgb(12,122,175);stroke-width:1px;"/><path d="M1588.55,561.4L1596.83,569.684" style="fill:none;stroke:rgb(12,122,175);stroke-width:1px;"/><path d="M1582.5,568.351L1596.83,582.684" style="fill:none;stroke:rgb(12,122,175);stroke-width:1px;"/><path d="M1582.5,581.351L1596.83,595.684" style="fill:none;stroke:rgb(12,122,175);stroke-width:1px;"/><path d="M1582.5,594.351L1596.83,608.684" style="fill:none;stroke:rgb(12,122,175);stroke-width:1px;"/><path d="M1582.5,607.351L1596.83,621.684" style="fill:none;stroke:rgb(12,122,175);stroke-width:1px;"/><path d="M1582.5,620.351L1596.83,634.684" style="fill:none;stroke:rgb(12,122,175);stroke-width:1px;"/><path d="M1582.5,633.351L1596.83,647.684" style="fill:none;stroke:rgb(12,122,175);stroke-width:1px;"/><path d="M1582.5,646.351L1596.83,660.684" style="fill:none;stroke:rgb(12,122,175);stroke-width:1px;"/><path d="M1582.5,659.351L1596.83,673.684" style="fill:none;stroke:rgb(12,122,175);stroke-width:1px;"/><path d="M1582.5,672.351L1596.83,686.684" style="fill:none;stroke:rgb(12,122,175);stroke-width:1px;"/><path d="M1582.5,685.351L1596.83,699.684" style="fill:none;stroke:rgb(12,122,175);stroke-width:1px;"/><path d="M1582.5,698.351L1596.83,712.684" style="fill:none;stroke:rgb(12,122,175);stroke-width:1px;"/><path d="M1582.5,711.351L1596.83,725.684" style="fill:none;stroke:rgb(12,122,175);stroke-width:1px;"/><path d="M1582.5,724.351L1596.32,738.175" style="fill:none;stroke:rgb(12,122,175);stroke-width:1px;"/><path d="M1582.5,737.351L1583.32,738.175" style="fill:none;stroke:rgb(12,122,175);stroke-width:1px;"/><path d="M1594.7,827.558L1597.23,830.082" style="fill:none;stroke:rgb(12,122,175);stroke-width:1px;"/><path d="M1583.09,828.948L1597.23,843.082" style="fill:none;stroke:rgb(12,122,175);stroke-width:1px;"/><path d="M1583.09,841.948L1597.23,856.082" style="fill:none;stroke:rgb(12,122,175);stroke-width:1px;"/><path d="M1583.09,854.948L1597.23,869.082" style="fill:none;stroke:rgb(12,122,175);stroke-width:1px;"/><path d="M1583.09,867.948L1597.23,882.082" style="fill:none;stroke:rgb(12,122,175);stroke-width:1px;"/><path d="M1583.09,880.948L1597.23,895.082" style="fill:none;stroke:rgb(12,122,175);stroke-width:1px;"/><path d="M1583.09,893.948L1597.23,908.082" style="fill:none;stroke:rgb(12,122,175);stroke-width:1px;"/><path d="M1583.09,906.948L1597.23,921.082" style="fill:none;stroke:rgb(12,122,175);stroke-width:1px;"/><path d="M1583.09,919.948L1597.23,934.082" style="fill:none;stroke:rgb(12,122,175);stroke-width:1px;"/><path d="M1583.09,932.948L1597.23,947.082" style="fill:none;stroke:rgb(12,122,175);stroke-width:1px;"/><path d="M1583.09,945.948L1597.23,960.082" style="fill:none;stroke:rgb(12,122,175);stroke-width:1px;"/><path d="M1583.09,958.948L1597.23,973.082" style="fill:none;stroke:rgb(12,122,175);stroke-width:1px;"/><path d="M1583.09,971.948L1597.23,986.082" style="fill:none;stroke:rgb(12,122,175);stroke-width:1px;"/><path d="M1576.6,978.454L1590.73,992.588" style="fill:none;stroke:rgb(12,122,175);stroke-width:1px;"/><path d="M1563.6,978.454L1577.73,992.588" style="fill:none;stroke:rgb(12,122,175);stroke-width:1px;"/><path d="M1550.6,978.454L1564.73,992.588" style="fill:none;stroke:rgb(12,122,175);stroke-width:1px;"/><path d="M1537.59,978.454L1551.73,992.588" style="fill:none;stroke:rgb(12,122,175);stroke-width:1px;"/><path d="M1524.59,978.454L1538.72,992.588" style="fill:none;stroke:rgb(12,122,175);stroke-width:1px;"/><path d="M1515.01,981.879L1525.72,992.588" style="fill:none;stroke:rgb(12,122,175);stroke-width:1px;"/><path d="M404.592,713.888L517.664,713.888L517.664,731.009L404.592,731.009L404.592,951.38L780.637,951.38L780.637,730.81L654.824,730.81L654.824,713.689L780.637,713.689L780.637,678.255L797.757,678.255L797.757,951.38L1515.01,951.38L1515.01,1005.33L1438.37,1005.33L1438.37,990L365.972,990L365.972,636.251L310.232,636.251L310.232,597.631L404.592,597.631L404.592,713.888ZM1609.77,738.175L1555.82,738.175L1555.82,827.558L1609.77,827.558L1609.77,738.175ZM797.757,525.169L797.757,545.674L780.637,545.674L780.637,508.049L1374.07,508.049L1374.07,459.078L1400.74,459.078L1400.74,376.065L1415.08,376.065L1415.08,459.078L1427.82,459.078L1427.82,471.221L1609.77,471.221L1609.77,561.4L1555.82,561.4L1555.82,525.169L797.757,525.169ZM348.852,113.49L348.852,360.936L444.008,360.936L444.008,378.056L348.852,378.056L348.852,452.309L310.232,452.309L310.232,74.672L1609.77,74.672L1609.77,112.296L1588.67,112.296L1588.67,95.972L1427.82,95.972L1427.82,269.761L1374.07,269.761L1374.07,113.49L873.404,113.49L873.404,378.255L744.207,378.255L744.207,361.135L780.637,361.135L780.637,167.638L624.565,167.638L624.565,361.135L644.074,361.135L644.074,378.255L550.312,378.255L550.312,361.135L607.445,361.135L607.445,113.49L348.852,113.49ZM856.284,361.135L797.757,361.135L797.757,167.638L856.284,167.638L856.284,361.135ZM797.757,113.49L797.757,150.518L856.284,150.518L856.284,113.49L797.757,113.49ZM624.565,113.49L624.565,150.518L780.637,150.518L780.637,113.49L624.565,113.49Z" style="fill:white;fill-opacity:0.1;"/></svg>